<svg width="44" height="44" fill="none" xmlns="http://www.w3.org/2000/svg"><path fill-rule="evenodd" clip-rule="evenodd" d="M22 44c12.15 0 22-9.85 22-22S34.15 0 22 0 0 9.85 0 22s9.85 22 22 22z" fill="#AFB7CC"/><path d="M17.962 25.6h-5.2L11.77 28H9.114l4.992-11.2h2.56L21.674 28h-2.72l-.992-2.4zm-.816-1.968l-1.776-4.288-1.776 4.288h3.552zm14.914-1.456c.64.203 1.141.544 1.504 1.024.362.47.544 1.05.544 1.744 0 .981-.384 1.739-1.152 2.272-.758.523-1.867.784-3.328.784h-5.792V16.8h5.472c1.365 0 2.41.261 3.136.784.736.523 1.104 1.232 1.104 2.128a2.69 2.69 0 01-.4 1.456 2.689 2.689 0 01-1.088 1.008zm-5.648-3.424v2.64h2.576c.64 0 1.125-.112 1.456-.336.33-.224.496-.555.496-.992 0-.437-.166-.763-.496-.976-.33-.224-.816-.336-1.456-.336h-2.576zm3.024 7.296c.683 0 1.195-.112 1.536-.336.352-.224.528-.57.528-1.04 0-.928-.688-1.392-2.064-1.392h-3.024v2.768h3.024z" fill="#fff"/></svg>