<svg width="22" height="22" fill="none" xmlns="http://www.w3.org/2000/svg"><path d="M20.656 7.969V22m-9.468 0v-9.594M1.281 22v-5.688M1 12.781l6.375-6.344 3.781 3.75L20.375.97" stroke="#2F3447" stroke-width="1.5" stroke-miterlimit="10"/><mask id="a" fill="#fff"><path d="M19.094 0l2.25 2.25V0h-2.25z"/></mask><path d="M19.094 0v-1.5h-3.622l2.561 2.56L19.093 0zm2.25 2.25l-1.06 1.06 2.56 2.561V2.25h-1.5zm0-2.25h1.5v-1.5h-1.5V0zm-3.31 1.06l2.25 2.25 2.12-2.12-2.25-2.25-2.12 2.12zm4.81 1.19V0h-3v2.25h3zm-1.5-3.75h-2.25v3h2.25v-3z" fill="#2F3447" mask="url(#a)"/></svg>