<svg width="18" height="14" fill="none" xmlns="http://www.w3.org/2000/svg"><path d="M17.4 0H.6a.6.6 0 00-.6.6v12a.6.6 0 00.6.6h16.8a.6.6 0 00.6-.6V.6a.6.6 0 00-.6-.6zm-.6 12H1.2V1.2h15.6V12zM5.4 6a1.8 1.8 0 100-3.6 1.8 1.8 0 000 3.6zm0-2.4a.6.6 0 110 1.2.6.6 0 010-1.2zM3 10.8h4.8a.6.6 0 00.6-.6V9A2.4 2.4 0 006 6.6H4.8A2.4 2.4 0 002.4 9v1.2a.6.6 0 00.6.6zM3.6 9a1.2 1.2 0 011.2-1.2H6A1.2 1.2 0 017.2 9v.6H3.6V9zM9 6.6a1.2 1.2 0 011.2-1.2 1.2 1.2 0 01.714.24l2.286-.99a1.2 1.2 0 11.468 1.104L11.73 6.6l1.956.84a1.2 1.2 0 01.714-.24 1.2 1.2 0 11-1.2 1.35l-2.286-.99a1.2 1.2 0 01-.714.24A1.2 1.2 0 019 6.6z" fill="#fff"/></svg>