<svg width="20" height="17" fill="none" xmlns="http://www.w3.org/2000/svg"><path d="M5.583 12.451h0A5.43 5.43 0 011.87 7.306c0-3.01 2.427-5.436 5.41-5.411v0h5.389a5.443 5.443 0 015.436 5.436 5.443 5.443 0 01-5.436 5.436H8.647a.497.497 0 00-.362.136l-2.368 2.369v-2.355c0-.2-.131-.398-.334-.466zM7.306.875A6.44 6.44 0 00.875 7.306a6.42 6.42 0 004.047 5.97v2.472a.793.793 0 001.355.56l2.57-2.57h3.847a6.44 6.44 0 006.431-6.432A6.44 6.44 0 0012.694.875H7.306z" fill="#fff" stroke="#fff" stroke-width=".25"/><path d="M6.736 7.804h5.284l-1.624 1.624a.485.485 0 00.362.834c.118 0 .255-.03.361-.136l2.483-2.483h.001a.608.608 0 00.059-.068.268.268 0 00.048-.112.4.4 0 00.028-.154v-.006c0-.022 0-.055-.004-.085a.226.226 0 00-.04-.104 1.361 1.361 0 00-.035-.065.377.377 0 00-.057-.079l-2.483-2.483a.485.485 0 00-.698 0 .485.485 0 000 .698l1.624 1.624h-5.31a.507.507 0 00-.497.498c0 .267.23.497.498.497z" fill="#fff" stroke="#fff" stroke-width=".25"/></svg>