<svg width="20" height="19" fill="none" xmlns="http://www.w3.org/2000/svg"><path d="M10 .375C4.615.375.25 3.817.25 8.063c0 2.744 1.825 5.153 4.57 6.513-.15.515-.96 3.314-.992 3.533 0 0-.02.165.088.228.107.064.233.015.233.015.306-.043 3.557-2.326 4.12-2.723.561.08 1.14.121 1.731.121 5.385 0 9.75-3.442 9.75-7.688 0-4.245-4.365-7.687-9.75-7.687z" fill="#000"/><path d="M4.607 10.746a.55.55 0 01-.562-.537V6.867h-.878a.552.552 0 010-1.101h2.88a.552.552 0 010 1.101H5.17v3.342a.55.55 0 01-.563.537zm4.933-.007c-.235 0-.414-.096-.468-.249l-.279-.729H7.078l-.279.73c-.054.153-.233.248-.468.248a.86.86 0 01-.357-.078c-.155-.071-.304-.268-.133-.799l1.345-3.541c.095-.27.383-.547.75-.555.366.008.654.286.75.555l1.344 3.54c.171.532.022.729-.133.8a.861.861 0 01-.357.078zM8.497 8.765l-.561-1.596-.562 1.596h1.123zm2.438 1.9a.528.528 0 01-.539-.517v-3.82a.57.57 0 01.575-.562.57.57 0 01.574.562v3.305h1.195c.297 0 .54.231.54.515a.528.528 0 01-.54.516h-1.805zm3.126.074a.563.563 0 01-.563-.563V6.328a.563.563 0 011.125 0v1.21l1.57-1.57a.437.437 0 01.311-.125c.14 0 .282.06.388.166a.555.555 0 01.165.356.438.438 0 01-.124.343L15.65 7.989l1.385 1.835a.559.559 0 01-.11.787.557.557 0 01-.59.056.559.559 0 01-.198-.166l-1.32-1.747-.195.195v1.227a.563.563 0 01-.562.563z" fill="#FFE812"/></svg>