<svg width="20" height="17" fill="none" xmlns="http://www.w3.org/2000/svg"><path d="M5.583 12.451h0A5.43 5.43 0 011.87 7.306c0-3.01 2.427-5.436 5.41-5.411v0h5.389a5.443 5.443 0 015.436 5.436 5.443 5.443 0 01-5.436 5.436H8.647a.497.497 0 00-.362.136l-2.368 2.369v-2.355c0-.2-.131-.398-.334-.466zM7.306.875A6.44 6.44 0 00.875 7.306a6.42 6.42 0 004.047 5.97v2.472a.793.793 0 001.355.56l2.57-2.57h3.847a6.44 6.44 0 006.431-6.432A6.44 6.44 0 0012.694.875H7.306z" fill="#fff" stroke="#fff" stroke-width=".25"/></svg>