<svg width="63" height="24" fill="none" xmlns="http://www.w3.org/2000/svg"><path fill-rule="evenodd" clip-rule="evenodd" d="M60.46 18.119c-1.221 0-1.844.805-1.941.927-.318-.585-.879-.927-1.623-.927-1.073 0-1.684.622-1.782.732-.048-.17-.268-.622-.964-.622-.195 0-.488.06-.512.06.024.135.159.77.159 1.648v3.856h1.415v-3.93c.024-.024.55-.56 1.183-.56.648 0 .953.475.953 1.122v3.367h1.415v-3.929c.037-.036.549-.561 1.196-.561.646 0 .939.476.939 1.123v3.367h1.428v-3.587c0-1.268-.72-2.086-1.867-2.086zm-15.485 4.649c-.964 0-1.647-.757-1.647-1.745 0-1.099.78-1.757 1.647-1.757.464 0 .659.134.965.134.328 0 .511-.159.67-.476.098-.17.147-.28.147-.28-.074-.038-.78-.525-2.001-.525-1.782 0-2.843 1.281-2.843 2.904 0 1.781 1.22 2.891 2.843 2.891 1.184 0 1.89-.475 2.025-.573l-.488-.963c-.11.072-.623.39-1.318.39zm-15.496-4.65c-1.354 0-2.49 1.1-2.49 2.905 0 1.843 1.112 2.891 2.759 2.891 1.317 0 2-.573 2.086-.622 0 0-.134-.207-.17-.268-.184-.306-.39-.403-.623-.403-.464 0-.524.195-1.16.195-1.085 0-1.463-.841-1.488-1.402h3.624v-.428c0-1.72-.988-2.867-2.538-2.867zM28.393 20.4c0-.633.44-1.22 1.074-1.22.695 0 1.074.61 1.086 1.22h-2.16zm6.04 1.831v-5.784c0-.646-.428-1.147-1.11-1.147h-.293v7.492c0 .696.426 1.122 1.172 1.122.915 0 1.183-.646 1.183-1.268a1.03 1.03 0 01-.427.098c-.33 0-.525-.184-.525-.513zm-9.444-.196v-2.744h1.183l.415-1.063H24.99V16.57s-.122-.013-.134 0c-.623 0-1.282.255-1.282 1.646v.013h-1.037v1.062h1.037v3.233c0 .915.55 1.39 1.318 1.39.622 0 1.427-.182 1.427-1.414-.048.024-.353.219-.682.219-.464 0-.647-.28-.647-.684zm13.36-3.916c-1.354 0-2.501 1.098-2.501 2.904 0 1.843 1.11 2.891 2.77 2.891 1.306 0 1.989-.573 2.074-.622l-.158-.268c-.195-.306-.403-.403-.634-.403-.464 0-.525.195-1.16.195-1.074 0-1.452-.841-1.476-1.402h3.624v-.428c0-1.72-1-2.867-2.538-2.867zM37.252 20.4c0-.633.452-1.22 1.074-1.22.696 0 1.086.61 1.098 1.22H37.25zm12.763 3.514c-1.732 0-2.77-1.134-2.77-2.891 0-1.745 1.025-2.904 2.77-2.904 1.744 0 2.77 1.16 2.77 2.904 0 1.647-.94 2.891-2.77 2.891zm0-1.085c.866 0 1.367-.745 1.367-1.806s-.489-1.818-1.367-1.818c-.854 0-1.367.744-1.367 1.818 0 1.036.489 1.806 1.367 1.806z" fill="#F57F26"/><path fill-rule="evenodd" clip-rule="evenodd" d="M4.515 17.618c-.855-.402-1.562-.72-1.562-1.378 0-.5.402-.854 1.195-.854.28 0 .525.024.77.072.121.025.255.05.377.05.684 0 1.074-.415 1.33-1.196l.11-.318a7.103 7.103 0 00-2.697-.536c-2.33 0-3.562 1.488-3.562 3.05 0 .78.244 1.342.622 1.793.5.574 1.196.952 1.855 1.27.963.475 1.829.817 1.829 1.512 0 .623-.634.976-1.488.976-1.184 0-2.208-.67-2.33-.743L0 23.12c.17.098 1.403.879 3.453.879 2.172 0 3.819-1.245 3.819-3.173 0-1.903-1.525-2.61-2.757-3.21zm8.504.891l3.953-4.844h-2.818l-3.148 4.173h-.05v-4.173H8.64v10.249h.146c1 0 2.195-.463 2.195-2.135v-2.355h.038l3.209 4.368h2.953l-4.16-5.283zm4.075-15.825c-.817.159-2.026.902-2.013 2.208 0 1.184.977 1.916.977 3.465 0 1.172-.647 1.965-1.343 2.405.28-.025.586-.037.927-.037.72-.013 1.147.06 1.172.06l3.66-4.49a15.128 15.128 0 00-3.38-3.611zm3.076 12.14c.463-.72.523-1.866.56-3.025.05-1.086.269-1.904 1.72-1.916.33 0 .635.049 1.184.049 2.136-.011 3.527-.744 4.393-1.233-1.77-1.122-4.344-2.269-7.553-2.404-.207.587-1.83 5.101-1.952 5.467.024.011.305.33.659.952.525.854.805 1.574.988 2.11z" fill="#E71836"/><path fill-rule="evenodd" clip-rule="evenodd" d="M12.445 11.14c-.194 0-.28-.122-.305-.342-.023-.208-.939-8.59-1.074-9.846-.024-.196-.072-.525-.072-.648 0-.194.134-.304.28-.304.428 0 2.794.548 5.308 2.318-.72.195-2.038.952-2.026 2.514 0 1.366.989 2.135 1 3.514 0 2.244-2.585 2.793-3.11 2.793zm7.943 4.282c.037.097.074.184.11.244.061.097.134.146.22.146a.606.606 0 00.22-.06c.182-.086 7.833-3.649 8.98-4.173.17-.086.488-.22.598-.281a.286.286 0 00.158-.243c0-.062-.024-.11-.048-.16-.146-.232-.891-1.012-2.124-1.867-.976.537-2.514 1.367-4.794 1.379-.562 0-.684-.036-1.062-.036-1.122.011-1.391.487-1.44 1.463 0 .184-.012.428-.012.696-.037.878-.146 2.087-.806 2.892z" fill="#F57F26"/></svg>