<svg width="88" height="27" fill="none" xmlns="http://www.w3.org/2000/svg"><path d="M32.328 27c-.715-.16-1.443-.284-2.146-.469-6.105-1.665-10.262-7.425-9.917-13.703.358-6.414 5.07-11.68 11.36-12.68.235-.037.47-.099.703-.148h2.714c.74.16 1.48.296 2.208.493 6.734 1.838 10.99 8.782 9.608 15.616-.11.53-.308.727-.838.666-.395-.05-.815-.013-1.172-.013.11-1.097.308-2.133.308-3.17.037-6.006-4.563-11.162-10.324-11.619-6.278-.48-11.57 3.664-12.52 9.806-.863 5.538 2.455 10.966 7.772 12.73 5.279 1.75 11.088-.58 13.703-5.551.271-.518.568-.678 1.135-.666 2.368.025 4.724.012 7.092.012h.79v-2.75c-.494 0-.987.012-1.468 0-1.357-.05-2.085-.802-2.085-2.146-.012-1.95 0-3.898 0-5.884h9.288c.012.025.062.05.062.086.012 2.072.037 4.157 0 6.23-.013.986-.753 1.652-1.764 1.701-.568.025-1.147 0-1.764 0v2.739h5.353v1.788h-.752c-4.589 0-9.165 0-13.753-.012-.407 0-.605.123-.827.468-2.281 3.614-5.525 5.773-9.78 6.353-.1.012-.186.074-.284.098-.888.025-1.801.025-2.702.025zM56.467 9.399h-5.045v3.725c0 .42.21.58.617.58 1.27-.013 2.54-.013 3.811 0 .407 0 .63-.16.63-.568-.013-1.233-.013-2.454-.013-3.737zM.012 7.512H2.53v.727c0 2.282-.013 4.564.012 6.834.012.629.074 1.282.234 1.887.272.974.987 1.418 2.048 1.418 1.283.013 2.035-.394 2.331-1.393a6.792 6.792 0 00.259-1.937c.025-2.257.012-4.514.012-6.772v-.703h2.467c.025.05.062.087.062.124-.025 2.898.037 5.797-.111 8.683-.111 2.183-1.542 3.565-3.713 3.873a10.9 10.9 0 01-1.9.099C1.789 20.229.445 18.97.112 16.528c-.025-.16-.074-.32-.111-.468.012-2.874.012-5.711.012-8.548zm61.302.098h2.097v2.812h3.046V7.61h2.245v2.615c0 1.567.013 3.12-.012 4.687-.012 1.221-.715 1.974-1.936 2.023-1.21.05-2.43.037-3.64 0-1.208-.05-1.85-.641-1.874-1.838-.05-2.442-.012-4.884-.012-7.326.024-.05.049-.087.086-.16zm2.121 4.749c0 .777-.024 1.53.025 2.282.012.148.247.407.395.407.752.037 1.517.037 2.27 0 .135-.012.357-.235.357-.37.037-.765.013-1.542.013-2.356h-2.64c-.123 0-.234.025-.42.037zm14.926 5.23v-1.665c.197-.013.395-.025.592-.025h6.784c1.382 0 1.85.469 1.85 1.838v.925c0 1.11-.518 1.64-1.665 1.653-1.628.024-3.244 0-4.872.012h-.654c-.308.974-.197 1.135.728 1.135h6.402v1.714c-.173.013-.37.037-.568.037h-7.03c-1.357 0-1.912-.555-1.912-1.912 0-.308-.013-.616 0-.925.037-1.11.567-1.665 1.69-1.677 1.702-.025 3.404-.025 5.118 0 .481 0 .58-.197.58-.63-.012-.48-.32-.443-.629-.443h-6.229c-.037 0-.074-.013-.185-.037zm1.381-2.763c-2.196 0-3.96-1.727-3.96-3.873-.012-2.146 1.826-3.935 3.997-3.91 2.183.025 3.934 1.788 3.922 3.922-.012 2.159-1.764 3.86-3.96 3.86zm-.013-5.871c-1.097.012-1.998.925-1.973 2.01a1.995 1.995 0 002.01 1.974 1.998 1.998 0 001.974-2.023 1.985 1.985 0 00-2.01-1.961zM70.405 20.29v-13h2.159v3.91h2.195v1.911h-2.158v7.179h-2.196zm15.06-13.013h2.084v7.586h-2.084V7.277z" fill="#EC008C"/><path d="M33.167 18.884v1.455h-6.463c-.9 0-1.32-.407-1.344-1.307a20.618 20.618 0 010-1.233c.037-.753.456-1.172 1.209-1.185 1.418-.012 2.837-.012 4.255-.012.308 0 .629.05.629-.432 0-.505-.333-.419-.629-.419h-5.34v-1.406c.147-.013.332-.037.505-.037h5.908c.925 0 1.357.42 1.394 1.344.062 2.097-.148 2.307-2.22 2.307-1.049 0-2.097-.012-3.146 0-.32 0-.727-.136-.74.444-.012.58.37.48.703.48h5.279zm9.719.123c-.296.457-.493.827-.752 1.135-.111.123-.346.197-.53.197-1.333.013-2.665.013-4.01 0-.813 0-1.257-.431-1.27-1.258-.037-1.517-.172-2.319 2.11-2.207 1.233.061 2.454.012 3.712.012.087-.284.173-.53.272-.839h-5.983V14.74h7.746c-.049 1.122-.37 2.146-.801 3.145-.062.136-.358.234-.543.234-1.357.025-2.714.013-4.07.013-.296 0-.63-.087-.654.419-.012.53.345.456.666.456h4.107zM36.375 7.228c.272-.012.456-.025.642-.025h2.812V8.61h-1.554c-.062.087-.099.111-.111.149-.111 1.381-.111 1.381 1.27 1.381h.913V7.203c.678 0 1.295-.049 1.9.025.209.025.394.358.554.58.148.21.247.468.407.764-.394.025-.715.05-1.073.074-.012.124-.024.223-.024.321-.037 1.16-.037 1.184 1.097 1.147.47-.012.74.099.778.605.024.259.098.518.172.85h-2.627c-1.172 0-2.344.013-3.515 0-1.086-.012-1.616-.542-1.628-1.64-.025-.875-.013-1.751-.013-2.701zM23.67 10.176c.025-1.789 1.493-3.182 3.318-3.158 1.764.025 3.22 1.48 3.207 3.22-.012 1.776-1.492 3.207-3.305 3.194a3.222 3.222 0 01-3.22-3.256zm3.27-1.591c-.914 0-1.641.703-1.641 1.628 0 .925.703 1.64 1.615 1.653.913 0 1.64-.703 1.64-1.628a1.614 1.614 0 00-1.615-1.653zm6.376-1.406v2.047h1.652c.062.087.1.124.1.16.11 1.431.11 1.431-1.296 1.444-.123 0-.247.012-.444.024v2.652h-1.813V7.191c.567-.012 1.135-.012 1.8-.012zm1.664 6.623V12.47h9.276v1.332h-9.275z" fill="#662D91"/><path d="M16.33 4.49v3.046h3.022v1.998h-3.01v3.047h-2.109V9.547h-3.07V7.573h3.021V4.477c.74.013 1.418.013 2.146.013z" fill="#EC008C"/></svg>