<svg width="56" height="60" fill="none" xmlns="http://www.w3.org/2000/svg"><path d="M30.41 53.919v-13.13c0-3.51.981-6.529 3.547-7.472l10.942-3.886c.264-.68.792-2.038.755-3.962-.151-6.64-3.774-11.47-8.792-13.093L6.903 3.019l7.81-2.793A4.33 4.33 0 0116.11 0c.49 0 1.056.113 1.471.226l30.525 9.547c5.32 1.773 7.282 8.112 7.282 11.546 0 2.792-.943 5.999-3.924 7.093-2.64.943-10.527 3.773-10.527 3.773-.302.68-.755 1.962-.755 4.792 0 1.623-.037 10.263-.037 11.81 0 3.736-1.811 7.094-5.245 7.094-1.434.038-3.132-.642-4.49-1.962z" fill="#F58025"/><path d="M22.601 24.111c1.585 2.377 2.378 5.396 2.378 7.924v11.017c0 6.83 3.131 12.376 8.338 13.961l-8.037 2.755c-1.584.566-3.17 0-4.113-.642-3.886-2.49-5.961-6.377-5.961-12.338 0-2.792-.038-6.641-.038-11.546 0-2.83-1.207-6.075-3.056-8.527-1.396-1.812-2.98-2.981-5.018-3.698C3.169 21.658 0 16.527 0 11.509c0-4.302 2.188-7.056 5.132-7.245.641-.038 1.17.075 1.66.226a86.693 86.693 0 013.131 1.02c-.98 4.98 1.963 12.64 7.811 14.715 2.302.83 3.698 2.113 4.867 3.886z" fill="#ED1941"/></svg>