<svg width="20" height="20" fill="none" xmlns="http://www.w3.org/2000/svg"><path fill-rule="evenodd" clip-rule="evenodd" d="M14.31 9.52a.75.75 0 010 1.061l-5 5a.745.745 0 01-1.061 0l-2.56-2.559a.75.75 0 011.06-1.061l2.03 2.029 4.47-4.47a.75.75 0 011.06 0zm2.971 8.98H2.718A1.22 1.22 0 011.5 17.28V7.292h17v9.99a1.22 1.22 0 01-1.219 1.217zM2.718 2.896H4.96v.435a.75.75 0 101.5 0v-.435h7.082v.435a.75.75 0 101.499 0v-.435h2.241A1.22 1.22 0 0118.5 4.115v1.677h-17V4.115a1.22 1.22 0 011.218-1.218zm14.563-1.5H15.04V.75a.75.75 0 10-1.5 0v.647H6.46V.75a.75.75 0 10-1.5 0v.647H2.717A2.721 2.721 0 000 4.116V17.28A2.722 2.722 0 002.718 20h14.563A2.722 2.722 0 0020 17.281V4.116c0-1.5-1.22-2.72-2.719-2.72z" fill="#AFB7CC"/></svg>