<svg width="30" height="30" fill="none" xmlns="http://www.w3.org/2000/svg"><g filter="url(#filter0_d)"><path fill-rule="evenodd" clip-rule="evenodd" d="M3 7.4c0-2.24 0-3.36.436-4.216a4 4 0 011.748-1.748C6.04 1 7.16 1 9.4 1h11.2c2.24 0 3.36 0 4.216.436a4 4 0 011.748 1.748C27 4.04 27 5.16 27 7.4v11.2c0 2.24 0 3.36-.436 4.216a4 4 0 01-1.748 1.748C23.96 25 22.84 25 20.6 25H9.4c-2.24 0-3.36 0-4.216-.436a4 4 0 01-1.748-1.748C3 21.96 3 20.84 3 18.6V7.4z" fill="#F5F8FC"/><path d="M4 7.4c0-1.137 0-1.929.051-2.546.05-.605.142-.953.276-1.216a3 3 0 011.311-1.311c.263-.134.611-.226 1.216-.276C7.471 2.001 8.264 2 9.4 2h11.2c1.137 0 1.929 0 2.546.051.605.05.953.142 1.216.276a3 3 0 011.311 1.311c.134.263.226.611.276 1.216.05.617.051 1.41.051 2.546v11.2c0 1.137 0 1.929-.051 2.546-.05.605-.142.953-.276 1.216a3 3 0 01-1.311 1.311c-.263.134-.611.226-1.216.276-.617.05-1.41.051-2.546.051H9.4c-1.137 0-1.929 0-2.546-.051-.605-.05-.953-.142-1.216-.276a3 3 0 01-1.311-1.311c-.134-.263-.226-.611-.276-1.216C4.001 20.529 4 19.736 4 18.6V7.4z" stroke="#2F8BFF" stroke-width="2"/></g><rect x="6" y="5" width="4" height="16" rx="2" fill="#2F8BFF"/><defs><filter id="filter0_d" x="0" y="0" width="30" height="30" filterUnits="userSpaceOnUse" color-interpolation-filters="sRGB"><feFlood flood-opacity="0" result="BackgroundImageFix"/><feColorMatrix in="SourceAlpha" values="0 0 0 0 0 0 0 0 0 0 0 0 0 0 0 0 0 0 127 0"/><feOffset dy="2"/><feGaussianBlur stdDeviation="1.5"/><feColorMatrix values="0 0 0 0 0.0784314 0 0 0 0 0.196078 0 0 0 0 0.313726 0 0 0 0.05 0"/><feBlend in2="BackgroundImageFix" result="effect1_dropShadow"/><feBlend in="SourceGraphic" in2="effect1_dropShadow" result="shape"/></filter></defs></svg>