<svg width="24" height="24" fill="none" xmlns="http://www.w3.org/2000/svg"><path fill-rule="evenodd" clip-rule="evenodd" d="M16.274 15.451v.613a.494.494 0 01-.494.494h-.611a.494.494 0 01-.495-.494v-.613c0-.273.222-.494.495-.494h.611c.274 0 .495.221.495.494zm0-3.085v.613a.494.494 0 01-.494.493h-.611a.494.494 0 01-.495-.493v-.613c0-.273.222-.494.495-.494h.611c.274 0 .495.221.495.494zM12.8 15.451v.613a.494.494 0 01-.494.494h-.612a.494.494 0 01-.494-.494v-.613c0-.273.222-.494.494-.494h.612c.273 0 .495.221.495.494zm0-3.085v.613a.494.494 0 01-.494.493h-.612a.494.494 0 01-.494-.493v-.613c0-.273.222-.494.494-.494h.612c.273 0 .495.221.495.494zm-3.474 3.085v.613a.494.494 0 01-.494.494H8.22a.494.494 0 01-.494-.494v-.613c0-.273.221-.494.494-.494h.612c.273 0 .494.221.494.494zm0-3.085v.613a.494.494 0 01-.494.493H8.22a.494.494 0 01-.494-.493v-.613c0-.273.221-.494.494-.494h.612c.273 0 .494.221.494.494zm8.5 6.433H6.175a.975.975 0 01-.974-.974V9.834h13.6v7.991a.976.976 0 01-.975.974zM6.175 6.317h1.793v.349a.6.6 0 101.2 0v-.349h5.665v.349a.6.6 0 101.2 0v-.349h1.793c.537 0 .974.438.974.976v1.34H5.2v-1.34c0-.538.438-.976.975-.976zm11.65-1.2h-1.792V4.6a.6.6 0 00-1.2 0v.518H9.168V4.6a.6.6 0 10-1.2 0v.518H6.175A2.175 2.175 0 004 7.292v10.532C4 19.025 4.976 20 6.175 20h11.65A2.177 2.177 0 0020 17.825V7.293c0-1.2-.976-2.176-2.174-2.176z" fill="#9498AB"/></svg>