<svg width="18" height="15" fill="none" xmlns="http://www.w3.org/2000/svg"><path fill-rule="evenodd" clip-rule="evenodd" d="M14.993 2.983h.81A2.19 2.19 0 0118 5.167v7.563a2.19 2.19 0 01-2.197 2.184H2.197A2.19 2.19 0 010 12.73V5.167a2.19 2.19 0 012.197-2.184h.81a.203.203 0 00.196-.153l.39-1.55A1.7 1.7 0 015.243 0h7.514c.783 0 1.46.527 1.65 1.283l.39 1.55c.023.087.103.15.196.15zM4.5 8.203c0 2.469 2.017 4.474 4.5 4.474s4.5-2.005 4.5-4.474c0-2.47-2.017-4.474-4.5-4.474S4.5 5.734 4.5 8.203zm9.75-2.237a.749.749 0 001.5 0 .749.749 0 00-1.5 0zM6 8.203C6 6.559 7.347 5.22 9 5.22s3 1.339 3 2.983c0 1.644-1.347 2.983-3 2.983s-3-1.34-3-2.983z" fill="#2F8BFF"/></svg>