<svg width="26" height="18" fill="none" xmlns="http://www.w3.org/2000/svg"><path fill-rule="evenodd" clip-rule="evenodd" d="M9.024 17a.4.4 0 01-.282-.116L1.182 9.35a.382.382 0 01.005-.548.402.402 0 01.56.005l7.279 7.254L24.152 1.115a.402.402 0 01.56-.003.38.38 0 01.003.548L9.305 16.885a.4.4 0 01-.28.115z" fill="#fff"/><path d="M9.024 17h0a.4.4 0 01-.282-.116L1.182 9.35a.382.382 0 01.005-.548.402.402 0 01.56.005l7.279 7.254L24.152 1.115a.402.402 0 01.56-.003.38.38 0 01.003.548L9.305 16.885a.4.4 0 01-.28.115" stroke="#fff"/></svg>