<svg width="18" height="18" fill="none" xmlns="http://www.w3.org/2000/svg"><path fill-rule="evenodd" clip-rule="evenodd" d="M6.304 7.107a.751.751 0 00-.74.762c0 .42.331.761.74.761s.74-.34.74-.761a.751.751 0 00-.74-.762zm5.392 0a.751.751 0 00-.74.762c0 .42.331.761.74.761s.74-.34.74-.761a.751.751 0 00-.74-.762zM9 7.107a.751.751 0 00-.74.762c0 .42.331.761.74.761s.74-.34.74-.761A.751.751 0 009 7.107zM7.192 3.9C4.963 3.9 3.15 5.773 3.15 8.074c0 2.302 1.813 4.174 4.042 4.174h.404a.45.45 0 01.357.177L9 13.795l1.047-1.37a.45.45 0 01.357-.177h.403c2.23 0 4.043-1.872 4.043-4.174 0-2.301-1.813-4.174-4.043-4.174H7.192zM9 14.985a.45.45 0 01-.357-.176l-1.27-1.66h-.18c-2.726 0-4.943-2.277-4.943-5.075S4.467 3 7.192 3h3.615c2.726 0 4.943 2.276 4.943 5.074s-2.217 5.074-4.943 5.074h-.18l-1.27 1.66a.45.45 0 01-.357.177z" fill="#2F8BFF"/></svg>