<svg width="26" height="19" fill="none" xmlns="http://www.w3.org/2000/svg"><path fill-rule="evenodd" clip-rule="evenodd" d="M0 1.81C0 1.177.522.666 1.165.666H24.4c.644 0 1.165.512 1.165 1.142v15.977c0 .63-.522 1.142-1.165 1.142H1.165A1.154 1.154 0 010 17.786V1.809zm13.945 5.705c0-.315.258-.57.581-.57h8.134c.32 0 .581.252.581.57 0 .315-.258.57-.581.57h-8.134a.575.575 0 01-.581-.57zm0 2.282c0-.315.26-.57.582-.57h5.807c.322 0 .583.253.583.57 0 .316-.26.571-.583.571h-5.807a.575.575 0 01-.582-.57zm0 2.283c0-.315.261-.57.578-.57h6.978c.32 0 .578.253.578.57 0 .315-.261.57-.578.57h-6.978a.573.573 0 01-.578-.57zm-11.62 1.712c0-1.82 2.323-2.853 4.647-2.853 2.324 0 4.649 1.033 4.649 2.853v.57H2.324v-.57zm4.647-3.995c1.284 0 2.324-1.022 2.324-2.282s-1.04-2.283-2.324-2.283c-1.283 0-2.324 1.022-2.324 2.283 0 1.26 1.04 2.282 2.324 2.282z" fill="#fff"/></svg>