<svg width="26" height="26" fill="none" xmlns="http://www.w3.org/2000/svg"><path d="M9.68 8.003H5.566m14.771 0h4.148l-2.563 9.51H8.263" stroke="#363C58" stroke-miterlimit="10"/><path d="M21.146 19.84h-10.69c-.911 0-1.687-.607-1.956-1.483l-.237-.844-2.697-9.476-.574-1.99c-.27-.91-1.079-1.517-1.99-1.517H.677M11.265 25a1.72 1.72 0 100-3.44 1.72 1.72 0 000 3.44zm7.689 0a1.72 1.72 0 100-3.44 1.72 1.72 0 000 3.44z" stroke="#363C58" stroke-miterlimit="10"/><path d="M19.628 13.804h-9.206a.749.749 0 01-.742-.742V6.857h10.657v6.238a.712.712 0 01-.709.709z" stroke="#363C58" stroke-miterlimit="10"/><path d="M20.842 6.857H9.208a.835.835 0 01-.843-.843v-1.08c0-.472.37-.843.843-.843h11.6c.473 0 .844.371.844.843v1.08c.034.438-.338.843-.81.843z" stroke="#363C58" stroke-miterlimit="10"/><path d="M10.085 4.058s-1.18-6.88 4.215 0v2.799m5.632-2.799s1.18-6.88-4.216 0v2.799" stroke="#363C58" stroke-miterlimit="10"/></svg>