<svg width="32" height="32" fill="none" xmlns="http://www.w3.org/2000/svg"><path fill-rule="evenodd" clip-rule="evenodd" d="M17.334 20.12v-6.812a.8.8 0 111.6 0v6.812a.799.799 0 11-1.6 0zm-4.532 0v-6.812a.799.799 0 111.6 0v6.812a.8.8 0 11-1.6 0zm8.41 3.437a1.565 1.565 0 01-1.566 1.51H12.09a1.565 1.565 0 01-1.567-1.51L9.978 9.536h11.78l-.546 14.021zM14.4 6.933h2.935l.123 1.003h-3.18l.122-1.003zm9.867 1.003H19.07l-.178-1.447a1.319 1.319 0 00-1.306-1.156H14.15a1.32 1.32 0 00-1.308 1.158l-.176 1.445H7.468a.8.8 0 100 1.6h.908l.548 14.084a3.16 3.16 0 003.166 3.047h7.556a3.16 3.16 0 003.165-3.047l.548-14.084h.908a.8.8 0 100-1.6z" fill="#fff"/></svg>