<svg width="24" height="24" fill="none" xmlns="http://www.w3.org/2000/svg"><path fill-rule="evenodd" clip-rule="evenodd" d="M13 15.09V9.981a.6.6 0 111.2 0v5.109a.6.6 0 11-1.2 0zm-3.399 0V9.981a.6.6 0 111.2 0v5.109a.6.6 0 11-1.2 0zm6.308 2.578a1.174 1.174 0 01-1.175 1.132H9.067c-.634 0-1.15-.497-1.175-1.132L7.483 7.152h8.835l-.409 10.516zM10.8 5.2h2.201l.092.752h-2.385L10.8 5.2zm7.4.752h-3.898l-.133-1.085a.989.989 0 00-.98-.867h-2.577a.99.99 0 00-.981.868l-.132 1.084H5.601a.6.6 0 100 1.2h.681l.411 10.563A2.37 2.37 0 009.067 20h5.667a2.37 2.37 0 002.374-2.285l.411-10.563h.681a.6.6 0 100-1.2z" fill="#363C58"/></svg>