<svg width="13" height="16" fill="none" xmlns="http://www.w3.org/2000/svg"><path fill-rule="evenodd" clip-rule="evenodd" d="M11.746 4.438a.155.155 0 00-.05-.111l-3.2-3.116a.194.194 0 00-.137-.054H2.405c-.688 0-1.249.538-1.249 1.2v11.286c0 .662.56 1.2 1.25 1.2h8.091c.689 0 1.249-.538 1.249-1.2V4.438zm1.157 0v9.205c0 1.3-1.08 2.357-2.406 2.357H2.405C1.08 16 0 14.943 0 13.643V2.357C0 1.057 1.079 0 2.405 0H8.36c.356 0 .691.136.944.382l3.201 3.116c.257.25.399.585.399.94z" fill="#fff"/><path stroke="#fff" stroke-linecap="round" d="M2.5 12.5h6m-6-2h6m-6-2h6"/><mask id="a" fill="#fff"><rect x="2" width="7" height="4" rx=".5"/></mask><rect x="2" width="7" height="4" rx=".5" stroke="#fff" stroke-width="2" mask="url(#a)"/></svg>