<svg width="32" height="28" fill="none" xmlns="http://www.w3.org/2000/svg"><path d="M10.412 0h11.125L32 18.01H20.85L10.412 0z" fill="url(#paint0_linear)"/><path d="M32 18.01l-5.575 9.622H5.55l5.587-9.623H32z" fill="url(#paint1_linear)"/><path d="M5.55 27.632L0 18.009 10.412 0 16 9.647 5.55 27.632z" fill="url(#paint2_linear)"/><path opacity=".1" d="M5.55 27.632l10.387-9.623h-4.8L5.55 27.633zM32 18.009H20.862l-2.45-4.218L32 18.009zM10.412 0l3.213 13.729L16 9.647 10.412 0z" fill="#000"/><defs><linearGradient id="paint0_linear" x1="10.412" y1="0" x2="28.13" y2="21.238" gradientUnits="userSpaceOnUse"><stop stop-color="#F6C338"/><stop offset=".523" stop-color="#FFD351"/><stop offset="1" stop-color="#F6C338"/></linearGradient><linearGradient id="paint1_linear" x1="32" y1="18.009" x2="25.817" y2="35.005" gradientUnits="userSpaceOnUse"><stop stop-color="#286EE6"/><stop offset=".521" stop-color="#4286FB"/><stop offset="1" stop-color="#286EE6"/></linearGradient><linearGradient id="paint2_linear" x1="10.446" y1="0" x2="-1.639" y2="23.889" gradientUnits="userSpaceOnUse"><stop stop-color="#069B5A"/><stop offset=".531" stop-color="#11AA62"/><stop offset="1" stop-color="#069B5A"/></linearGradient></defs></svg>