<svg width="14" height="17" fill="none" xmlns="http://www.w3.org/2000/svg"><path fill-rule="evenodd" clip-rule="evenodd" d="M7.508 10.67a.612.612 0 01-.6.623H3.922a.611.611 0 01-.6-.623c0-.345.268-.624.6-.624h2.986c.331 0 .6.279.6.623zm2.986-3.905a.612.612 0 01-.6.624H3.922c-.332 0-.6-.28-.6-.624 0-.345.268-.624.6-.624h5.972c.332 0 .6.28.6.624zm2.122 7.85c0 .425-.333.771-.743.771h-9.93c-.41 0-.743-.346-.743-.772V2.82c0-.426.333-.772.743-.772h.834v.191c0 .345.269.624.6.624.331 0 .6-.279.6-.624v-.19h2.33v.19c0 .345.27.624.6.624.332 0 .6-.279.6-.624v-.19H9.84v.19c0 .345.268.624.6.624.33 0 .6-.279.6-.624v-.19h.834c.41-.001.743.345.743.771v11.794zM11.873.8h-.834V.624a.613.613 0 00-.6-.624c-.332 0-.6.28-.6.624V.8H7.508V.624a.612.612 0 00-.6-.624c-.331 0-.6.28-.6.624V.8H3.977V.624a.612.612 0 00-.6-.624c-.331 0-.6.28-.6.624V.8h-.834C.872.8 0 1.707 0 2.82v11.794c0 1.114.872 2.02 1.943 2.02h9.93c1.071 0 1.943-.906 1.943-2.02V2.82c0-1.113-.872-2.02-1.943-2.02z" fill="#fff"/></svg>