<svg width="27" height="32" fill="none" xmlns="http://www.w3.org/2000/svg"><path d="M26.023 5.568c-.238-1.277-.997-1.906-1.683-2.154-.74-.268-2.24-.545-4.125-.767-1.517-.18-3.3-.165-4.377-.132C15.71 1.63 15.088.82 14.393.54c-1.85-.746-4.71-.566-5.444-.36-.584.164-1.23.498-1.589 1.013-.241.345-.397.786-.398 1.402 0 .349.01 1.17.018 1.9L7 5.889A1.185 1.185 0 015.816 7.07h-3c-.64 0-1.13.107-1.504.277-.374.17-.64.4-.84.67C.07 8.558.002 9.222.003 9.9c0 0 .006.554.139 1.627.111.83 1.01 6.628 1.865 8.392.331.685.552.972 1.202 1.274 1.45.621 4.761 1.313 6.314 1.51 1.549.2 2.521.616 3.1-.6.003-.004.117-.302.274-.743.503-1.525.573-2.88.573-3.858 0-.1.146-.105.146 0 0 .691-.132 3.139 1.716 3.795.73.258 2.242.49 3.78.67 1.39.16 2.398.707 2.398 4.277 0 2.171-.456 2.469-2.838 2.469-1.931 0-2.667.05-2.667-1.485 0-1.242 1.226-1.111 2.135-1.111.406 0 .111-.302.111-1.068 0-.763.477-1.203.026-1.214-3.143-.087-4.992-.004-4.992 3.93 0 3.572 1.365 4.235 5.826 4.235 3.498 0 4.73-.114 6.174-4.599.286-.885.977-3.587 1.395-8.123.264-2.868-.25-11.526-.657-13.71zm-6.097 9.568a6.407 6.407 0 00-1.234.075c.109-.881.472-1.964 1.76-1.918 1.426.049 1.625 1.398 1.63 2.31-.6-.267-1.345-.438-2.156-.467z" fill="#74BB44"/></svg>