<svg width="18" height="16" fill="none" xmlns="http://www.w3.org/2000/svg"><path fill-rule="evenodd" clip-rule="evenodd" d="M1.521 6.718c0-3.042 2.626-5.518 5.854-5.518 3.226 0 5.853 2.476 5.853 5.518s-2.627 5.517-5.853 5.517c-3.228 0-5.854-2.475-5.854-5.517zm15.42 8.177l-4.106-3.874c1.033-1.166 1.658-2.667 1.658-4.303C14.493 3.014 11.3 0 7.375 0 3.449 0 .255 3.014.255 6.718s3.194 6.717 7.12 6.717c1.735 0 3.326-.59 4.563-1.567l4.11 3.877a.65.65 0 00.447.175.647.647 0 00.448-.177.577.577 0 00-.002-.848z" fill="#2F8BFF"/></svg>