<svg width="16" height="16" fill="none" xmlns="http://www.w3.org/2000/svg"><path fill-rule="evenodd" clip-rule="evenodd" d="M9.729 14.569c.722-.931 1.267-2.122 1.611-3.447h2.694a6.818 6.818 0 01-4.305 3.447zm-7.764-3.447H4.66c.343 1.325.888 2.516 1.61 3.447a6.82 6.82 0 01-4.305-3.447zm4.305-9.69c-.722.93-1.267 2.122-1.61 3.447H1.965A6.814 6.814 0 016.27 1.432zm7.765 3.447H11.34c-.344-1.325-.888-2.517-1.611-3.447a6.816 6.816 0 014.306 3.447zm-2.45 1.2h2.934c.18.61.281 1.254.281 1.921 0 .668-.101 1.311-.281 1.922h-2.934c.096-.625.16-1.265.16-1.922s-.064-1.296-.16-1.921zM5.622 9.922c-.027-.162-.05-.325-.07-.489-.014-.119-.036-.234-.047-.354-.032-.354-.05-.714-.05-1.079s.018-.725.05-1.079c.011-.121.033-.235.047-.354.02-.165.043-.327.07-.488h4.761c.103.618.161 1.261.161 1.921 0 .66-.058 1.303-.161 1.922H5.622zm.575-5.945c.052-.129.11-.25.166-.374.073-.159.146-.317.227-.467.063-.117.131-.228.199-.338.086-.142.173-.28.267-.41.073-.103.151-.2.228-.297a4.905 4.905 0 01.56-.592c.054-.05.113-.092.169-.138.942.781 1.67 2.029 2.099 3.518H5.887c.038-.13.083-.253.125-.379.058-.177.117-.354.185-.523zM1.2 8c0-.667.1-1.311.28-1.921h2.935c-.096.625-.16 1.264-.16 1.921s.064 1.297.16 1.922H1.48A6.783 6.783 0 011.2 8zm6.813 6.64c-.056-.046-.115-.089-.169-.138a5.356 5.356 0 01-.255-.246 6.047 6.047 0 01-.8-1.053c-.068-.111-.136-.221-.199-.339a8.426 8.426 0 01-.227-.467c-.056-.123-.114-.245-.166-.373-.068-.169-.127-.347-.186-.524-.041-.125-.086-.249-.124-.378h4.225c-.429 1.488-1.157 2.737-2.099 3.518zM8 0C3.588 0 0 3.589 0 8s3.588 8 7.999 8.001H8c4.411 0 8-3.589 8-8.001 0-4.411-3.589-8-8-8z" fill="#9496AB"/></svg>