<svg width="32" height="25" fill="none" xmlns="http://www.w3.org/2000/svg"><path d="M30 24.004H2a2 2 0 01-1.999-2V2.001a2 2 0 012-2h28a2 2 0 012 2v20.003a2 2 0 01-2 2z" fill="#EAEAEA"/><path d="M4 24.004H2a2 2 0 01-1.999-2V2.001a2 2 0 114 0v22.003z" fill="#D54C3F"/><path d="M27.999 24.004h2a2 2 0 002-2V2a2 2 0 10-4 0v22.003z" fill="#B63524"/><path d="M31.145 3.64a2.001 2.001 0 00-2.29-3.28L16 9.72 3.146.36A2 2 0 10.855 3.64l-.053-.038L16 14.669 31.145 3.641zm.054-.038L16 14.669 31.199 3.602z" fill="#DE5145"/><path d="M30 0c-.427 0-.822.134-1.146.36L16.001 9.72h-.003L3.145.36A1.992 1.992 0 002 0h28z" fill="#EFEFEF"/><path d="M4 6.793L.63 3.454l-.001.003c.07.066.146.128.226.184L.802 3.6l3.2 2.33L4 6.818" fill="#C64132"/><path d="M13.778 16.397L4 24.004V6.71l9.776 9.684" fill="#E3E3E3"/><path d="M13.779 16.396L16 14.67 4.001 5.932v.778l9.776 9.684.002.002z" fill="url(#paint0_linear)"/><path d="M21.373 24.004H28V5.93l-12 8.74-2.223 1.725 7.598 7.61z" fill="url(#paint1_linear)"/><defs><linearGradient id="paint0_linear" x1="4.001" y1="11.164" x2="16" y2="11.164" gradientUnits="userSpaceOnUse"><stop stop-color="#C8C8C8"/><stop offset="1" stop-color="#CDCDCD"/></linearGradient><linearGradient id="paint1_linear" x1="13.776" y1="14.967" x2="27.999" y2="14.967" gradientUnits="userSpaceOnUse"><stop stop-color="#D9D9D9"/><stop offset="1" stop-color="#E2E2E2"/></linearGradient></defs></svg>