<svg width="28" height="32" fill="none" xmlns="http://www.w3.org/2000/svg"><path d="M27.372 11.29a13.579 13.579 0 00-3.494-6.934c-.774-.83-1.65-1.56-2.609-2.171A13.698 13.698 0 0015.415.09c-.258-.03-.52-.026-.773-.087h-1.825c-.02.046-.062.03-.095.033-.47.04-.937.094-1.401.181-3.388.639-6.17 2.294-8.324 4.967C1.225 7.382.25 9.904.039 12.716a13.669 13.669 0 00.297 4.046c.222.99.558 1.95 1.004 2.863l.118.234a13.765 13.765 0 002.868 3.834 13.54 13.54 0 002.013 1.568c2.214 1.398 4.63 2.13 7.254 2.163.161.003.205.042.204.206-.007 1.397-.004 2.795-.004 4.193 0 .054.005.108.008.175l.101-.041c2.639-1.234 5.061-2.792 7.22-4.745.43-.39.843-.796 1.237-1.22.17-.181.338-.366.507-.547.262-.279.49-.59.736-.884.286-.339.542-.699.795-1.061.559-.8 1.057-1.636 1.477-2.519.212-.446.414-.895.593-1.356.006-.008.014-.016.018-.025.487-1.26.8-2.564.965-3.902.058-.466.096-.935.12-1.404a12.961 12.961 0 00-.198-3.004zM9.607 19.7a6.12 6.12 0 01-.72.136c-.186.027-.308-.076-.378-.243l.002-1.549c.01-.152-.052-.315.07-.449a.428.428 0 01.222-.135c.272-.068.547-.122.795-.27.456-.27.74-.66.865-1.17.02-.08.039-.16.057-.241a5132.15 5132.15 0 00-3.283-.005 1.05 1.05 0 01-.28-.03.661.661 0 01-.493-.616c-.002-1.646.001-3.292.003-4.938-.023-.263 0-.51.222-.698a.624.624 0 01.412-.163h4.827c.426-.001.779.426.642.843.033.08.027.163.027.245 0 1.794.01 3.588-.003 5.382-.009 1.19-.475 2.191-1.35 3.003-.047.042-.09.086-.136.13-.453.345-.944.619-1.501.768zm8.902-.114l-.062.017-.034.02c-.312.087-.626.16-.947.207-.245.035-.43-.102-.434-.347l-.005-.516.01-.924c-.002-.068-.005-.135-.004-.203 0-.236.091-.336.387-.403.374-.086.727-.206 1.019-.475.35-.324.526-.727.607-1.184l-3.033-.005h-.33c-.413-.007-.695-.291-.695-.704 0-1.626.003-3.252.004-4.877 0-.016-.002-.032-.003-.047-.032-.305.056-.554.328-.723a.629.629 0 01.342-.093c1.598-.001 3.196 0 4.795-.002.425 0 .778.427.642.845.032.079.026.162.026.244v5.39c-.002 1.606-1.013 3.108-2.503 3.725-.038.016-.074.037-.11.055z" fill="url(#paint0_linear)"/><defs><linearGradient id="paint0_linear" x1="13.793" y1="31.998" x2="13.793" y2=".003" gradientUnits="userSpaceOnUse"><stop stop-color="#67974A"/><stop offset=".495" stop-color="#82B750"/></linearGradient></defs></svg>