<svg width="46" height="56" fill="none" xmlns="http://www.w3.org/2000/svg"><path d="M2.723 9.819h33.413c.842 0 1.544.658 1.544 1.449V53.55c0 .79-.702 1.45-1.544 1.45H2.723c-.842 0-1.544-.66-1.544-1.45V11.268c0-.79.702-1.45 1.544-1.45zm7.581 15.543v7.771m-4.211-3.952h8.283m16.706-2.634l-5.896 5.401M7.356 43.67l5.896 5.533m-5.896 0l5.896-5.533M1.319 37.613h36.08M19.43 20.62v33.853m4.914-10.143h8.283m-8.283 4.215h8.283" stroke="#2F3447" stroke-miterlimit="22.926" stroke-linecap="round" stroke-linejoin="round"/><path clip-rule="evenodd" d="M24.483 25.625c-.422.395-.422.922 0 1.317.42.395.982.395 1.404 0 .42-.395.42-.922 0-1.317-.281-.395-.983-.395-1.404 0zm6.177 5.797c-.421.395-.421.922 0 1.317.421.395.983.395 1.404 0 .421-.395.421-.922 0-1.317-.28-.395-.983-.395-1.404 0z" stroke="#2F3447" stroke-miterlimit="22.926"/><path d="M1.319 20.224h36.08" stroke="#2F3447" stroke-miterlimit="22.926" stroke-linecap="round" stroke-linejoin="round"/><path d="M43.998 16.307l-3.075-7.935a.648.648 0 00-.607-.4H16.022a.648.648 0 00-.607.4l-3.075 7.935v4.85c0 .834.726 1.516 1.615 1.516h28.428c.889 0 1.615-.682 1.615-1.516v-4.85z" fill="#F5F8FC" stroke="#F5F8FC" stroke-width="4" stroke-miterlimit="10"/><path d="M18.154 7.972V1" stroke="#F5F8FC" stroke-miterlimit="10" stroke-linecap="round"/><path d="M43.998 16.307l-3.075-7.935a.648.648 0 00-.607-.4H16.022a.648.648 0 00-.607.4l-3.075 7.935v4.85c0 .834.726 1.516 1.615 1.516h28.428c.889 0 1.615-.682 1.615-1.516v-4.85zm-31.658-.151h31.658" stroke="#2F8BFF" stroke-miterlimit="10"/><path d="M18.154 7.972V1m20.03 6.972V1" stroke="#2F8BFF" stroke-miterlimit="10" stroke-linecap="round"/><path d="M16.136 20.247c.445 0 .807-.34.807-.758s-.362-.758-.808-.758c-.446 0-.807.34-.807.758 0 .419.362.758.808.758zm2.83 0c.446 0 .807-.34.807-.758s-.361-.758-.807-.758c-.447 0-.808.34-.808.758 0 .419.361.758.808.758zm8.799 0h-5.653c-.446 0-.808-.343-.808-.758s.362-.758.808-.758h5.653c.443 0 .808.343.808.758 0 .418-.362.758-.808.758z" fill="#2F8BFF"/><path d="M36.62 20.367c-.304 0-.563.232-.563.53 0 .3.26.532.563.532.303 0 .562-.232.562-.531 0-.3-.26-.531-.562-.531zm0 .726c-.126 0-.217-.094-.217-.195 0-.1.09-.195.217-.195.126 0 .216.093.217.195-.001.1-.092.195-.217.195zm1.057-1.189h0a1.575 1.575 0 00-2.115 0 .165.165 0 000 .242.177.177 0 00.24 0 1.22 1.22 0 011.634 0 .178.178 0 00.241 0 .165.165 0 000-.242z" fill="#2F8BFF" stroke="#2F8BFF" stroke-width=".2"/><path d="M36.62 18.624a2.51 2.51 0 00-1.718.664.165.165 0 000 .242.177.177 0 00.24 0c.393-.367.918-.57 1.478-.57.56 0 1.085.203 1.48.57a.178.178 0 00.24 0 .165.165 0 000-.242 2.51 2.51 0 00-1.72-.664z" fill="#2F8BFF" stroke="#2F8BFF" stroke-width=".2"/><path d="M38.76 18.913a.179.179 0 00.241 0h0l.003-.002a.166.166 0 00-.005-.24 3.473 3.473 0 00-2.38-.92c-.897 0-1.743.327-2.38.92a.165.165 0 000 .242.177.177 0 00.24 0 3.122 3.122 0 012.14-.825c.811 0 1.57.294 2.142.825zm0 0l.069-.073m-.069.073s0 0 0 0l.069-.073m0 0c.013.013.033.02.052.02a.076.076 0 00.052-.02h-.104z" fill="#2F8BFF" stroke="#2F8BFF" stroke-width=".2"/></svg>