<svg width="59" height="56" fill="none" xmlns="http://www.w3.org/2000/svg"><path d="M5.277 17.054l19.703-6.81m6.913-2.434L51.94 1M28.609 55V12.514M14.437 55h28.344M28.609 6.027c1.901 0 3.456 1.46 3.456 3.244 0 1.783-1.555 3.243-3.456 3.243s-3.457-1.46-3.457-3.243c0-1.784 1.556-3.244 3.457-3.244z" stroke="#2F3447" stroke-miterlimit="22.926" stroke-linecap="round" stroke-linejoin="round"/><path d="M.784 41.54h20.393M1.302 43.486c1.902 3.406 5.53 6 9.679 6 4.148 0 7.604-2.432 9.678-5.838.691-1.297.691-2.108.173-3.567l-8.469-20.595c-.172-.324-.345-.648-.864-.81-.691-.163-1.382.162-1.555.648C7.006 27.432 4.068 31.811.957 39.92c-.346 1.46-.346 2.27.345 3.567zM36.04 29.703h20.394M36.56 31.648c1.9 3.406 5.53 6 9.678 6 4.148 0 7.604-2.432 9.678-5.838.691-1.297.691-2.108.173-3.567L47.62 7.648c-.173-.324-.345-.648-.864-.81-.691-.163-1.383.162-1.555.648-2.938 8.108-5.877 12.487-8.987 20.595-.346 1.46-.346 2.27.345 3.567z" stroke="#2F8BFF" stroke-miterlimit="22.926" stroke-linecap="round" stroke-linejoin="round"/></svg>