<svg width="50" height="57" fill="none" xmlns="http://www.w3.org/2000/svg"><path d="M2.75 5.897H39.8c.935 0 1.713.73 1.713 1.607v46.89c0 .876-.778 1.606-1.712 1.606H2.749c-.934 0-1.712-.73-1.712-1.607V7.504c0-.876.778-1.607 1.712-1.607zm8.406 17.237v8.618m-4.67-4.382h9.185m18.525-2.92l-6.538 5.988m-19.772 13l6.539 6.134m-6.539 0l6.539-6.135M1.192 36.719h40.01M21.275 17.875v37.54m5.449-11.247h9.185m-9.185 4.674h9.185" stroke="#2F3447" stroke-miterlimit="22.926" stroke-linecap="round" stroke-linejoin="round"/><path clip-rule="evenodd" d="M26.879 23.426c-.467.439-.467 1.023 0 1.461.467.438 1.09.438 1.556 0 .467-.438.467-1.023 0-1.46-.311-.439-1.09-.439-1.556 0zm6.85 6.428c-.467.438-.467 1.023 0 1.46.467.439 1.09.439 1.556 0 .468-.438.468-1.022 0-1.46-.31-.438-1.09-.438-1.556 0z" stroke="#2F3447" stroke-width="1.5" stroke-miterlimit="22.926"/><path d="M1.192 17.436h40.01" stroke="#2F3447" stroke-miterlimit="22.926" stroke-linecap="round" stroke-linejoin="round"/><path d="M47.701 5.889l-.276 22.9c0 1.469-1.29 2.592-2.763 2.592H28.637c-1.566 0-2.763-1.21-2.763-2.592V4.592c0-1.469 1.29-2.592 2.763-2.592h16.025c1.197 0 3.132.346 3.04 2.592V5.89z" fill="#F5F8FC" stroke="#F5F8FC" stroke-width="4" stroke-miterlimit="22.926" stroke-linecap="round" stroke-linejoin="round"/><path d="M47.701 5.889l-.276 22.9c0 1.469-1.29 2.592-2.763 2.592H28.637c-1.566 0-2.763-1.21-2.763-2.592V4.592c0-1.469 1.29-2.592 2.763-2.592h16.025c1.197 0 3.132.346 3.04 2.592V5.89zM34.9 28.876h3.5m-12.065-2.334h20.538M26.519 4.766h20.538" stroke="#2F8BFF" stroke-miterlimit="22.926" stroke-linecap="round" stroke-linejoin="round"/></svg>