<svg width="52" height="56" fill="none" xmlns="http://www.w3.org/2000/svg"><path d="M51.482 1v54H.95V1h50.533zM8.143 10h35.97m-35.97 6.75h35.97M8.143 23.5h3.597m-3.597 6.75h3.597M8.143 37h3.597m-3.597 6.75h3.597" stroke="#2F3447" stroke-miterlimit="22.926" stroke-linecap="round" stroke-linejoin="round"/><path d="M23.19 27.06l-4.955 1.77.602-5.006M30.444 35.41l-6.105-3.471m13.505-3.472l-7.215 7.117 7.215-7.117z" stroke="#2F8BFF" stroke-miterlimit="22.926" stroke-linecap="round" stroke-linejoin="round"/><path d="M17.494 34.022C17.494 40.618 23.229 46 30.259 46c7.031 0 12.951-5.382 12.951-12.152 0-6.597-5.735-12.152-12.95-12.152-4.996.174-9.251 2.951-11.471 6.944" stroke="#2F8BFF" stroke-miterlimit="22.926" stroke-linecap="round" stroke-linejoin="round"/></svg>