<svg width="59" height="54" fill="none" xmlns="http://www.w3.org/2000/svg"><path d="M.74 50.786h57.552M3.847 35.357h7.674v15.258H3.846V35.357zm14.615-13.543h7.674v28.8h-7.674v-28.8zm14.435 12.172h7.674v16.629h-7.674V33.986zm14.616-6.343h7.674v22.971h-7.674V27.643z" stroke="#2F3447" stroke-miterlimit="22.926" stroke-linecap="round" stroke-linejoin="round"/><path d="M7.683 18.386c-2.375 0-4.385 1.885-4.385 4.114s2.01 4.114 4.385 4.114 4.385-1.885 4.385-4.114-1.827-4.114-4.385-4.114zM22.299 4.5c-2.375 0-4.385 1.886-4.385 4.114 0 2.229 2.01 4.115 4.385 4.115s4.385-1.886 4.385-4.115c0-2.228-2.01-4.114-4.385-4.114zm14.434 12.343c-2.375 0-4.385 1.886-4.385 4.114 0 2.229 2.01 4.114 4.385 4.114s4.385-1.885 4.385-4.114c0-2.228-2.01-4.114-4.385-4.114zM51.349 10.5c-2.375 0-4.385 1.886-4.385 4.114 0 2.229 2.01 4.115 4.385 4.115s4.385-1.886 4.385-4.115c0-2.228-2.01-4.114-4.385-4.114z" stroke="#2F8BFF" stroke-miterlimit="22.926"/><path d="M11.704 18.729l6.76-6.343m7.672-.343l6.943 6m8.04 1.2l5.116-2.4" stroke="#2F8BFF" stroke-miterlimit="22.926" stroke-linecap="round" stroke-linejoin="round"/></svg>