<svg width="16" height="17" fill="none" xmlns="http://www.w3.org/2000/svg"><mask id="a" maskUnits="userSpaceOnUse" x="2" y="2" width="12" height="13"><path fill-rule="evenodd" clip-rule="evenodd" d="M8.667 6.666H7.333v1.347h1.334V6.666zm2.666 0H10v1.347h1.333V6.666zm2 4.378a7.504 7.504 0 01-2.38-.384.676.676 0 00-.68.161l-1.466 1.482a10.101 10.101 0 01-4.394-4.431L5.88 6.383a.666.666 0 00.167-.68 7.722 7.722 0 01-.38-2.404c0-.37-.3-.674-.667-.674H2.667A.672.672 0 002 3.3c0 6.324 5.073 11.449 11.333 11.449a.672.672 0 00.667-.674v-2.357c0-.37-.3-.673-.667-.673zm-.666-4.378v1.347H14V6.666h-1.333z" fill="#fff"/></mask><g mask="url(#a)"><path fill="#2F8BFF" d="M-8.666-8.15h33.333v33.674H-8.666z"/></g></svg>