<svg width="18" height="18" fill="none" xmlns="http://www.w3.org/2000/svg"><path d="M6.136 15.546h5.728a.41.41 0 00.409-.41.41.41 0 00-.41-.409H6.137a.41.41 0 00-.409.41c0 .224.184.409.41.409zm0-1.637h4.091a.41.41 0 00.41-.409.41.41 0 00-.41-.41h-4.09a.41.41 0 00-.41.41c0 .225.184.41.41.41zm6.137-6.545a.82.82 0 00-.819.818c0 .45.369.818.819.818a.82.82 0 00.818-.818.82.82 0 00-.818-.818zm2.454 0a.82.82 0 00-.818.818c0 .45.368.818.818.818a.82.82 0 00.819-.818.82.82 0 00-.819-.818zm.819-2.455h-.819V.82A.82.82 0 0013.91 0H4.091a.82.82 0 00-.818.818V4.91h-.818A2.456 2.456 0 000 7.364v6.545c0 1.354 1.1 2.455 2.455 2.455h.818v.818c0 .454.368.818.818.818h9.818c.45 0 .818-.364.818-.818v-.818h.819c1.354 0 2.454-1.1 2.454-2.455V7.364c0-1.354-1.1-2.455-2.454-2.455zM4.09.82h9.818v4.09H4.091V.82zm9.818 16.363H4.091v-4.91h9.818v4.91zm3.273-3.273c0 .904-.732 1.636-1.636 1.636h-.819v-3.272a.82.82 0 00-.818-.819H4.091a.82.82 0 00-.818.819v3.273h-.818A1.636 1.636 0 01.818 13.91V7.364c0-.904.732-1.637 1.637-1.637h13.09c.905 0 1.637.733 1.637 1.637v6.545z" fill="#363C58"/></svg>