<svg width="255" height="58" fill="none" xmlns="http://www.w3.org/2000/svg"><path d="M78.347 48.48H1.469A1.47 1.47 0 010 47.011V1.47A1.47 1.47 0 011.47 0h76.877a1.47 1.47 0 011.47 1.47v45.54a1.47 1.47 0 01-1.47 1.47zm-75.35-2.938h73.88V2.938H2.939l.059 42.604z" fill="#363C58"/><path d="M49.773 58H29.984a1.47 1.47 0 01-1.469-1.47v-9.519a1.47 1.47 0 011.47-1.469h19.788a1.47 1.47 0 011.47 1.47v9.519A1.47 1.47 0 0149.772 58zm-18.32-2.938h16.85V48.48h-16.85v6.582z" fill="#363C58"/><path d="M58.896 58h-38.02a1.47 1.47 0 010-2.938h38.02a1.469 1.469 0 110 2.938z" fill="#363C58"/><path fill-rule="evenodd" clip-rule="evenodd" d="M46.999 25.631a.6.6 0 00-.6.6v3.73a.834.834 0 01-.827.839H34.73a.834.834 0 01-.826-.84v-3.729a.6.6 0 00-1.2 0v3.73c0 1.124.909 2.039 2.026 2.039h10.84a2.035 2.035 0 002.028-2.04v-3.729a.6.6 0 00-.6-.6zm-11.123-3.473a.6.6 0 11.839-.857l2.836 2.776V16.6a.6.6 0 111.2 0v7.477l2.837-2.776a.6.6 0 01.84.857l-3.857 3.774a.6.6 0 01-.84 0l-3.855-3.774z" fill="#363C58"/><path d="M216.181 50.09h18.455c.725 0 1.318-.592 1.318-1.317s-.593-1.319-1.318-1.319h-18.455c-.725 0-1.318.594-1.318 1.319s.593 1.318 1.318 1.318zm0-5.272h13.182c.725 0 1.318-.593 1.318-1.318 0-.725-.593-1.318-1.318-1.318h-13.182c-.725 0-1.318.593-1.318 1.318 0 .725.593 1.318 1.318 1.318zm19.773-21.09a2.644 2.644 0 00-2.636 2.636A2.644 2.644 0 00235.954 29a2.645 2.645 0 002.637-2.636 2.645 2.645 0 00-2.637-2.637zm7.909 0a2.644 2.644 0 00-2.636 2.636A2.644 2.644 0 00243.863 29a2.645 2.645 0 002.637-2.636 2.645 2.645 0 00-2.637-2.637zm2.637-7.91h-2.637V2.636A2.644 2.644 0 00241.227 0h-31.636a2.645 2.645 0 00-2.637 2.636v13.182h-2.636c-4.363 0-7.909 3.546-7.909 7.91v21.09c0 4.363 3.546 7.91 7.909 7.91h2.636v2.636A2.636 2.636 0 00209.591 58h31.636a2.635 2.635 0 002.636-2.636v-2.637h2.637c4.363 0 7.909-3.546 7.909-7.909v-21.09c0-4.364-3.546-7.91-7.909-7.91zM209.591 2.636h31.636v13.182h-31.636V2.636zm31.636 52.728h-31.636V39.545h31.636v15.819zm10.545-10.546a5.27 5.27 0 01-5.272 5.273h-2.637V39.545a2.644 2.644 0 00-2.636-2.636h-31.636a2.645 2.645 0 00-2.637 2.636v10.546h-2.636a5.272 5.272 0 01-5.273-5.273v-21.09a5.272 5.272 0 015.273-5.274H246.5a5.27 5.27 0 015.272 5.273v21.091z" fill="#363C58"/><path stroke="#363C58" stroke-width="2" stroke-linejoin="round" stroke-dasharray="2 2" d="M109.409 28h60.636"/></svg>