<svg width="24" height="26" fill="none" xmlns="http://www.w3.org/2000/svg"><path d="M3.77 1h16.653c.42 0 .77.35.77.77v22.46c0 .42-.35.77-.77.77H3.77c-.42 0-.77-.35-.77-.77V1.77c0-.42.35-.77.77-.77z" stroke="#05060B" stroke-miterlimit="22.926" stroke-linecap="round" stroke-linejoin="round"/><path d="M7.548 9.257v4.128m-2.099-2.099h4.128m8.327-1.4l-2.939 2.869m-8.886 6.227l2.938 2.94m-2.938-.001l2.938-2.939" stroke="#2F8BFF" stroke-miterlimit="22.926" stroke-linecap="round" stroke-linejoin="round"/><path d="M3.07 15.764h17.983m-8.957-9.026V24.72" stroke="#05060B" stroke-miterlimit="22.926" stroke-linecap="round" stroke-linejoin="round"/><path d="M14.545 19.332h4.128m-4.128 2.239h4.128" stroke="#2F8BFF" stroke-miterlimit="22.926" stroke-linecap="round" stroke-linejoin="round"/><path clip-rule="evenodd" d="M14.615 9.396c-.21.21-.21.49 0 .7.21.21.49.21.7 0 .21-.21.21-.49 0-.7-.14-.21-.49-.21-.7 0zm3.079 3.079c-.21.21-.21.49 0 .7.21.21.49.21.7 0 .21-.21.21-.49 0-.7-.14-.21-.49-.21-.7 0z" stroke="#2F8BFF" stroke-miterlimit="22.926"/><path d="M3.07 6.528h17.983" stroke="#05060B" stroke-miterlimit="22.926" stroke-linecap="round" stroke-linejoin="round"/></svg>