<svg width="25" height="26" fill="none" xmlns="http://www.w3.org/2000/svg"><path d="M2.896 8.135l8.217-3.027m2.882-1.081L22.355 1m-9.729 24V6.117M6.716 25h11.82m-5.91-21.766c.793 0 1.442.649 1.442 1.442 0 .793-.649 1.441-1.442 1.441a1.446 1.446 0 01-1.441-1.441c0-.793.649-1.442 1.441-1.442z" stroke="#05060B" stroke-miterlimit="22.926" stroke-linecap="round" stroke-linejoin="round"/><path d="M1.022 19.018h8.505m-8.288.865c.793 1.513 2.306 2.667 4.036 2.667 1.73 0 3.171-1.082 4.036-2.595.288-.577.288-.937.072-1.586L5.85 9.216c-.072-.144-.144-.288-.36-.36-.288-.072-.577.072-.649.288-1.225 3.604-2.45 5.55-3.747 9.153-.144.649-.144 1.01.144 1.586zm14.486-6.126h8.505m-8.289.865c.793 1.513 2.307 2.666 4.036 2.666 1.73 0 3.172-1.08 4.037-2.594.288-.577.288-.937.072-1.586l-3.532-9.153c-.072-.144-.144-.288-.36-.36-.289-.072-.577.072-.649.288-1.225 3.604-2.45 5.55-3.748 9.153-.144.649-.144 1.01.144 1.586z" stroke="#2F8BFF" stroke-miterlimit="22.926" stroke-linecap="round" stroke-linejoin="round"/></svg>