<svg width="23" height="26" fill="none" xmlns="http://www.w3.org/2000/svg"><path d="M2.835 6.472v17.697c0 .45.381.831.832.831h17.039c.45 0 .83-.381.83-.831V5.779L16.793 1H3.667c-.45 0-.832.38-.832.831V3.39" stroke="#363C58" stroke-miterlimit="10"/><path d="M16.792 1v4.398c0 .208.173.381.381.381h4.399m-9.352.693H1.798A.784.784 0 011 5.675V4.186c0-.45.346-.796.797-.796H12.22c.45 0 .796.346.796.796v1.49c.035.415-.346.796-.796.796zM7.51 9.623h10.53M7.51 12.81h10.53M7.51 15.996h10.53M7.51 19.147h10.53M7.51 22.333h10.53" stroke="#363C58" stroke-miterlimit="10"/></svg>