<svg width="30" height="27" fill="none" xmlns="http://www.w3.org/2000/svg"><path d="M15 0C6.728 0 0 5.885 0 13.125c0 2.92 1.116 5.748 3.166 8.045L.221 24.706a.935.935 0 00.72 1.538H15c8.272 0 15-5.885 15-13.126C30 5.878 23.266 0 15 0zm0 24.369H2.939l2.2-2.641a.938.938 0 00-.059-1.265c-2.063-2.05-3.205-4.659-3.205-7.345C1.875 6.916 7.76 1.868 15 1.868s13.125 5.048 13.125 11.25c0 6.203-5.891 11.25-13.125 11.25z" fill="#fff"/><path d="M14.799 15.83a.94.94 0 000 1.324.94.94 0 001.323 0 .94.94 0 000-1.323.94.94 0 00-1.323 0zm-4.84 0a.94.94 0 000 1.324.94.94 0 001.324 0 .94.94 0 000-1.323.94.94 0 00-1.324 0zm9.686 0a.94.94 0 000 1.324.94.94 0 001.324 0 .94.94 0 000-1.323.94.94 0 00-1.324 0z" fill="#fff"/></svg>