<svg width="24" height="24" fill="none" xmlns="http://www.w3.org/2000/svg"><path d="M0 7.68A7.68 7.68 0 017.68 0h8.64A7.68 7.68 0 0124 7.68v8.64A7.68 7.68 0 0116.32 24H7.68A7.68 7.68 0 010 16.32V7.68z" fill="#1E6DB7"/><path d="M13.996 12.555c.216 0 .393-.18.393-.399a.4.4 0 00-.114-.282L11.92 9.485a.389.389 0 00-.279-.115.388.388 0 00-.279.115l-2.356 2.389a.4.4 0 00-.114.282c0 .22.177.399.393.399.11 0 .208-.044.278-.116l1.685-1.712v9.391c0 .22.177.399.393.399.216 0 .393-.18.393-.399v-9.39l1.684 1.707c.071.076.17.12.28.12zm3.912-4.451c.008-.108.016-.215.016-.327 0-2.64-2.11-4.777-4.713-4.777C11.4 3 9.83 4.039 9.04 5.556a2.687 2.687 0 00-.936-.167c-1.52 0-2.749 1.246-2.749 2.786 0 .2.024.394.063.586A3.573 3.573 0 003 12.156c0 1.979 1.583 3.583 3.535 3.583h3.534a.397.397 0 00.393-.398.397.397 0 00-.393-.398H6.535c-1.516 0-2.75-1.25-2.75-2.787 0-1.202.754-2.26 1.882-2.643l.667-.223-.145-.697a1.895 1.895 0 01-.047-.418c0-1.098.88-1.99 1.963-1.99.224 0 .448.04.668.12l.644.234.318-.613a3.915 3.915 0 013.476-2.13c2.164 0 3.927 1.788 3.927 3.981 0 .068-.004.14-.012.207l-.004.068-.035.561.507.223a3.18 3.18 0 011.9 2.922c0 1.756-1.41 3.185-3.141 3.185H13.21a.397.397 0 00-.393.398c0 .22.177.398.393.398h3.142c2.168 0 3.927-1.783 3.927-3.98a3.98 3.98 0 00-2.372-3.655z" fill="#fff"/></svg>