<svg width="57" height="56" fill="none" xmlns="http://www.w3.org/2000/svg"><path d="M22.267 5.142C23.883 2.534 25.661 1 27.6 1c5.656 0 10.18 12.12 10.18 27S33.257 55 27.6 55 17.42 42.88 17.42 28c0-6.903.969-13.193 2.585-17.949" stroke="#05060B" stroke-miterlimit="22.926" stroke-linecap="round" stroke-linejoin="round"/><path d="M9.985 43.954c-3.393.154-5.98-.614-6.949-2.301-2.747-4.602 5.98-14.42 19.554-21.938 13.574-7.517 26.825-9.818 29.734-5.215 2.747 4.602-5.98 14.42-19.554 21.937-5.979 3.222-11.958 5.523-16.967 6.75" stroke="#05060B" stroke-miterlimit="22.926" stroke-linecap="round" stroke-linejoin="round"/><path d="M51.678 42.42c-3.879 3.529-16.322 1.074-29.088-5.983C8.854 28.92.128 19.102 2.875 14.5c2.747-4.603 16.16-2.302 29.734 5.215 10.343 5.677 17.938 12.734 19.715 17.796" stroke="#05060B" stroke-miterlimit="22.926" stroke-linecap="round" stroke-linejoin="round"/><path d="M20.813 4.988c1.454 0 2.747 1.228 2.747 2.608 0 1.38-1.293 2.608-2.747 2.608-1.455 0-2.748-1.227-2.748-2.608 0-1.534 1.293-2.608 2.747-2.608zm-7.919 36.205c1.454 0 2.747 1.227 2.747 2.608 0 1.38-1.293 2.608-2.747 2.608s-2.747-1.227-2.747-2.608c0-1.38 1.293-2.608 2.747-2.608zm40.076-3.835c1.455 0 2.748 1.227 2.748 2.608 0 1.38-1.132 2.608-2.748 2.608-1.454 0-2.747-1.228-2.747-2.608 0-1.381 1.293-2.608 2.748-2.608zM27.6 23.55c2.585 0 4.686 1.994 4.686 4.449 0 2.454-2.1 4.449-4.686 4.449s-4.687-1.995-4.687-4.45c0-2.454 2.101-4.448 4.687-4.448z" stroke="#2F8BFF" stroke-miterlimit="22.926"/></svg>