<svg width="24" height="24" fill="none" xmlns="http://www.w3.org/2000/svg"><path fill-rule="evenodd" clip-rule="evenodd" d="M18.396 17.35v-4.562a.6.6 0 00-1.2 0v4.561c0 .604-.492 1.095-1.097 1.095H6.297A1.097 1.097 0 015.2 17.349V7.565c0-.603.492-1.094 1.097-1.094h4.9a.6.6 0 000-1.2h-4.9A2.299 2.299 0 004 7.565v9.784a2.299 2.299 0 002.297 2.294H16.1a2.298 2.298 0 002.297-2.294zm-8.959-4.627l-.163 1.668 1.69-.104L16.6 8.894l-1.523-1.568-5.64 5.397zm-.829 2.91a.599.599 0 01-.597-.658l.253-2.59a.603.603 0 01.183-.375l6.23-5.963a.6.6 0 01.846.016l2.359 2.429a.6.6 0 01-.016.851l-6.23 5.963a.6.6 0 01-.378.165l-2.613.162h-.037zm8.546-10.32l1.523 1.568.085-.082a.121.121 0 00.003-.173l-1.347-1.387a.13.13 0 00-.184-.003l-.08.076zm1.509 3.014a.599.599 0 01-.43-.182l-2.36-2.43a.598.598 0 01.015-.85l.515-.495a1.333 1.333 0 011.876.033l1.347 1.387c.247.254.38.59.374.944-.006.355-.15.685-.407.93l-.515.496a.599.599 0 01-.415.167z" fill="#9498AB"/></svg>