<svg width="12" height="12" fill="none" xmlns="http://www.w3.org/2000/svg"><path fill-rule="evenodd" clip-rule="evenodd" d="M9.58 6.522a.458.458 0 00-.458.459v3.646a.457.457 0 01-.456.456H1.372a.457.457 0 01-.456-.456V3.334c0-.252.205-.456.456-.456H5.02a.458.458 0 100-.916H1.372C.616 1.962 0 2.577 0 3.334v7.293C0 11.384.616 12 1.372 12h7.294c.756 0 1.372-.616 1.372-1.373V6.981a.458.458 0 00-.458-.459zm2.357-1.904c.003.253-.2.46-.453.463h-.005a.458.458 0 01-.458-.454l-.033-3.03-4.036 4.037a.458.458 0 01-.649-.648L10.34.949 7.31.916A.458.458 0 017.315 0h.005l4.119.045c.25.003.45.204.453.453l.045 4.12z" fill="#fff"/></svg>