<svg width="32" height="32" fill="none" xmlns="http://www.w3.org/2000/svg"><path fill-rule="evenodd" clip-rule="evenodd" d="M21.237 12.83a.444.444 0 00-.456.43c0 .239.204.432.456.432a.444.444 0 00.455-.431.444.444 0 00-.455-.431zm0 2.462c-1.134 0-2.056-.911-2.056-2.031s.922-2.032 2.056-2.032c1.133 0 2.055.912 2.055 2.032s-.922 2.031-2.055 2.031zm2.383 6.58a.8.8 0 00-.01-1.13l-4.48-4.394a.799.799 0 00-1.12 0l-1.207 1.184-2.57-2.52a.799.799 0 00-1.12 0l-4.857 4.764a.8.8 0 101.12 1.142l4.297-4.214 2.57 2.52a.799.799 0 001.12 0l1.206-1.184 3.92 3.844a.796.796 0 001.131-.012zM7.731 9.6a.8.8 0 00-.798.799v12.388c0 .44.358.797.798.797H24.27c.44 0 .798-.357.798-.797V10.4a.8.8 0 00-.798-.799H7.73zM24.27 25.185H7.732a2.4 2.4 0 01-2.399-2.398V10.4A2.4 2.4 0 017.732 8h16.537a2.401 2.401 0 012.398 2.399v12.388a2.4 2.4 0 01-2.398 2.398z" fill="#CDDBFC"/></svg>