<svg width="25" height="24" fill="none" xmlns="http://www.w3.org/2000/svg"><path d="M.5 7.68A7.68 7.68 0 018.18 0h8.64a7.68 7.68 0 017.68 7.68v8.64A7.68 7.68 0 0116.82 24H8.18A7.68 7.68 0 01.5 16.32V7.68z" fill="#000"/><path d="M13.283 14.062v-1.209a.861.861 0 00-.856-.864.861.861 0 00-.856.864v1.092a5.34 5.34 0 01-1.35 3.555l-1.203 1.35a.278.278 0 00.02.389.271.271 0 00.386-.02l1.201-1.349a5.89 5.89 0 001.492-3.924v-1.092c0-.172.139-.312.31-.312.17 0 .309.14.309.312v1.209c0 1.618-.594 3.17-1.672 4.367l-1.171 1.3a.278.278 0 00.019.39.27.27 0 00.385-.018l1.171-1.3a7.07 7.07 0 001.814-4.739z" fill="#fff"/><path d="M14.449 12.853a2.034 2.034 0 00-2.022-2.041 2.034 2.034 0 00-2.021 2.041v1.092a4.155 4.155 0 01-1.052 2.768l-.855.958a.278.278 0 00.02.39.271.271 0 00.387-.021l.854-.958a4.707 4.707 0 001.192-3.137v-1.092c0-.82.662-1.49 1.475-1.49.813 0 1.475.67 1.475 1.49v1.209a7.697 7.697 0 01-1.975 5.159l-.988 1.097a.278.278 0 00.018.39.27.27 0 00.386-.018l.988-1.098a8.25 8.25 0 002.117-5.53v-1.209z" fill="#fff"/><path d="M15.614 12.853c0-1.774-1.43-3.218-3.187-3.218S9.24 11.079 9.24 12.853v1.092c0 .732-.267 1.436-.753 1.98l-.769.863a.278.278 0 00.02.39.271.271 0 00.386-.02l.77-.864c.575-.646.892-1.48.892-2.35v-1.09c0-1.471 1.185-2.667 2.64-2.667 1.457 0 2.642 1.196 2.642 2.666v1.21a8.878 8.878 0 01-2.278 5.95l-.274.303a.278.278 0 00.019.39.27.27 0 00.385-.018l.274-.304a9.43 9.43 0 002.42-6.322v-1.209z" fill="#fff"/><path d="M8.075 12.854c0 .152.122.275.273.275.15 0 .273-.123.273-.275 0-.93.334-1.827.94-2.527a3.795 3.795 0 012.322-1.278.275.275 0 00.232-.313.274.274 0 00-.31-.233 4.344 4.344 0 00-2.655 1.46 4.415 4.415 0 00-1.075 2.89zm.545 1.091a.275.275 0 00-.272-.276.275.275 0 00-.273.276c0 .441-.161.865-.454 1.193l-.684.768a.278.278 0 00.02.39.27.27 0 00.386-.021l.684-.768c.383-.43.594-.984.594-1.562zm7.624 2.462a.273.273 0 00-.334.198c-.1.389-.226.776-.373 1.15a.276.276 0 00.254.377.274.274 0 00.254-.175c.155-.394.287-.802.394-1.213a.277.277 0 00-.195-.337zm-.91-6.822a.271.271 0 00-.385.02.278.278 0 00.02.39 3.867 3.867 0 011.264 2.858v1.209c0 .458-.031.92-.093 1.374a.275.275 0 00.271.313c.134 0 .251-.1.27-.238.066-.478.099-.966.099-1.45v-1.208a4.421 4.421 0 00-1.446-3.268zm-1.277-.205a.273.273 0 00.364-.13.277.277 0 00-.129-.367 4.278 4.278 0 00-1.243-.38.273.273 0 00-.31.234c-.021.15.083.29.232.312a3.73 3.73 0 011.086.332z" fill="#fff"/><path d="M12.427 7.281a6.29 6.29 0 00-.307.008.275.275 0 00-.258.291c.008.152.137.27.288.26.091-.005.185-.008.277-.008 2.742 0 4.972 2.253 4.972 5.021v1.209c0 .152.122.276.273.276.15 0 .273-.124.273-.276v-1.209c0-3.072-2.475-5.572-5.518-5.572zM9.44 8.778a.27.27 0 00.156-.05 4.918 4.918 0 011.483-.708.276.276 0 00-.148-.53 5.47 5.47 0 00-1.647.786.278.278 0 00-.069.384.274.274 0 00.225.118zm-1.985 5.167v-1.091c0-1.284.481-2.506 1.355-3.442a.278.278 0 00-.011-.39.271.271 0 00-.386.011 5.578 5.578 0 00-1.504 3.82v1.092a.61.61 0 01-.154.406l-.337.378a.278.278 0 00.02.39.27.27 0 00.386-.021l.337-.378c.19-.213.294-.488.294-.775zm11.309-3.24a6.73 6.73 0 00-1.415-2.414.271.271 0 00-.386-.017.278.278 0 00-.017.39 6.176 6.176 0 011.3 2.217.274.274 0 00.346.174.277.277 0 00.172-.35zm-4.178-4.24a.272.272 0 00-.347.172.277.277 0 00.17.35 6.08 6.08 0 011.681.897.272.272 0 00.383-.056.278.278 0 00-.056-.386 6.662 6.662 0 00-1.831-.977z" fill="#fff"/><path d="M8.183 8.381a6.074 6.074 0 015.126-1.662.273.273 0 00.309-.233.275.275 0 00-.231-.312 6.615 6.615 0 00-5.582 1.81 6.745 6.745 0 00-2.055 4.563.275.275 0 00.273.288.274.274 0 00.273-.263 6.192 6.192 0 011.887-4.19z" fill="#fff"/><path d="M12.427 4.927c-.61 0-1.22.071-1.809.213a.276.276 0 00.126.537 7.26 7.26 0 011.684-.198c2.003 0 3.873.806 5.265 2.27a.272.272 0 00.386.007.278.278 0 00.008-.39 7.837 7.837 0 00-2.532-1.782 7.71 7.71 0 00-3.128-.657zM6.29 8.362a.271.271 0 00.384-.047A7.357 7.357 0 019.64 6.038a.276.276 0 00.147-.36.273.273 0 00-.357-.15 7.905 7.905 0 00-3.185 2.447.278.278 0 00.047.387zm2.35-3.188a.27.27 0 00.118-.027 8.304 8.304 0 013.67-.845c.668 0 1.335.08 1.98.236a.276.276 0 00.128-.537 8.943 8.943 0 00-2.109-.251 8.84 8.84 0 00-3.907.9.277.277 0 00-.127.369.273.273 0 00.246.155zm6.91-.27c.282.113.561.244.83.387a.272.272 0 00.369-.114.277.277 0 00-.114-.373 9.032 9.032 0 00-.882-.412.276.276 0 00-.203.512z" fill="#fff"/></svg>