<svg width="16" height="15" fill="none" xmlns="http://www.w3.org/2000/svg"><path fill-rule="evenodd" clip-rule="evenodd" d="M1.362 5.87a.6.6 0 00.154-.02l2.877-.759a.6.6 0 10-.307-1.16l-1.479.39A6.173 6.173 0 017.984 1.2c3.086 0 5.719 2.288 6.123 5.323a.6.6 0 001.19-.159C14.812 2.736 11.668 0 7.983 0A7.37 7.37 0 001.57 3.719l-.39-1.463a.6.6 0 10-1.159.31l.762 2.858a.6.6 0 00.58.446zm14.193 6.97a.6.6 0 01-.734-.425l-.391-1.463a7.37 7.37 0 01-6.414 3.72c-3.686 0-6.829-2.736-7.312-6.365a.6.6 0 111.19-.158c.403 3.034 3.035 5.322 6.122 5.322a6.173 6.173 0 005.377-3.121l-1.479.39a.6.6 0 11-.306-1.16l2.876-.759a.599.599 0 01.733.426l.763 2.859a.6.6 0 01-.425.734z" fill="#fff"/></svg>