<svg width="18" height="17" fill="none" xmlns="http://www.w3.org/2000/svg"><path d="M15.103 5.283c1.084.33 1.897 1.32 1.897 2.53 0 1.21-.813 2.2-1.897 2.53M6.76 5.526v4.558M13.974.667h.15c.501 0 .952.45.952.951v12.323c0 .5-.451.952-.952.952h-.15c-.551 0-3.807-4.86-7.314-4.86H2.302A1.326 1.326 0 011 8.732V6.728c0-.701.601-1.303 1.302-1.303H6.66c3.507.1 6.763-4.758 7.314-4.758z" stroke="#363C58" stroke-width="1.1" stroke-miterlimit="22.926" stroke-linecap="round" stroke-linejoin="round"/><path d="M5.709 10.084c.2 1.002-.1 2.054.55 3.005l1.053 1.653c.25.401-.15 1.102-.652 1.102H5.057c-.45 0-.951-.4-1.102-.851l-1.152-4.909H5.71z" stroke="#363C58" stroke-width="1.1" stroke-miterlimit="22.926" stroke-linecap="round" stroke-linejoin="round"/></svg>