<svg width="24" height="24" fill="none" xmlns="http://www.w3.org/2000/svg"><path d="M0 7.68A7.68 7.68 0 017.68 0h8.64A7.68 7.68 0 0124 7.68v8.64A7.68 7.68 0 0116.32 24H7.68A7.68 7.68 0 010 16.32V7.68z" fill="#0A89FF"/><path d="M10.418 10.56V5.825h-.99v4.735h.99zm.788-4.735v4.735h.99V9.067h.887c.997 0 1.69-.65 1.69-1.62 0-.975-.67-1.622-1.641-1.622h-1.926zm.99.785h.674c.567 0 .895.301.895.84 0 .54-.331.843-.899.843h-.67V6.61zM3.469 13.8h.843c.492 0 .8.295.8.754 0 .47-.291.755-.79.755h-.853V13.8zm0 2.228h.794l.882 1.732h1.123l-.998-1.88c.545-.213.86-.738.86-1.345 0-.935-.624-1.51-1.713-1.51h-1.94v4.735h.992v-1.732zm4.571 1.096c-.325 0-.542-.165-.542-.427 0-.25.204-.41.561-.436l.742-.046v.256c0 .38-.345.653-.761.653zm-.315.692c.44 0 .876-.22 1.072-.594h.02v.538h.925v-2.418c0-.709-.587-1.175-1.49-1.175-.931 0-1.512.47-1.548 1.152h.876c.046-.26.272-.437.63-.437.361 0 .59.19.59.519v.233l-.885.052c-.876.053-1.368.424-1.368 1.064 0 .633.508 1.066 1.178 1.066zm2.894-4.384v.81h-.496v.722h.496v1.848c0 .686.321.961 1.148.961a2.2 2.2 0 00.456-.04v-.705c-.059.01-.148.017-.233.017-.282 0-.413-.128-.413-.397v-1.684h.65v-.721h-.65v-.81h-.958zm2.149 4.328h.958v-3.517h-.958v3.517zm.479-3.905c.289 0 .512-.22.512-.495a.497.497 0 00-.512-.495.497.497 0 00-.512.495c0 .276.223.495.512.495zm1.119 3.905h.958v-2.018c0-.456.272-.77.702-.77.43 0 .646.262.646.721v2.067h.959v-2.267c0-.824-.44-1.316-1.221-1.316-.541 0-.912.256-1.1.692h-.019v-.626h-.925v3.517zm5.496-.748c-.476 0-.771-.374-.771-1.017 0-.64.298-1.04.77-1.04.48 0 .785.407.785 1.04 0 .636-.305 1.017-.784 1.017zm-.017 2.074c1.054 0 1.756-.535 1.756-1.375v-3.468h-.945v.613h-.016c-.184-.403-.581-.67-1.087-.67-.892 0-1.443.687-1.443 1.802 0 1.1.567 1.762 1.427 1.762.509 0 .922-.256 1.086-.63h.02v.617c0 .407-.276.683-.771.683-.364 0-.64-.168-.716-.41h-.938c.075.626.702 1.076 1.627 1.076z" fill="#fff"/></svg>