<svg width="24" height="24" fill="none" xmlns="http://www.w3.org/2000/svg"><path fill-rule="evenodd" clip-rule="evenodd" d="M6.31 17.4a.6.6 0 00-.6-.6H4.6a.6.6 0 100 1.2h1.11a.6.6 0 00.6-.6zm0-5.4a.6.6 0 00-.6-.6H4.6a.6.6 0 000 1.2h1.11a.6.6 0 00.6-.6zm0-5.4a.6.6 0 00-.6-.6H4.6a.6.6 0 000 1.2h1.11a.6.6 0 00.6-.6zM20 17.4a.6.6 0 00-.6-.6H8.443a.6.6 0 000 1.2H19.4a.6.6 0 00.6-.6zm0-5.4a.6.6 0 00-.6-.6H8.443a.6.6 0 000 1.2H19.4a.6.6 0 00.6-.6zm-.6-4.8H8.443a.6.6 0 010-1.2H19.4a.6.6 0 010 1.2z" fill="#fff"/></svg>