<svg width="26" height="25" fill="none" xmlns="http://www.w3.org/2000/svg"><path d="M22.154 7.925C23.78 8.42 25 9.905 25 11.719c0 1.815-1.22 3.3-2.846 3.795" stroke="#2F8BFF" stroke-miterlimit="22.926" stroke-linecap="round" stroke-linejoin="round"/><path d="M9.64 8.288v6.838M20.46 1h.226c.751 0 1.428.676 1.428 1.428V20.91c0 .752-.677 1.428-1.428 1.428h-.225c-.827 0-5.71-7.288-10.97-7.288H2.954C1.902 15.05 1 14.149 1 13.097v-3.005c0-1.052.902-1.954 1.954-1.954H9.49C14.75 8.288 19.634 1 20.46 1z" stroke="#05060B" stroke-miterlimit="22.926" stroke-linecap="round" stroke-linejoin="round"/><path d="M8.063 15.126c.3 1.503-.15 3.08.827 4.508l1.577 2.48c.376.6-.225 1.653-.976 1.653H7.086c-.676 0-1.427-.601-1.653-1.277l-1.728-7.364h4.358z" stroke="#05060B" stroke-miterlimit="22.926" stroke-linecap="round" stroke-linejoin="round"/></svg>