<svg width="82" height="80" fill="none" xmlns="http://www.w3.org/2000/svg"><path d="M1 8.633h80v65.868H1V8.633zm15.648-5.3V14.69M33.05 3.333V14.69M49.203 3.333V14.69M65.352 3.333V14.69M15.385 29.579v2.776m12.871-2.776v2.776m12.871-2.776v2.776m12.871-2.776v2.776m-38.613 25.49v3.029m12.871-3.029v3.029m12.871-3.029v3.029m25.488-31.295v2.776m-51.23 11.356v3.029" stroke="#F56264" stroke-width="2" stroke-miterlimit="22.926" stroke-linecap="round" stroke-linejoin="round"/><path d="M50.97 40.18h5.553a2.262 2.262 0 012.27 2.27v5.552a2.262 2.262 0 01-2.27 2.272H50.97a2.262 2.262 0 01-2.27-2.272V42.45a2.262 2.262 0 012.27-2.27zm15.645 3.531v3.029m-25.488-3.029v3.029m-12.871-3.029v3.029" stroke="#F56264" stroke-width="2" stroke-miterlimit="22.926" stroke-linecap="round" stroke-linejoin="round"/></svg>