<svg width="16" height="16" fill="none" xmlns="http://www.w3.org/2000/svg"><path fill-rule="evenodd" clip-rule="evenodd" d="M12.274 11.451v.613a.494.494 0 01-.493.493h-.613a.494.494 0 01-.493-.493v-.613c0-.273.22-.494.493-.494h.613c.272 0 .493.221.493.494zm0-3.085v.613a.494.494 0 01-.493.493h-.613a.494.494 0 01-.493-.493v-.613c0-.273.22-.494.493-.494h.613c.272 0 .493.221.493.494zm-3.473 3.085v.613a.494.494 0 01-.495.493h-.612a.494.494 0 01-.494-.493v-.613c0-.273.221-.494.494-.494h.612c.273 0 .495.221.495.494zm0-3.085v.613a.494.494 0 01-.495.493h-.612a.494.494 0 01-.494-.493v-.613c0-.273.221-.494.494-.494h.612c.273 0 .495.221.495.494zm-3.475 3.085v.613a.494.494 0 01-.494.493H4.22a.494.494 0 01-.494-.493v-.613c0-.273.221-.494.494-.494h.612c.273 0 .494.221.494.494zm0-3.085v.613a.494.494 0 01-.494.493H4.22a.494.494 0 01-.494-.493v-.613c0-.273.221-.494.494-.494h.612c.273 0 .494.221.494.494zm8.5 6.434H2.175a.975.975 0 01-.974-.975V5.834h13.6v7.991a.976.976 0 01-.976.975zM2.175 2.318h1.793v.348a.6.6 0 101.2 0v-.349h5.664v.349a.6.6 0 101.201 0v-.349h1.793c.537 0 .974.438.974.975v1.341H1.2v-1.34c0-.538.438-.976.975-.976zm11.65-1.2h-1.792V.6a.6.6 0 00-1.2 0v.517H5.167V.6a.6.6 0 10-1.2 0v.517H2.175C.975 1.117 0 2.093 0 3.292v10.533C0 15.025.976 16 2.175 16h11.65A2.177 2.177 0 0016 13.825V3.293c0-1.2-.976-2.176-2.175-2.176z" fill="#2F8BFF"/></svg>