<svg width="16" height="17" fill="none" xmlns="http://www.w3.org/2000/svg"><mask id="a" maskUnits="userSpaceOnUse" x="1" y="2" width="14" height="14"><path fill-rule="evenodd" clip-rule="evenodd" d="M8 8.013c-.733 0-1.333.606-1.333 1.347 0 .74.6 1.347 1.333 1.347S9.334 10.1 9.334 9.36 8.734 8.013 8 8.013zm4 1.347c0-2.23-1.793-4.04-4-4.04S4 7.13 4 9.36c0 1.495.807 2.795 2 3.495l.667-1.171A2.697 2.697 0 015.334 9.36c0-1.488 1.193-2.694 2.666-2.694 1.473 0 2.667 1.206 2.667 2.694 0 .997-.54 1.852-1.333 2.324l.666 1.17c1.194-.7 2-2 2-3.495zM8 2.625c-3.68 0-6.667 3.017-6.667 6.735a6.74 6.74 0 003.327 5.825l.667-1.165a5.401 5.401 0 01-2.66-4.66c0-2.977 2.386-5.388 5.333-5.388s5.334 2.411 5.334 5.388a5.393 5.393 0 01-2.667 4.66l.667 1.165a6.732 6.732 0 003.333-5.825c0-3.718-2.987-6.735-6.667-6.735z" fill="#fff"/></mask><g mask="url(#a)"><path fill="#2F8BFF" d="M-8.666-8.15h33.333v33.674H-8.666z"/></g></svg>