<svg width="56" height="58" fill="none" xmlns="http://www.w3.org/2000/svg"><path fill-rule="evenodd" clip-rule="evenodd" d="M27.172 1.5c-1.617 0-3.238 1.36-4.82 4.049a.5.5 0 11-.861-.507C23.09 2.322 24.97.5 27.17.5c1.596 0 3.046.902 4.297 2.382 1.254 1.482 2.358 3.596 3.274 6.163 1.834 5.138 2.952 12.197 2.952 19.955 0 7.758-1.119 14.817-2.952 19.955-.916 2.567-2.02 4.681-3.273 6.163-1.252 1.48-2.702 2.382-4.297 2.382-1.596 0-3.045-.902-4.297-2.382-1.254-1.482-2.358-3.596-3.274-6.163-1.832-5.138-2.95-12.197-2.95-19.955 0-7.199.96-13.775 2.57-18.767a.5.5 0 11.951.307C18.6 15.41 17.65 21.88 17.65 29c0 7.674 1.108 14.615 2.894 19.619.894 2.504 1.948 4.496 3.095 5.853 1.15 1.359 2.345 2.028 3.534 2.028 1.188 0 2.384-.67 3.533-2.028 1.148-1.357 2.202-3.349 3.095-5.853 1.786-5.004 2.894-11.945 2.894-19.619 0-7.674-1.108-14.615-2.894-19.619-.893-2.504-1.947-4.496-3.095-5.853C29.555 2.169 28.36 1.5 27.172 1.5z" fill="#05060B"/><path fill-rule="evenodd" clip-rule="evenodd" d="M40.904 13.483c-5.22.961-11.768 3.481-18.413 7.357-6.646 3.877-12.086 8.337-15.52 12.4-1.72 2.033-2.918 3.945-3.524 5.617-.608 1.675-.598 3.04-.023 4.055l.004.007c.4.732 1.152 1.304 2.247 1.675 1.097.372 2.501.53 4.131.451a.5.5 0 11.048 1c-1.711.08-3.25-.08-4.5-.504-1.25-.423-2.246-1.123-2.802-2.14-.774-1.37-.705-3.067-.045-4.885.661-1.823 1.938-3.838 3.7-5.922 3.525-4.17 9.062-8.699 15.78-12.617 6.719-3.92 13.375-6.49 18.735-7.478 2.678-.493 5.06-.596 6.975-.256 1.911.339 3.425 1.135 4.244 2.5l.006.01c.776 1.37.707 3.07.047 4.889-.661 1.823-1.938 3.838-3.7 5.922-3.525 4.17-9.062 8.699-15.78 12.617l-.005.003c-5.92 3.36-11.846 5.764-16.827 7.05a.5.5 0 11-.25-.969c4.883-1.26 10.728-3.627 16.58-6.949 6.645-3.876 12.084-8.336 15.519-12.398 1.718-2.033 2.917-3.945 3.523-5.617.607-1.673.599-3.034.026-4.05-.614-1.019-1.804-1.712-3.558-2.024-1.755-.311-4.007-.226-6.618.256z" fill="#05060B"/><path fill-rule="evenodd" clip-rule="evenodd" d="M6.754 13.227c-1.75.312-2.915 1.006-3.488 2.019-.576 1.016-.585 2.38.025 4.054.608 1.672 1.811 3.584 3.54 5.617 3.454 4.063 8.934 8.523 15.659 12.4h.001c6.25 3.64 12.405 6.082 17.453 7.162 2.525.54 4.755.736 6.572.58 1.824-.156 3.175-.662 4.014-1.466a.5.5 0 11.692.722c-1.07 1.026-2.682 1.574-4.62 1.74-1.947.168-4.282-.044-6.867-.598-5.173-1.107-11.427-3.596-17.746-7.275-6.797-3.919-12.374-8.447-15.92-12.617-1.771-2.084-3.054-4.099-3.718-5.923-.663-1.82-.732-3.518.045-4.89.778-1.373 2.279-2.17 4.183-2.51 1.907-.34 4.294-.236 6.981.257 5.38.987 12.076 3.558 18.795 7.477 5.12 2.96 9.568 6.285 12.96 9.538 3.383 3.242 5.759 6.452 6.672 9.191a.5.5 0 01-.949.316c-.837-2.51-3.075-5.585-6.414-8.786-3.328-3.19-7.71-6.468-12.77-9.394h-.002c-6.645-3.877-13.233-6.397-18.472-7.358-2.623-.482-4.88-.567-6.626-.256z" fill="#05060B"/><path fill-rule="evenodd" clip-rule="evenodd" d="M20.49 5.636c-1.175 0-2.205.909-2.205 2.204 0 1.156 1.05 2.205 2.205 2.205s2.204-1.049 2.204-2.205c0-1.155-1.049-2.204-2.204-2.204zM17.285 7.84c0-1.886 1.516-3.204 3.205-3.204 1.708 0 3.204 1.496 3.204 3.204 0 1.708-1.496 3.205-3.204 3.205-1.708 0-3.205-1.497-3.205-3.205zm9.887 17.046a4.117 4.117 0 00-4.114 4.113 4.117 4.117 0 004.114 4.114 4.117 4.117 0 004.113-4.114 4.117 4.117 0 00-4.113-4.113zm-5.114 4.113a5.117 5.117 0 015.114-5.113 5.117 5.117 0 015.113 5.113 5.117 5.117 0 01-5.113 5.114 5.117 5.117 0 01-5.114-5.114zm30.09 10.205c-1.155 0-2.204 1.049-2.204 2.204 0 1.156 1.05 2.205 2.205 2.205 1.296 0 2.204-1.03 2.204-2.205 0-1.155-1.049-2.204-2.204-2.204zm-3.204 2.204c0-1.708 1.497-3.204 3.205-3.204s3.204 1.496 3.204 3.204c0 1.689-1.318 3.205-3.204 3.205-1.708 0-3.205-1.497-3.205-3.205zm-36.25 1.773c-1.155 0-2.204 1.05-2.204 2.205s1.049 2.204 2.204 2.204c1.156 0 2.205-1.049 2.205-2.204 0-1.156-1.049-2.205-2.205-2.205zM9.49 45.386c0-1.708 1.496-3.205 3.204-3.205 1.708 0 3.205 1.497 3.205 3.205s-1.497 3.204-3.205 3.204-3.204-1.496-3.204-3.204z" fill="#2F8BFF"/></svg>