<svg width="18" height="18" fill="none" xmlns="http://www.w3.org/2000/svg"><path fill-rule="evenodd" clip-rule="evenodd" d="M12.58 9.522a.458.458 0 00-.458.459v3.646a.457.457 0 01-.456.456H4.372a.457.457 0 01-.456-.456V6.334c0-.252.205-.456.456-.456H8.02a.458.458 0 100-.916H4.372C3.616 4.962 3 5.577 3 6.334v7.293C3 14.384 3.616 15 4.372 15h7.294c.756 0 1.372-.616 1.372-1.373V9.981a.458.458 0 00-.458-.459zm2.357-1.904c.003.253-.2.46-.453.463h-.005a.458.458 0 01-.458-.454l-.033-3.03-4.036 4.037a.458.458 0 01-.649-.648l4.037-4.037-3.03-.033A.458.458 0 0110.315 3h.005l4.119.045c.25.003.45.204.453.453l.045 4.12z" fill="#9498AB"/></svg>