<svg width="26" height="24" fill="none" xmlns="http://www.w3.org/2000/svg"><path d="M1 22.571h24M2.295 15.714h3.2v6.781h-3.2v-6.78zM8.39 9.695h3.2v12.8h-3.2v-12.8zm6.02 5.41h3.2v7.39h-3.2v-7.39zm6.095-2.819h3.2v10.21h-3.2v-10.21z" stroke="#05060B" stroke-miterlimit="22.926" stroke-linecap="round" stroke-linejoin="round"/><path d="M3.895 8.171c-.99 0-1.829.839-1.829 1.829s.839 1.829 1.829 1.829S5.724 10.99 5.724 10s-.762-1.829-1.829-1.829zM9.99 2C9 2 8.162 2.838 8.162 3.829c0 .99.838 1.828 1.828 1.828.99 0 1.829-.838 1.829-1.828C11.819 2.839 10.98 2 9.99 2zm6.02 5.486c-.991 0-1.83.838-1.83 1.828 0 .99.839 1.829 1.83 1.829.99 0 1.828-.838 1.828-1.829 0-.99-.838-1.828-1.829-1.828zm6.095-2.82c-.991 0-1.83.839-1.83 1.83 0 .99.839 1.828 1.83 1.828.99 0 1.828-.838 1.828-1.829 0-.99-.838-1.828-1.828-1.828z" stroke="#2F8BFF" stroke-miterlimit="22.926"/><path d="M5.572 8.324l2.819-2.82m3.199-.151l2.896 2.666m3.352.534l2.133-1.067" stroke="#2F8BFF" stroke-miterlimit="22.926" stroke-linecap="round" stroke-linejoin="round"/></svg>