<svg width="44" height="44" fill="none" xmlns="http://www.w3.org/2000/svg"><path d="M15 38h14c.55 0 1-.45 1-1s-.45-1-1-1H15c-.55 0-1 .45-1 1s.45 1 1 1zm0-4h10c.55 0 1-.45 1-1s-.45-1-1-1H15c-.55 0-1 .45-1 1s.45 1 1 1zm15-16c-1.1 0-2 .9-2 2s.9 2 2 2 2-.9 2-2-.9-2-2-2zm6 0c-1.1 0-2 .9-2 2s.9 2 2 2 2-.9 2-2-.9-2-2-2zm2-6h-2V2c0-1.1-.9-2-2-2H10C8.9 0 8 .9 8 2v10H6c-3.31 0-6 2.69-6 6v16c0 3.31 2.69 6 6 6h2v2a2 2 0 002 2h24a2 2 0 002-2v-2h2c3.31 0 6-2.69 6-6V18c0-3.31-2.69-6-6-6zM10 2h24v10H10V2zm24 40H10V30h24v12zm8-8c0 2.21-1.79 4-4 4h-2v-8c0-1.1-.9-2-2-2H10c-1.1 0-2 .9-2 2v8H6c-2.21 0-4-1.79-4-4V18c0-2.21 1.79-4 4-4h32c2.21 0 4 1.79 4 4v16z" fill="#fff"/></svg>