<svg width="24" height="24" fill="none" xmlns="http://www.w3.org/2000/svg"><path fill-rule="evenodd" clip-rule="evenodd" d="M8.337 7.2c.613 0 1.111.516 1.111 1.151S8.95 9.502 8.337 9.502s-1.112-.516-1.112-1.15c0-.636.499-1.152 1.112-1.152zM4.6 8.95h1.51c.264 1.006 1.157 1.752 2.227 1.752 1.07 0 1.963-.746 2.225-1.75H19.4a.6.6 0 000-1.2h-8.838C10.3 6.745 9.406 6 8.337 6c-1.07 0-1.963.746-2.226 1.75H4.6a.6.6 0 000 1.2zm11.063 8.779c-.613 0-1.111-.516-1.111-1.151s.498-1.15 1.111-1.15 1.112.515 1.112 1.15c0 .635-.499 1.15-1.112 1.15zm3.737-1.75h-1.511c-.262-1.006-1.156-1.752-2.226-1.752s-1.962.746-2.225 1.75H4.6a.6.6 0 000 1.201h8.838c.263 1.005 1.156 1.751 2.225 1.751 1.07 0 1.963-.746 2.226-1.75H19.4a.6.6 0 000-1.2z" fill="#363C58"/></svg>