<svg width="22" height="25" fill="none" xmlns="http://www.w3.org/2000/svg"><path clip-rule="evenodd" d="M1.833 11.675l11.956 9.458a1.27 1.27 0 001.785-.208l3.978-5.029a8.892 8.892 0 00-1.458-12.491A8.892 8.892 0 005.603 4.862L1.625 9.89a1.27 1.27 0 00.208 1.785z" stroke="#2F3447" stroke-linecap="round" stroke-linejoin="round"/><path fill-rule="evenodd" clip-rule="evenodd" d="M17.852.843a2.22 2.22 0 103.483 2.755A2.22 2.22 0 0017.852.843z" fill="#2F3447"/><path d="M6.413 15.358a2.276 2.276 0 00-.64.564 2.333 2.333 0 00.383 3.283 2.331 2.331 0 003.283-.383c.181-.23.323-.49.401-.752" stroke="#2F3447" stroke-linecap="round" stroke-linejoin="round"/><path d="M4.599 21.193l-.603.763m-1.9-4.401L1 18.07M8.498 24l.247-1.185" stroke="#2F8BFF" stroke-linecap="round"/></svg>