<svg width="58" height="56" fill="none" xmlns="http://www.w3.org/2000/svg"><path d="M22.964 5.142C24.58 2.534 26.357 1 28.296 1c5.656 0 10.181 12.12 10.181 27s-4.525 27-10.18 27c-5.657 0-10.181-12.12-10.181-27 0-6.903.97-13.193 2.585-17.949" stroke="#2F3447" stroke-miterlimit="22.926" stroke-linecap="round" stroke-linejoin="round"/><path d="M10.682 43.954c-3.394.154-5.98-.614-6.95-2.301-2.746-4.602 5.98-14.42 19.554-21.938C36.861 12.198 50.112 9.897 53.02 14.5c2.747 4.602-5.979 14.42-19.553 21.937-5.98 3.222-11.958 5.523-16.968 6.75" stroke="#2F3447" stroke-miterlimit="22.926" stroke-linecap="round" stroke-linejoin="round"/><path d="M52.374 42.42c-3.878 3.529-16.321 1.074-29.087-5.983C9.55 28.92.825 19.102 3.572 14.5c2.747-4.603 16.16-2.302 29.734 5.215C43.648 25.392 51.243 32.45 53.02 37.511" stroke="#2F3447" stroke-miterlimit="22.926" stroke-linecap="round" stroke-linejoin="round"/><path d="M21.509 4.988c1.454 0 2.747 1.228 2.747 2.608 0 1.38-1.293 2.608-2.747 2.608s-2.747-1.227-2.747-2.608c0-1.534 1.293-2.608 2.747-2.608zm-7.918 36.205c1.454 0 2.747 1.227 2.747 2.608 0 1.38-1.293 2.608-2.747 2.608-1.455 0-2.747-1.227-2.747-2.608 0-1.38 1.292-2.608 2.747-2.608zm40.076-3.835c1.454 0 2.747 1.227 2.747 2.608 0 1.38-1.131 2.608-2.747 2.608-1.454 0-2.747-1.228-2.747-2.608 0-1.381 1.293-2.608 2.747-2.608zM28.297 23.55c2.585 0 4.686 1.994 4.686 4.449 0 2.454-2.101 4.449-4.687 4.449-2.585 0-4.686-1.995-4.686-4.45 0-2.454 2.1-4.448 4.686-4.448z" stroke="#2F8BFF" stroke-miterlimit="22.926"/></svg>