<svg width="33" height="32" fill="none" xmlns="http://www.w3.org/2000/svg"><path d="M32.871 29.5a2.5 2.5 0 01-2.5 2.5h-27a2.5 2.5 0 01-2.5-2.5v-27a2.5 2.5 0 012.5-2.5h27a2.5 2.5 0 012.5 2.5v27z" fill="#FFE812"/><path d="M16.871 4.5c-7.18 0-13 4.59-13 10.25 0 3.66 2.433 6.871 6.094 8.685-.2.686-1.28 4.418-1.323 4.71 0 0-.026.221.117.305.142.084.31.019.31.019.41-.057 4.743-3.102 5.493-3.63.75.106 1.521.161 2.31.161 7.179 0 13-4.589 13-10.25 0-5.66-5.821-10.25-13-10.25z" fill="#000"/><path d="M9.684 18.328c-.414 0-.75-.321-.75-.716v-4.456h-1.17a.736.736 0 01-.737-.734c0-.405.33-.735.736-.735h3.84a.736.736 0 11.001 1.469h-1.17v4.456c0 .395-.337.716-.75.716zm6.576-.01c-.313 0-.552-.127-.624-.33l-.371-.973h-2.287l-.372.973c-.072.204-.311.33-.624.33-.164 0-.327-.035-.476-.103-.207-.096-.406-.358-.178-1.065l1.794-4.722c.126-.36.51-.73.998-.74.49.01.874.38 1 .74l1.794 4.72c.228.71.03.972-.177 1.067-.15.068-.312.104-.477.103zm-1.39-2.632l-.749-2.128-.749 2.128h1.498zm3.251 2.533c-.396 0-.719-.309-.719-.688v-5.093c0-.414.344-.75.766-.75.422 0 .766.336.766.75v4.406h1.593c.397 0 .72.308.72.687 0 .38-.323.688-.72.688h-2.406zm4.167.1a.75.75 0 01-.75-.75v-5.131a.75.75 0 011.5 0v1.611l2.092-2.092a.583.583 0 01.416-.167.74.74 0 01.517.222c.13.13.21.3.22.475a.585.585 0 01-.166.457l-1.709 1.709 1.846 2.445a.743.743 0 01.048.832.742.742 0 01-.646.37.744.744 0 01-.599-.298l-1.759-2.33-.26.26v1.636a.751.751 0 01-.75.75z" fill="#FFE812"/></svg>