<svg width="120" height="18" fill="none" xmlns="http://www.w3.org/2000/svg"><path d="M24.842 3.133H22.13v11.735h8.327v-2.291h-5.614V3.133zm11.603 7.246h2.199v2.058a6.835 6.835 0 01-1.965.327c-2.433 0-3.275-1.262-3.275-3.74 0-2.385.795-3.834 3.228-3.834 1.357 0 2.152.42 2.76 1.215l1.684-1.542c-1.029-1.45-2.806-1.917-4.49-1.917-3.79 0-5.802 2.057-5.802 6.03 0 3.928 1.778 6.079 5.755 6.079 1.824 0 3.602-.468 4.584-1.122V8.182h-4.678v2.197zm11.041 4.301h-2.433V3.18h2.386v4.58h4.585V3.18h2.433v11.454H52.07V9.912h-4.632c.047 1.59.047 3.132.047 4.769zm30.691-11.5h2.62c.795 3.039 1.59 6.124 2.385 9.163.047 0 .14 0 .188.047.093-.234.187-.514.233-.748a478.76 478.76 0 002.012-7.855c.14-.467.328-.654.796-.654.654.047 1.263 0 2.011 0-.889 3.039-1.778 5.984-2.666 8.93-.188.701-.421 1.402-.609 2.057-.093.42-.28.608-.795.608-.889-.047-1.965.28-2.573-.14-.561-.375-.655-1.497-.889-2.338-.842-2.759-1.684-5.517-2.48-8.322-.093-.234-.14-.468-.233-.748zm.842 7.433c0 3.553-3.135 5.424-6.316 3.787-.374-.187-.749-.514-1.03-.888-.982-1.356-.982-4.489.047-5.798 1.03-1.309 2.527-1.449 4.024-1.309 2.386.28 3.275 1.496 3.275 4.208zm-2.34 0c-.046-.42-.046-.841-.093-1.262-.187-.889-.655-1.263-1.497-1.263-.936 0-1.45.328-1.59 1.263a7.34 7.34 0 000 2.478c.14.981.607 1.309 1.45 1.309.982 0 1.45-.328 1.637-1.31.047-.373.047-.794.093-1.215zm35.697-4.067c.842.046 1.637.093 2.433.14 0 .047 0 .093-.047.14.889-.14 1.778-.374 2.667-.42 1.403 0 2.198.794 2.245 2.197.047 1.963 0 3.974 0 6.031h-2.339V12.25c0-.889.047-1.777-.047-2.665-.047-.374-.327-1.029-.561-1.076-.608-.093-1.31.047-1.918.187-.094 0-.141.421-.141.655v5.283h-2.339c.047-2.665.047-5.283.047-8.088zm-.983 4.02c-.046.468-.046.982-.14 1.45-.374 1.73-1.357 2.618-3.322 2.805-.748.093-1.544 0-2.292-.187-1.404-.328-2.152-1.45-2.293-3.32-.046-.748 0-1.543.141-2.29.327-1.59 1.497-2.479 3.509-2.619 2.807-.14 4.397.889 4.397 4.161zm-2.432.094h-.047c0-.374.047-.748 0-1.122-.094-.889-.608-1.356-1.451-1.403-.935-.047-1.497.327-1.637 1.262a10.92 10.92 0 000 2.478c.14.935.561 1.31 1.45 1.31.936 0 1.497-.421 1.638-1.31.047-.42.047-.841.047-1.215zm-45.896.514h-5.1c.047 1.964 1.45 2.385 4.492 1.356.047.047.093.047.093.094.562 1.449.515 1.59-1.029 1.916a12.002 12.002 0 01-3.181.14c-1.404-.093-2.293-.981-2.573-2.384-.281-1.215-.281-2.384.093-3.553.515-1.636 2.246-2.618 4.117-2.338 1.825.234 2.948 1.403 3.088 3.226v1.543zm-5.1-1.59h2.808c-.14-1.122-.421-1.449-1.264-1.496-.982-.046-1.356.28-1.543 1.497zm34.949 3.039c.982.187 1.824.374 2.666.515.234.046.562 0 .796-.14.187-.094.42-.375.468-.562 0-.14-.234-.467-.375-.514-.608-.234-1.263-.374-1.918-.561-1.497-.42-2.105-1.262-2.012-2.665.094-1.122.936-1.964 2.34-2.15 1.59-.234 2.853-.047 4.21.654-.187.468-.374.935-.608 1.45-.655-.14-1.263-.375-1.871-.421-.421-.047-.936-.047-1.357.093-.234.047-.515.374-.515.561 0 .234.234.561.468.655.655.233 1.404.42 2.058.607 1.357.375 1.872 1.076 1.872 2.291 0 1.263-.655 2.057-1.965 2.385-1.357.327-2.667.187-3.977-.234-.608-.187-.842-.467-.514-1.122.046-.327.14-.608.234-.842zM66.34 14.68h-2.246V3.227h2.246v11.455zm3.602 0h-2.245V3.227h2.245v11.455zm21.428.001h-2.246V6.639h2.246v8.042zm10.9 0h-2.198V6.639h2.198v8.042zM91.416 3.226V5.05h-2.292V3.226h2.292zM102.27 5.05h-2.198V3.18h2.198v1.87z" fill="#6D6E71"/><path d="M9.03 18c4.959 0 9.029-4.02 9.029-9.023C18.059 4.02 13.989 0 9.029 0A9.002 9.002 0 000 9.023C0 13.98 4.023 18 9.03 18z" fill="#C00C3F"/><path d="M8.655 5.05v7.9h2.526v-.7H9.404v-7.2h-.749zM6.129 7.2c.608 0 1.076-.468 1.076-1.075 0-.608-.468-1.076-1.076-1.076-.608 0-1.076.468-1.076 1.076 0 .607.514 1.075 1.076 1.075z" fill="#fff"/><path d="M9.404 1.45h-.375a7.525 7.525 0 00-7.532 7.527c0 2.01.795 3.927 2.199 5.33 1.45 1.402 3.322 2.197 5.333 2.197 2.012 0 3.93-.795 5.334-2.197a7.532 7.532 0 002.199-5.33V8.65H11.18v.7h4.679v.094c-.234 3.554-3.228 6.359-6.83 6.359a6.832 6.832 0 01-4.866-2.01c-1.31-1.31-2.012-2.993-2.012-4.816 0-1.824.702-3.553 2.012-4.816a6.753 6.753 0 014.865-2.01h.375V1.45z" fill="#fff"/></svg>