<svg width="152" height="42" fill="none" xmlns="http://www.w3.org/2000/svg"><path d="M20.945 42c11.557 0 20.944-9.392 20.944-20.995C41.888 9.402 32.502 0 20.945 0 9.369 0 0 9.402 0 21.005S9.37 42 20.945 42z" fill="#C00C3F"/><path d="M20.105 11.787v18.427h5.836v-1.657h-4.155v-16.77h-1.681zm-5.848 5.028c1.39 0 2.51-1.133 2.51-2.517a2.52 2.52 0 00-2.51-2.524 2.52 2.52 0 00-2.508 2.524 2.514 2.514 0 002.508 2.517z" fill="#fff"/><path d="M21.784 3.43a25.12 25.12 0 00-.834-.025c-9.668 0-17.534 7.897-17.534 17.591 0 4.71 1.824 9.124 5.127 12.443 3.316 3.31 7.716 5.141 12.407 5.141 4.674 0 9.073-1.83 12.384-5.141a17.503 17.503 0 005.141-12.443v-.781h-12.52v1.618h10.85c0 .036 0 .207-.007.253-.551 8.288-7.45 14.852-15.849 14.852-4.252 0-8.238-1.66-11.238-4.673-3.01-3-4.668-6.998-4.668-11.27 0-4.244 1.658-8.263 4.668-11.271 3-3.01 6.987-4.67 11.238-4.67.183 0 .63 0 .834.013V3.429h.001z" fill="#fff"/><path d="M57.655 7.088h-6.292v27.337h19.328v-5.321H57.655V7.088zm26.881 16.92h5.125v4.781c-.945.36-2.787.721-4.54.721-5.665 0-7.552-2.888-7.552-8.749 0-5.593 1.797-8.887 7.461-8.887 3.148 0 4.946.99 6.427 2.886l3.912-3.61c-2.383-3.426-6.564-4.465-10.474-4.465-8.813 0-13.44 4.828-13.44 14.028 0 9.157 4.179 14.119 13.395 14.119 4.226 0 8.36-1.082 10.607-2.66V18.91h-10.92v5.1zm60.591-16.961V.16h-5.064v6.887h-6.694v4.858h6.694v6.807h5.064v-6.807h6.74V7.047h-6.74zm-22.261.029V22.87c0 4.365-2.159 6.512-5.813 6.512s-5.813-2.147-5.813-6.512V7.076h-6.176v15.886c0 8.62 4.57 11.857 11.768 11.857l.221-.002.222.002c7.198 0 11.77-3.238 11.77-11.857V7.076h-6.179z" fill="#6D6E71"/></svg>