<svg width="19" height="24" fill="none" xmlns="http://www.w3.org/2000/svg"><path d="M12.777 7.733a1.63 1.63 0 01-1.647-1.647c0-.197.132-.329.33-.329.197 0 .329.132.329.33 0 .526.46.987.988.987.197 0 .329.132.329.33 0 .197-.132.329-.33.329z" fill="#2F3447"/><path d="M18.506 7.733h-5.73c-.197 0-.329-.132-.329-.33 0-.197.132-.329.33-.329h4.939l-5.927-5.927v4.94c0 .197-.132.329-.33.329-.197 0-.329-.132-.329-.33V.356c0-.131.066-.263.198-.329.131-.066.263 0 .329.066l7.047 7.047c.066.066.132.264.066.33 0 .197-.132.263-.264.263z" fill="#2F3447"/><path d="M18.506 24H.33c-.198 0-.33-.132-.33-.33V.358C0 .16.132.028.33.028h11.13c.065 0 .197.066.263.066L18.77 7.14c.066.066.066.132.066.264V23.67c0 .197-.132.33-.33.33zM.66 23.341h17.518V7.536l-6.85-6.85H.66v22.656z" fill="#2F3447"/><path d="M14.423 9.643H4.413c-.198 0-.33-.132-.33-.33 0-.197.132-.329.33-.329h10.01c.198 0 .33.132.33.33 0 .197-.132.329-.33.329zm0 3.095H4.413c-.198 0-.33-.131-.33-.33 0-.197.132-.328.33-.328h10.01c.198 0 .33.131.33.329 0 .197-.132.33-.33.33zm0 3.095H4.413c-.198 0-.33-.131-.33-.329 0-.197.132-.33.33-.33h10.01c.198 0 .33.133.33.33 0 .198-.132.33-.33.33zm0 3.162H4.413c-.198 0-.33-.132-.33-.33 0-.197.132-.329.33-.329h10.01c.198 0 .33.132.33.33 0 .197-.132.329-.33.329z" fill="#2F3447"/></svg>