<svg width="18" height="18" fill="none" xmlns="http://www.w3.org/2000/svg"><mask id="a" maskUnits="userSpaceOnUse" x="4" y="3" width="10" height="12"><path fill-rule="evenodd" clip-rule="evenodd" d="M4.5 3h9.21v12H4.5V3z" fill="#fff"/></mask><g mask="url(#a)"><path fill-rule="evenodd" clip-rule="evenodd" d="M9.841 15c-.527 0-1.027-.02-1.313-.066-.758-.12-1.333-.445-1.794-.708-.286-.162-.533-.302-.767-.367-.546-.153-1.386-.136-1.393-.136l-.021-.9c.04-.001.98-.02 1.656.17.34.093.646.267.97.45.438.25.893.508 1.49.602.468.075 1.87.073 2.63-.003.46-.046.923-.338.923-.887v-.157a.887.887 0 00-.065-.33.45.45 0 01.065-.446c.09-.112.196-.3.196-.548v-.157a.884.884 0 00-.065-.33.449.449 0 01.066-.445.885.885 0 00.195-.548v-.158a.882.882 0 00-.065-.328.45.45 0 01.066-.447.885.885 0 00.195-.549v-.156c0-.518-.467-.863-.9-.886a63.516 63.516 0 00-1.85-.051.45.45 0 01-.443-.48c.02-.297.063-.631.104-.954.068-.529.153-1.188.082-1.443-.138-.497-.62-.87-.86-.842-.135.014-.241.266-.271.645C8.469 7.108 7.115 8.7 5.14 8.7H4.5v-.9h.64c1.484 0 2.47-1.244 2.635-3.327.098-1.242.79-1.441 1.082-1.47.724-.07 1.573.63 1.814 1.497.12.43.034 1.096-.057 1.8-.018.142-.037.286-.053.426.402.008.973.023 1.395.045.967.05 1.754.85 1.754 1.784v.156c0 .32-.085.626-.248.9.035.14.052.282.052.425v.157c0 .318-.085.625-.248.9.035.139.052.28.052.423v.157c0 .319-.085.626-.248.9.035.14.052.281.052.424v.157c0 .933-.729 1.682-1.733 1.783-.396.04-.987.062-1.547.062z" fill="#2F8BFF"/></g></svg>