<svg width="16" height="16" fill="none" xmlns="http://www.w3.org/2000/svg"><path d="M9.03 11.333H5.393a.304.304 0 00-.303.303c0 .167.137.303.303.303H9.03a.304.304 0 00.303-.303.304.304 0 00-.303-.303zM5.393 4.667h1.515a.304.304 0 00.303-.303.304.304 0 00-.303-.303H5.393a.304.304 0 00-.303.303c0 .166.137.303.303.303zm5.455 4.242H5.393a.304.304 0 00-.303.303c0 .167.137.303.303.303h5.455a.304.304 0 00.303-.303.304.304 0 00-.303-.303zM5.09 6.788c0 .166.137.303.303.303h5.455a.304.304 0 00.303-.303.304.304 0 00-.303-.303H5.393a.304.304 0 00-.303.303zm5.455-5.455H3.878c-.67 0-1.212.543-1.212 1.212v10.91c0 .67.542 1.212 1.212 1.212h8.485c.67 0 1.212-.543 1.212-1.213V4.667l-3.03-3.334zm2.424 12.122a.606.606 0 01-.606.605H3.878a.606.606 0 01-.606-.606V2.545c0-.333.273-.606.606-.606h5.455v3.03c0 .334.272.607.606.607h3.03v7.878zM9.939 4.97V1.94h.303l2.727 3.03h-3.03z" fill="#474B57" stroke="#474B57" stroke-width=".2"/></svg>