<svg width="173" height="28" fill="none" xmlns="http://www.w3.org/2000/svg"><path d="M15.794 0h-3.553c-.738 0-1.372.633-1.372 1.372v25.256c0 .739.634 1.372 1.372 1.372h3.588c.739 0 1.372-.633 1.372-1.372V1.372C17.166.633 16.568 0 15.794 0z" fill="#C2E0FF"/><path d="M26.663 10.834H1.372c-.739 0-1.372.633-1.372 1.372v3.588c0 .739.633 1.372 1.372 1.372h25.256c.739 0 1.372-.633 1.372-1.372V12.24a1.353 1.353 0 00-1.337-1.407z" fill="#66B1FF"/><path d="M18.467 14l6.719-6.719a1.38 1.38 0 000-1.934l-2.533-2.533a1.38 1.38 0 00-1.934 0l-6.72 6.719-6.683-6.684a1.38 1.38 0 00-1.934 0L2.849 5.382a1.38 1.38 0 000 1.935l6.719 6.718-6.719 6.684a1.38 1.38 0 000 1.934l2.533 2.533a1.38 1.38 0 001.934 0l6.72-6.719 6.718 6.719a1.38 1.38 0 001.934 0l2.533-2.533a1.38 1.38 0 000-1.934L18.467 14z" fill="#3498FF"/><path d="M72.11 4.08c1.76 0 3.342.387 4.784 1.196a8.433 8.433 0 013.377 3.377c.844 1.442 1.267 3.13 1.267 5.066 0 1.934-.422 3.623-1.231 5.17a8.967 8.967 0 01-3.413 3.553c-1.442.844-3.06 1.267-4.889 1.267-1.618 0-3.13-.387-4.573-1.126-1.407-.739-2.568-1.864-3.447-3.342-.88-1.477-1.302-3.236-1.302-5.311 0-1.935.422-3.623 1.267-5.1.844-1.478 1.97-2.64 3.412-3.448 1.407-.88 2.99-1.302 4.749-1.302zm-.14 3.166c-1.02 0-1.97.211-2.85.669-.879.457-1.582 1.16-2.145 2.11s-.844 2.181-.844 3.623c0 1.372.281 2.568.809 3.588.527 1.02 1.266 1.83 2.18 2.392.915.563 1.97.844 3.096.844.985 0 1.935-.246 2.814-.703.88-.457 1.618-1.196 2.181-2.181.563-.985.844-2.216.844-3.729 0-1.512-.316-2.743-.914-3.764-.598-.984-1.372-1.723-2.287-2.18a6.315 6.315 0 00-2.884-.669zm14.528-2.919h6.472c2.462 0 4.186.527 5.17 1.547.95 1.02 1.443 2.181 1.443 3.412 0 1.794-.844 3.237-2.498 4.257 1.267.246 2.252.844 2.955 1.723.704.915 1.055 1.9 1.055 2.955 0 1.407-.633 2.638-1.9 3.658-1.265 1.02-3.481 1.548-6.682 1.548h-6.05v-19.1h.035zm5.874 2.954h-2.463v4.89h2.463c1.372 0 2.392-.211 2.99-.598.598-.387.914-1.02.914-1.83 0-.808-.281-1.406-.88-1.828-.562-.423-1.582-.634-3.024-.634zm-.246 7.774h-2.217v5.382h2.217c1.934 0 3.341-.176 4.256-.563.914-.351 1.372-1.055 1.372-2.04 0-.914-.458-1.618-1.337-2.075-.915-.493-2.322-.704-4.291-.704zm17.025-10.728h-3.412v19.1h3.412v-19.1zm17.306 13.402c0 .738-.14 1.407-.422 2.04a4.107 4.107 0 01-1.196 1.583 5.291 5.291 0 01-1.935.985c-.773.246-1.582.352-2.532.352-.844 0-1.653-.07-2.357-.247-.704-.176-1.372-.422-1.935-.774a8.556 8.556 0 01-1.688-1.336l.95-.95c.527.528 1.055.985 1.547 1.266.493.317 1.056.528 1.618.669.563.14 1.232.175 1.935.175.95 0 1.759-.14 2.462-.422.704-.281 1.232-.703 1.583-1.266.387-.563.563-1.231.563-2.005 0-1.09-.316-1.935-.985-2.533a2.992 2.992 0 00-1.02-.598c-.352-.14-.914-.246-1.583-.351l-2.11-.317c-1.372-.211-2.427-.633-3.201-1.302-.95-.773-1.407-1.899-1.407-3.306 0-.774.14-1.442.387-2.04.281-.598.633-1.126 1.125-1.548.493-.422 1.055-.739 1.759-.985a7.978 7.978 0 012.286-.352c1.091 0 2.041.141 2.815.458.773.316 1.582.809 2.356 1.477l-.879.88c-.633-.563-1.266-.986-1.9-1.267-.633-.281-1.442-.422-2.462-.422-1.301 0-2.322.317-3.06.985-.739.668-1.091 1.583-1.091 2.708 0 1.056.317 1.83.915 2.357.352.282.739.493 1.231.704.493.21.985.316 1.442.387l1.935.316c.844.141 1.477.282 1.935.457.457.176.879.423 1.266.74.492.421.915.914 1.161 1.512.352.633.492 1.266.492 1.97zm15.689 4.819h-10.905V4.608h10.905v1.196h-9.533v7.105h8.126v1.196h-8.126v7.247h9.533v1.196zm15.583 0h-10.905V4.608h1.372v16.744h9.533v1.196zm14.949 0h-10.904V4.608h1.372v16.744h9.532v1.196zM38.412 4.327h4.573l5.17 10.447 5.277-10.447h4.291v19.065h-3.376V9.005l-4.82 9.498h-2.92l-4.783-9.498v14.387h-3.412V4.327z" fill="#3C3C3C"/></svg>