<svg width="24" height="24" fill="none" xmlns="http://www.w3.org/2000/svg"><path fill-rule="evenodd" clip-rule="evenodd" d="M12.701 13.073l4.685-3.322a.6.6 0 00-.695-.979l-4.698 3.322-4.685-3.322a.6.6 0 00-.694.979l4.684 3.322a1.212 1.212 0 001.403 0zM6.004 7.2a.806.806 0 00-.804.805v7.991c0 .443.361.804.804.804h11.991a.806.806 0 00.805-.804V8.005a.806.806 0 00-.805-.805H6.004zM17.995 18H6.004A2.006 2.006 0 014 15.996V8.005C4 6.9 4.899 6 6.004 6h11.991C19.1 6 20 6.9 20 8.005v7.991C20 17.101 19.1 18 17.995 18z" fill="#9498AB"/></svg>