<svg width="29" height="20" fill="none" xmlns="http://www.w3.org/2000/svg"><path d="M25.31 9.9l-.432.432c-.145.145-.318.26-.462.404a6.722 6.722 0 012.77 5.455c0 .318.26.606.607.606a.61.61 0 00.606-.606c0-2.568-1.212-4.82-3.088-6.292zm-9.177-7.706c.202.057.404.115.606.202.202.086.375.173.548.26a4.19 4.19 0 013.204-1.444 4.28 4.28 0 014.271 4.272c0 .895-.26 1.703-.721 2.395a4.55 4.55 0 01-.808.866 9.252 9.252 0 01-.578.433 4.993 4.993 0 01-.894.404c-.318.087-.664.173-1.01.173a4.611 4.611 0 01-.145.606c-.029.058-.029.116-.057.202-.058.145-.087.26-.145.404h.116c.49 0 .952-.086 1.414-.202.52-.144 1.039-.346 1.472-.635a3.84 3.84 0 00.548-.404c.173-.144.318-.26.462-.404.26-.26.49-.548.693-.865a5.346 5.346 0 00.866-2.944A5.481 5.481 0 0020.49.029C18.673 0 17.114.866 16.133 2.194zM.606 16.769a.61.61 0 00.606-.606c0-2.251 1.097-4.214 2.77-5.455a3.06 3.06 0 01-.46-.404l-.434-.433A7.903 7.903 0 000 16.134c0 .375.26.635.606.635zm3.406-7.476c.144.145.317.289.461.404.174.145.347.29.549.405.462.288.952.49 1.472.634.462.116.923.202 1.414.202.087 0 .144-.028.23-.028-.057-.116-.086-.26-.143-.376-.03-.057-.03-.115-.058-.202a4.612 4.612 0 01-.144-.606c-.405 0-.75-.086-1.126-.202a3.555 3.555 0 01-.895-.404 2.745 2.745 0 01-.577-.433 4.572 4.572 0 01-.808-.866 4.262 4.262 0 01-.722-2.395 4.28 4.28 0 014.272-4.272c1.299 0 2.424.578 3.232 1.501.173-.086.375-.173.549-.26a4.58 4.58 0 01.577-.202C11.285.866 9.726 0 7.937 0a5.481 5.481 0 00-5.484 5.484c0 1.068.318 2.078.866 2.944.202.288.433.577.693.865zm14.661 4.041c-.145.145-.318.26-.462.404a7.008 7.008 0 012.078 2.425c.462.894.721 1.933.721 3.001 0 .318.26.606.607.606a.61.61 0 00.606-.606 7.438 7.438 0 00-.606-3.001c-.52-1.3-1.386-2.396-2.483-3.262a5.733 5.733 0 01-.461.433zM6.926 16.163a7.959 7.959 0 00-.606 3.001c0 .318.26.606.606.606a.61.61 0 00.606-.606c0-1.096.26-2.107.722-3.001a6.486 6.486 0 012.078-2.425c-.173-.115-.317-.26-.462-.404l-.433-.433c-1.125.866-1.991 1.963-2.51 3.262z" fill="#fff"/><path d="M10.851 4.243c-.923.75-1.616 1.76-1.904 2.973a4.568 4.568 0 00-.145 1.097c0 .057-.029.115-.029.202v.029c0 .115.03.26.03.375.028.202.028.404.057.606 0 .058 0 .086.029.144.029.202.115.375.173.577l.173.52c0 .029.03.029.03.058.115.23.23.461.345.663.087.116.145.231.231.347.145.173.289.375.433.548.145.145.318.289.462.404.173.145.346.289.548.404.174.116.347.202.52.289.317.144.635.26.952.346.03 0 .058.03.087.03.029 0 .087.028.115.028.145.029.318.058.462.087.202.028.404.057.606.057.058 0 .087.03.145.03h.028a4.3 4.3 0 00.607-.059c.144-.028.317-.028.432-.057.058 0 .087-.03.145-.058a.41.41 0 00.173-.058c.289-.086.577-.173.866-.317.202-.087.433-.202.606-.347.202-.115.375-.26.548-.404.173-.144.318-.26.462-.404l.433-.52.26-.346c.115-.202.23-.404.346-.635a.219.219 0 00.058-.115c.057-.144.086-.289.144-.433.058-.173.144-.375.173-.577 0-.058.03-.116.03-.173.028-.202.057-.404.057-.606 0-.116.029-.202.029-.318v-.058c0-.057-.03-.144-.03-.202 0-.375-.057-.75-.143-1.096a5.356 5.356 0 00-1.963-3.002 4.472 4.472 0 00-.924-.577 4.436 4.436 0 00-.548-.231c-.202-.058-.375-.144-.577-.173a5.058 5.058 0 00-1.155-.145h-.115c-.087 0-.144.03-.231.03a6.55 6.55 0 00-1.126.172c-.202.058-.375.116-.577.174a2.36 2.36 0 00-.548.26c-.173.028-.49.23-.78.461zm3.146-.029c.087 0 .174-.029.231-.029h.145c.26 0 .49.03.75.087.202.029.375.116.577.173.202.058.375.145.577.26a4.32 4.32 0 011.04.75c.519.52.894 1.184 1.096 1.934.058.173.087.375.116.548.029.174.057.347.057.549 0 .202-.028.433-.057.635v.115c-.03.202-.087.375-.145.549v.028c-.057.202-.144.376-.23.549a8.062 8.062 0 01-.26.49c-.116.145-.231.29-.375.433-.145.145-.29.289-.462.433-.173.145-.375.289-.577.433-.116.058-.203.116-.318.173-.202.087-.375.174-.577.231-.145.058-.318.087-.462.116-.115.029-.23.029-.346.029-.087 0-.173.029-.26.029-.058 0-.116.028-.173.028-.087 0-.173-.028-.26-.028-.087 0-.173-.03-.289-.03-.115-.028-.23-.028-.346-.028-.115-.03-.23-.087-.375-.116l-.693-.26c-.087-.028-.144-.086-.23-.115a2.743 2.743 0 01-.578-.433 3.712 3.712 0 01-.49-.462c-.116-.144-.232-.26-.318-.404a3.283 3.283 0 01-.289-.548 3.531 3.531 0 01-.202-.49c0-.03 0-.03-.029-.058-.057-.202-.115-.376-.144-.606v-.03a4.275 4.275 0 01-.058-.634v-.03c0-.23.03-.432.058-.634l.087-.433a4.03 4.03 0 01.98-1.79c.29-.346.665-.606 1.04-.836.173-.116.375-.202.577-.289.173-.058.375-.144.577-.173.145-.058.405-.087.635-.116z" fill="#fff"/></svg>