<svg width="24" height="26" fill="none" xmlns="http://www.w3.org/2000/svg"><path d="M22.073 1v24H1V1h21.073zM4 5h15M4 8h15M4 11h1.5M4 14h1.5M4 17h1.5M4 20h1.5" stroke="#05060B" stroke-miterlimit="22.926" stroke-linecap="round" stroke-linejoin="round"/><path d="M10.275 12.582l-2.066.787.25-2.225m4.841 5.15l-2.546-1.543m5.632-1.543l-3.009 3.163 3.01-3.163z" stroke="#2F8BFF" stroke-miterlimit="22.926" stroke-linecap="round" stroke-linejoin="round"/><path d="M7.9 15.676A5.334 5.334 0 0013.222 21c2.932 0 5.4-2.392 5.4-5.401 0-2.932-2.391-5.4-5.4-5.4-2.083.076-3.858 1.31-4.784 3.085" stroke="#2F8BFF" stroke-miterlimit="22.926" stroke-linecap="round" stroke-linejoin="round"/></svg>