<svg width="21" height="21" fill="none" xmlns="http://www.w3.org/2000/svg"><path d="M14.885 17.046l6.06-15.911a.843.843 0 00-.19-.89.833.833 0 00-.89-.19l-15.91 6.06a.833.833 0 00-.538.807.838.838 0 00.587.772l7.085 2.217 2.213 7.085a.826.826 0 00.773.584.833.833 0 00.81-.534zm-2.18-7.567l3.246-3.246a.836.836 0 10-1.184-1.184l-3.246 3.246L6.805 6.82 18.71 2.285 14.175 14.19l-1.47-4.711zm-8.512 1.025a.836.836 0 00-1.184 0l-2.763 2.76a.836.836 0 101.184 1.184l2.763-2.764a.831.831 0 000-1.18zm6.302 6.303a.836.836 0 00-1.184 0L6.552 19.57a.836.836 0 101.185 1.184l2.763-2.763a.84.84 0 00-.005-1.184z" fill="#fff"/><path d="M9.187 11.814a.836.836 0 00-1.185 0L3.4 16.416a.836.836 0 101.184 1.185l4.607-4.607a.835.835 0 00-.004-1.18z" fill="#fff"/></svg>