<svg width="16" height="16" fill="none" xmlns="http://www.w3.org/2000/svg"><mask id="a" maskUnits="userSpaceOnUse" x="4" y="0" width="8" height="16"><path fill-rule="evenodd" clip-rule="evenodd" d="M11 4v7.667a2.666 2.666 0 11-5.334 0V3.334a1.667 1.667 0 013.333 0v7c0 .366-.3.666-.666.666a.669.669 0 01-.667-.666V4h-1v6.334a1.667 1.667 0 003.333 0v-7a2.666 2.666 0 10-5.333 0v8.333a3.665 3.665 0 003.667 3.667 3.665 3.665 0 003.666-3.667V4h-1z" fill="#fff"/></mask><g mask="url(#a)"><path fill="#2F8BFF" d="M-8.666-8.667h33.333v33.333H-8.666z"/></g></svg>