<svg width="16" height="16" fill="none" xmlns="http://www.w3.org/2000/svg"><path d="M3.733 0c-.483 0-.889.415-.889.91v.726H1.778c-.504 0-.97.174-1.295.512C.16 2.486 0 2.959 0 3.455c0 .495.16.963.483 1.3.324.339.79.518 1.295.518h1.066v.909H1.778c-.517 0-.984.199-1.3.54C.16 7.062 0 7.525 0 8s.156.932.472 1.273c.317.34.789.545 1.306.545h1.066v.91H1.778c-.519 0-.99.198-1.306.539-.316.341-.472.805-.472 1.279 0 .473.156.93.472 1.272a1.77 1.77 0 001.306.546h1.066v.727c0 .494.406.909.89.909H15.11c.483 0 .889-.415.889-.91V.91c0-.495-.406-.91-.889-.91H3.733zm.178 1.09h11.022v13.82H3.911V1.09zm5.333 1.274c-1.171 0-2.133.983-2.133 2.181 0 1.199.962 2.182 2.133 2.182 1.172 0 2.134-.983 2.134-2.182 0-1.198-.962-2.181-2.134-2.181zm-7.466.363h1.066v1.455H1.778c-.28 0-.431-.08-.534-.188-.102-.106-.177-.268-.177-.54 0-.271.075-.438.177-.545.103-.107.254-.182.534-.182zm7.466.728a1.07 1.07 0 011.067 1.09 1.07 1.07 0 01-1.067 1.091 1.07 1.07 0 01-1.066-1.09c0-.61.471-1.091 1.066-1.091zM8.711 7.09c-.806 0-1.564.267-2.15.676-.585.41-1.05.976-1.05 1.688v1.636c0 .286.254.545.533.545h6.4c.28 0 .534-.26.534-.545V9.455c0-.713-.476-1.266-1.061-1.677a3.769 3.769 0 00-2.14-.687H8.712zm-6.933.182h1.066v1.454H1.778c-.267 0-.418-.086-.528-.204A.743.743 0 011.067 8c0-.232.073-.41.183-.528.11-.12.262-.2.528-.2zm6.933.909h1.067c.55 0 1.129.207 1.539.494.41.287.594.646.594.779v1.09H6.578v-1.09c0-.156.184-.501.589-.785.405-.283.98-.488 1.544-.488zm-6.933 3.636h1.066v1.455H1.778c-.268 0-.418-.086-.528-.205a.746.746 0 01-.183-.522c0-.232.073-.41.183-.529.11-.119.261-.199.528-.199zm4.21.182c-.278.015-.52.288-.505.574.015.286.282.532.561.517h6.412c.281.004.54-.257.54-.545 0-.289-.259-.55-.54-.546H5.989z" fill="#fff"/></svg>