<svg width="20" height="17" fill="none" xmlns="http://www.w3.org/2000/svg"><path d="M5.575 12.475h0a5.455 5.455 0 01-3.73-5.169c0-3.024 2.438-5.46 5.436-5.436h5.388a5.468 5.468 0 015.461 5.46 5.468 5.468 0 01-5.461 5.461H8.647a.473.473 0 00-.344.129l-2.411 2.411v-2.415a.473.473 0 00-.317-.442zM7.306.9A6.415 6.415 0 00.9 7.306a6.395 6.395 0 004.047 5.952v2.49a.768.768 0 001.313.542l2.577-2.578h3.857A6.415 6.415 0 0019.1 7.306 6.415 6.415 0 0012.694.9H7.306z" fill="#fff" stroke="#fff" stroke-width=".2"/><path d="M6.736 7.779h5.345l-1.667 1.667a.46.46 0 00.344.791.473.473 0 00.344-.129l2.482-2.482.001-.001c.013-.013.036-.036.057-.065a.241.241 0 00.044-.103.374.374 0 00.027-.149v-.004c0-.023 0-.054-.004-.083a.199.199 0 00-.037-.094 1.474 1.474 0 00-.034-.066.352.352 0 00-.054-.073l-2.482-2.483a.46.46 0 00-.663 0 .46.46 0 000 .663l1.666 1.666h-5.37a.482.482 0 00-.472.473c0 .253.219.472.473.472z" fill="#fff" stroke="#fff" stroke-width=".2"/></svg>