<svg width="21" height="21" fill="none" xmlns="http://www.w3.org/2000/svg"><path d="M15.605 12.87c-.183.182-.401.328-.584.51a8.851 8.851 0 012.626 3.063 8.314 8.314 0 01.911 3.792.77.77 0 00.766.766.77.77 0 00.765-.766c0-1.349-.255-2.625-.765-3.792-.657-1.64-1.75-3.026-3.136-4.12a7.5 7.5 0 01-.583.547zM.766 16.443A10.054 10.054 0 000 20.235a.77.77 0 00.766.766.77.77 0 00.765-.766c0-1.386.328-2.662.912-3.792a8.193 8.193 0 012.625-3.062c-.219-.146-.401-.329-.583-.51l-.547-.548c-1.422 1.094-2.516 2.48-3.172 4.12zM5.725 1.385c-1.167.948-2.042 2.224-2.407 3.756a5.77 5.77 0 00-.182 1.385c0 .073-.036.146-.036.255v.037c0 .146.036.328.036.474.037.255.037.51.073.766 0 .072 0 .109.036.182.037.255.146.474.22.729l.218.656c0 .037.036.037.036.073.146.292.292.584.438.839.11.146.182.291.292.437.182.22.364.474.547.693.182.182.4.365.583.51.219.183.437.365.693.51.218.147.437.256.656.366.4.182.802.328 1.203.437.036 0 .073.037.11.037.036 0 .109.036.145.036.183.036.401.073.584.11.255.036.51.072.765.072.073 0 .11.037.183.037h.036c.255 0 .51-.037.766-.073.182-.037.4-.037.546-.073.073 0 .11-.037.183-.073a.517.517 0 00.219-.073c.364-.11.729-.219 1.093-.401.256-.11.547-.255.766-.438.255-.145.474-.328.693-.51.218-.182.4-.328.583-.51l.547-.657.328-.437c.146-.255.292-.51.438-.802a.277.277 0 00.073-.146c.073-.182.109-.365.182-.547.073-.219.182-.474.219-.73 0-.072.036-.145.036-.218.037-.255.073-.51.073-.766 0-.145.036-.255.036-.4v-.074c0-.073-.036-.182-.036-.255a5.77 5.77 0 00-.182-1.385 6.767 6.767 0 00-2.48-3.792 5.651 5.651 0 00-1.166-.73 5.61 5.61 0 00-.693-.291c-.255-.073-.474-.182-.73-.219A6.388 6.388 0 009.99 0h-.145c-.11 0-.183.036-.292.036-.51.037-.984.11-1.422.22-.255.072-.474.145-.73.218a2.982 2.982 0 00-.692.328c-.219.037-.62.292-.984.583zm3.974-.036c.11 0 .219-.036.291-.036h.183c.328 0 .62.036.948.109.255.036.474.146.729.219.255.073.474.182.73.328.473.255.91.547 1.312.948a5.426 5.426 0 011.385 2.443c.073.218.11.474.146.692.036.219.073.438.073.693 0 .255-.037.547-.073.802v.146c-.037.255-.11.474-.182.693v.036c-.073.255-.183.474-.292.693-.11.219-.219.437-.328.62a6.578 6.578 0 01-.474.547 8.538 8.538 0 01-.584.546c-.218.183-.474.365-.729.547-.146.073-.255.146-.4.22-.256.108-.475.218-.73.29-.182.074-.401.11-.583.147-.146.036-.292.036-.438.036-.11 0-.219.037-.328.037-.073 0-.146.036-.219.036-.11 0-.218-.036-.328-.036-.11 0-.219-.037-.364-.037-.146-.036-.292-.036-.438-.036-.146-.037-.292-.11-.474-.146l-.875-.328c-.11-.037-.182-.11-.292-.146a3.464 3.464 0 01-.729-.547 4.699 4.699 0 01-.62-.583c-.145-.183-.291-.329-.4-.51a4.156 4.156 0 01-.365-.694 4.448 4.448 0 01-.255-.62c0-.036 0-.036-.037-.072-.073-.256-.146-.474-.182-.766v-.036a5.393 5.393 0 01-.073-.803v-.036c0-.292.036-.547.073-.802l.11-.547a5.09 5.09 0 011.239-2.26c.364-.438.838-.766 1.312-1.058.22-.146.474-.255.73-.364.218-.073.473-.183.729-.22.182-.072.51-.109.802-.145z" fill="#fff"/></svg>