<svg width="16" height="16" fill="none" xmlns="http://www.w3.org/2000/svg"><mask id="a" maskUnits="userSpaceOnUse" x="1" y="1" width="14" height="14"><path fill-rule="evenodd" clip-rule="evenodd" d="M7.994 1.333A6.663 6.663 0 001.334 8c0 3.68 2.98 6.666 6.66 6.666A6.67 6.67 0 0014.667 8a6.67 6.67 0 00-6.673-6.667zm.007 12A5.332 5.332 0 012.667 8a5.332 5.332 0 015.334-5.334A5.332 5.332 0 0113.334 8a5.332 5.332 0 01-5.333 5.333zm2.333-6a1 1 0 100-2 1 1 0 100 2zm-4.667 0c.554 0 1-.447 1-1a1 1 0 10-1 1zm2.334 4.333a3.664 3.664 0 003.406-2.333H4.594a3.664 3.664 0 003.407 2.333z" fill="#fff"/></mask><g mask="url(#a)"><path fill="#2F8BFF" d="M-8.666-8.667h33.333v33.333H-8.666z"/></g></svg>