<svg width="20" height="25" fill="none" xmlns="http://www.w3.org/2000/svg"><path clip-rule="evenodd" d="M17.349 20.764H2.258A1.257 1.257 0 011 19.506V13.16a8.803 8.803 0 018.803-8.803 8.803 8.803 0 018.804 8.803v6.347c0 .695-.562 1.258-1.258 1.258z" stroke="#AFB7CC" stroke-linecap="round" stroke-linejoin="round"/><path fill-rule="evenodd" clip-rule="evenodd" d="M11.883 2.515a2.516 2.516 0 11-5.032.001 2.516 2.516 0 015.032 0z" fill="#AFB7CC"/><path d="M11.53 20.81c.102.252.152.542.152.832a2.309 2.309 0 01-2.314 2.313 2.308 2.308 0 01-2.314-2.313c0-.29.05-.58.15-.831" stroke="#AFB7CC" stroke-linecap="round" stroke-linejoin="round"/></svg>