<svg width="32" height="21" fill="none" xmlns="http://www.w3.org/2000/svg"><path d="M12.201 5.676l6.719 4.011 4.003-1.68a6.495 6.495 0 013.016-.513 9.964 9.964 0 00-2.924-4.869A10.028 10.028 0 0012.25.833 9.992 9.992 0 007.897 4.49L8 4.487a7.978 7.978 0 014.202 1.19z" fill="#0364B8"/><path d="M12.202 5.676A7.979 7.979 0 008 4.487l-.102.003a8.015 8.015 0 00-4.11 1.193A7.982 7.982 0 00.885 8.818a7.952 7.952 0 00.553 8.204l5.922-2.485 2.634-1.105 5.863-2.46 3.062-1.285-6.716-4.011z" fill="#0078D4"/><path d="M25.938 7.494a6.494 6.494 0 00-3.015.514l-4.004 1.68 1.161.692 3.805 2.272 1.66.991 5.677 3.39a6.464 6.464 0 00-2.232-8.54 6.514 6.514 0 00-3.052-.999z" fill="#1490DF"/><path d="M25.545 13.643l-1.66-.991-3.805-2.273-1.16-.692-3.063 1.284-5.863 2.46-2.635 1.105-5.924 2.486a7.981 7.981 0 002.86 2.512A8.009 8.009 0 008 20.438h17.5a6.514 6.514 0 003.333-.915 6.487 6.487 0 002.39-2.49l-5.677-3.39z" fill="#28A8EA"/></svg>