<svg width="36" height="36" fill="none" xmlns="http://www.w3.org/2000/svg"><path fill-rule="evenodd" clip-rule="evenodd" d="M28.941 20.447a.9.9 0 00-.9.9v5.593c0 .695-.556 1.26-1.24 1.26H10.54a1.25 1.25 0 01-1.24-1.26v-5.593a.9.9 0 00-1.8 0v5.593c0 1.688 1.363 3.06 3.04 3.06H26.8c1.678 0 3.041-1.372 3.041-3.06v-5.593a.9.9 0 00-.9-.9zm-16.685-5.21a.9.9 0 111.26-1.286l4.254 4.164V6.901a.9.9 0 111.8 0v11.215l4.255-4.165a.9.9 0 011.26 1.287l-5.785 5.66a.9.9 0 01-1.26 0l-5.784-5.66z" fill="#fff"/></svg>