<svg width="24" height="24" fill="none" xmlns="http://www.w3.org/2000/svg"><path d="M21.276 5.099l-11.034 10.19c-.166.151-.3.337-.393.545a1.741 1.741 0 00-.092 1.151 2.649 2.649 0 00-1.103.148 2.711 2.711 0 00-.953.59c-1.32 1.223-1.868 4.656-1.658 5.267a.495.495 0 00.16.24.472.472 0 00.263.105h.031c.315 0 .463-.313.514-.418.588-1.24 1.519-1.17 2.507-1.083.665.056 1.349.111 1.806-.36.27-.277.476-.613.603-.983s.172-.765.133-1.156c.135.04.276.06.417.062h.045c.223-.005.441-.058.643-.154a1.62 1.62 0 00.53-.405l9.887-11.363c.28-.32.428-.74.417-1.17a1.708 1.708 0 00-.477-1.144 1.61 1.61 0 00-1.11-.492 1.604 1.604 0 00-1.136.43zM10.72 20.866c-.179.184-.644.146-1.136.105-.75-.061-1.791-.15-2.62.585.201-1.077.65-2.566 1.306-3.175a1.87 1.87 0 011.272-.526 1.644 1.644 0 011.181.503c.322.333.502.784.502 1.254-.001.47-.182.921-.505 1.254zM22.95 6.89l-9.89 11.371a.773.773 0 01-.876.21.754.754 0 01-.26-.18l-1.136-1.171a.808.808 0 01-.229-.592.824.824 0 01.26-.579L21.845 5.751a.77.77 0 01.552-.236.77.77 0 01.553.236.818.818 0 01.229.57.818.818 0 01-.23.569zM9.918 13.928a7.256 7.256 0 002.64-2.205 7.38 7.38 0 001.344-3.187 7.422 7.422 0 00-.25-3.457 7.346 7.346 0 00-1.791-2.953A7.218 7.218 0 008.93.336 7.146 7.146 0 005.517.11a7.189 7.189 0 00-3.135 1.388A7.312 7.312 0 00.227 4.19a2.736 2.736 0 00-.092 1.941A2.696 2.696 0 001.35 7.633a3.88 3.88 0 011.47 1.635c.324.677.447 1.434.356 2.181-.1.67.053 1.354.426 1.916.373.562.94.963 1.59 1.123.52.119 1.051.179 1.584.18a7.075 7.075 0 003.14-.74zm-5.899-2.373A4.807 4.807 0 003.58 8.9a4.73 4.73 0 00-1.79-1.987 1.846 1.846 0 01-.847-1.018 1.875 1.875 0 01.046-1.33 6.43 6.43 0 011.53-2.08A6.334 6.334 0 016.732.857a6.363 6.363 0 013.096.795 6.463 6.463 0 012.337 2.207 6.533 6.533 0 01-.154 7.2 6.4 6.4 0 01-2.925 2.318 6.3 6.3 0 01-3.705.278 1.84 1.84 0 01-1.083-.782 1.883 1.883 0 01-.279-1.317z" fill="#fff"/><path d="M8.666 10.343a1.667 1.667 0 10-3.333-.018 1.667 1.667 0 003.333.018zm-2.446 0a.78.78 0 111.56-.018.78.78 0 01-1.56.018z" fill="#fff"/></svg>