<svg width="36" height="33" fill="none" xmlns="http://www.w3.org/2000/svg"><path d="M16.665 24.106c-1.07-2.162-2.524-3.721-4.68-4.727.685-.771 1.253-1.492 1.888-2.129C19.957 10.998 26.677 5.5 33.73.371c.736-.536 1.254-.486 1.839.117.568.57.551 1.157.083 1.794-5.131 7.073-10.63 13.845-16.898 19.963-.635.62-1.32 1.19-2.09 1.86zm-5.9-2.346c.2-.42.334-.755.518-1.157 1.989.821 3.26 2.246 4.178 4.19-.4.184-.735.335-1.153.537-.802-1.56-1.855-2.85-3.543-3.57zM0 31.934s8.39.72 10.831-.889c2.457-1.609 3.026-4.961.936-7.107-2.09-2.145-6.602-1.793-8.023 2.682C2.324 31.096 1.02 31.531 0 31.934z" fill="#E71836"/></svg>