<svg width="32" height="28" fill="none" xmlns="http://www.w3.org/2000/svg"><path d="M9.993 9.98L22.02 22.008l8.957-8.957a3.506 3.506 0 000-4.952l-7.075-7.074a3.506 3.506 0 00-4.952 0L9.993 9.98z" fill="#2F8BFF"/><path d="M1.024 18.95a3.506 3.506 0 000 4.951l3.951 3.952a.5.5 0 00.354.146h10.49a.5.5 0 00.354-.146l5.846-5.846L9.992 9.981l-8.968 8.968z" fill="#E71836"/><path d="M29.01 28h-1.5a.5.5 0 110-1.001h1.5a.5.5 0 110 1zm-8.001-2.002a.5.5 0 01-.224-.947l1-.5a.5.5 0 01.447.894l-1 .5a.5.5 0 01-.223.053zm3.501 0h-.501a.5.5 0 110-1h.5a.5.5 0 110 1zm-1.501-2.001a.499.499 0 01-.354-.854l.5-.5a.5.5 0 11.708.708l-.5.5a.499.499 0 01-.354.146zm2.503.501a.51.51 0 01-.356-.145.505.505 0 01-.144-.356.5.5 0 01.14-.35.519.519 0 01.71-.005.51.51 0 01.15.355.504.504 0 01-.5.5zm0-2.501a.51.51 0 01-.356-.146.505.505 0 01-.144-.355.5.5 0 01.14-.35.519.519 0 01.71-.005c.095.095.15.225.15.355a.509.509 0 01-.5.5zm-.002 5.002H4.12l.854.854a.5.5 0 00.354.146h20.18a.5.5 0 100-1z" fill="#fff"/></svg>