<svg width="32" height="32" fill="none" xmlns="http://www.w3.org/2000/svg"><path fill-rule="evenodd" clip-rule="evenodd" d="M11.802 25.334a5.119 5.119 0 01-3.622-1.511 5.106 5.106 0 01-1.513-3.531 4.802 4.802 0 011.406-3.518l8.7-8.7a4.782 4.782 0 013.518-1.406 5.108 5.108 0 013.531 1.513c1.973 1.972 2.02 5.134.106 7.048a.829.829 0 11-1.173-1.173c1.267-1.267 1.22-3.376-.106-4.702a3.46 3.46 0 00-2.388-1.028 3.172 3.172 0 00-2.315.922l-8.7 8.7a3.159 3.159 0 00-.92 2.313c.016.895.38 1.743 1.027 2.389 1.326 1.326 3.436 1.373 4.703.106l5.662-5.662c.472-.472.448-1.264-.053-1.765a1.316 1.316 0 00-.908-.392 1.142 1.142 0 00-.857.339l-4.578 4.579a.83.83 0 01-1.173-1.174l4.578-4.578a2.818 2.818 0 012.06-.825c.77.014 1.499.325 2.051.878 1.148 1.148 1.172 2.992.053 4.11L15.23 23.93a4.819 4.819 0 01-3.427 1.405z" fill="#CDDBFC"/></svg>