<svg width="16" height="16" fill="none" xmlns="http://www.w3.org/2000/svg"><path fill-rule="evenodd" clip-rule="evenodd" d="M13.212 12.096l-.139-.67a2.028 2.028 0 00-1.534-1.568A11.576 11.576 0 008 9.292c-1.814 0-3.273.475-3.54.566a2.027 2.027 0 00-1.534 1.568l-.139.67A6.515 6.515 0 011.2 7.84C1.2 4.178 4.25 1.2 8 1.2s6.8 2.978 6.8 6.64a6.516 6.516 0 01-1.588 4.256m-9.398.966l.287-1.393a.828.828 0 01.644-.645.597.597 0 00.085-.023A10.423 10.423 0 018 10.493c1.745 0 3.156.503 3.17.508a.61.61 0 00.084.024.826.826 0 01.644.644l.287 1.393A6.862 6.862 0 018 14.48a6.87 6.87 0 01-4.186-1.418M8 0C3.588 0 0 3.517 0 7.84c0 4.322 3.588 7.84 8 7.84 4.411 0 8-3.518 8-7.84C16 3.516 12.411 0 8 0m0 7.5c-.951 0-1.465-.966-1.465-1.874 0-.811.657-1.47 1.465-1.47.807 0 1.464.659 1.464 1.47 0 .908-.513 1.873-1.464 1.873m0-4.543a2.67 2.67 0 00-2.665 2.67C5.335 7.116 6.27 8.7 8 8.7s2.664-1.584 2.664-3.074A2.67 2.67 0 008 2.956" fill="#fff"/></svg>