<svg width="16" height="16" fill="none" xmlns="http://www.w3.org/2000/svg"><path fill-rule="evenodd" clip-rule="evenodd" d="M3.47 1.198a.43.43 0 00-.247.077L1.566 2.427a.85.85 0 00-.284 1.063c1.157 2.354 2.743 4.546 4.712 6.514 1.968 1.967 4.16 3.55 6.513 4.707a.85.85 0 001.065-.284l1.153-1.658a.434.434 0 00-.102-.598l-1.611-1.164a.743.743 0 00-.62-.118l-1.5.386a1.85 1.85 0 01-1.687-.401 51.515 51.515 0 01-2.102-1.976 51.44 51.44 0 01-1.977-2.1 1.847 1.847 0 01-.402-1.688l.386-1.498a.741.741 0 00-.117-.62l-1.17-1.615a.437.437 0 00-.353-.179zm9.393 14.795c-.3 0-.603-.066-.885-.205-2.472-1.214-4.771-2.875-6.832-4.935C3.083 8.792 1.42 6.493.205 4.02A2.057 2.057 0 01.88 1.44L2.538.289a1.644 1.644 0 012.258.384L5.965 2.29c.34.47.452 1.061.308 1.622L5.886 5.41a.648.648 0 00.139.593A50.47 50.47 0 007.952 8.05a51.249 51.249 0 002.047 1.925c.16.141.383.192.594.139l1.5-.386a1.938 1.938 0 011.622.307l1.611 1.164c.717.518.89 1.53.384 2.257l-1.153 1.658a2.067 2.067 0 01-1.694.88z" fill="#9496AB"/></svg>