<svg width="24" height="24" fill="none" xmlns="http://www.w3.org/2000/svg"><path fill-rule="evenodd" clip-rule="evenodd" d="M13.711 6.378c0-.332-.284-.6-.634-.6h-2.154c-.35 0-.634.268-.634.6 0 .331.284.6.634.6h2.154c.35 0 .634-.269.634-.6zM8.983 5.2a.726.726 0 00-.714.737v12.126c0 .407.32.737.714.737h6.034c.394 0 .715-.33.715-.737V5.937a.727.727 0 00-.715-.737H8.983zM15.017 20H8.983C7.889 20 7 19.131 7 18.063V5.937C7 4.868 7.89 4 8.983 4h6.034C16.111 4 17 4.869 17 5.937v12.126C17 19.131 16.11 20 15.017 20z" fill="#9498AB"/></svg>