<svg width="24" height="26" fill="none" xmlns="http://www.w3.org/2000/svg"><path d="M4.726 10.68c-.292 0-.511-.255-.511-.548 0-.292.219-.548.511-.548.292 0 .548.256.548.548a.562.562 0 01-.548.548z" fill="#fff"/><mask id="a" fill="#fff"><path d="M20.105 18.498v-.694h1.607c.439 0 .84-.402.84-.84V8.195c0-.438-.401-.84-.84-.84H2.534c-.438 0-.84.402-.84.84v8.768c0 .438.402.84.84.84h1.608v.694H2.534c-.84 0-1.534-.694-1.534-1.535V8.197c0-.84.694-1.534 1.534-1.534h3.763V1H17.95v5.662h3.762c.84 0 1.535.694 1.535 1.534v8.768c0 .84-.694 1.534-1.535 1.534h-1.607zM6.991 6.662h10.265V1.694H6.99v4.968z"/></mask><path d="M20.105 18.498v-.694h1.607c.439 0 .84-.402.84-.84V8.195c0-.438-.401-.84-.84-.84H2.534c-.438 0-.84.402-.84.84v8.768c0 .438.402.84.84.84h1.608v.694H2.534c-.84 0-1.534-.694-1.534-1.535V8.197c0-.84.694-1.534 1.534-1.534h3.763V1H17.95v5.662h3.762c.84 0 1.535.694 1.535 1.534v8.768c0 .84-.694 1.534-1.535 1.534h-1.607zM6.991 6.662h10.265V1.694H6.99v4.968z" fill="#fff"/><path d="M20.105 17.804v-1h-1v1h1zm-15.963 0h1v-1h-1v1zm0 .694v1h1v-1h-1zM6.297 6.662v1h1v-1h-1zm0-5.662V0h-1v1h1zM17.95 1h1V0h-1v1zm0 5.662h-1v1h1v-1zm-10.96 0h-1v1h1v-1zm10.266 0v1h1v-1h-1zm0-4.968h1v-1h-1v1zm-10.265 0v-1h-1v1h1zm14.114 16.804v-.694h-2v.694h2zm-1 .306h1.607v-2h-1.607v2zm1.607 0c.991 0 1.84-.85 1.84-1.84h-2c0-.086.036-.121.038-.123.002-.002.036-.037.122-.037v2zm1.84-1.84V8.195h-2v8.768h2zm0-8.768c0-.99-.849-1.84-1.84-1.84v2c-.086 0-.12-.035-.122-.037-.002-.002-.037-.037-.037-.123h2zm-1.84-1.84H2.534v2h19.178v-2zm-19.178 0c-.99 0-1.84.85-1.84 1.84h2c0 .086-.035.121-.037.123-.002.002-.037.037-.123.037v-2zm-1.84 1.84v8.768h2V8.195h-2zm0 8.768c0 .99.85 1.84 1.84 1.84v-2c.086 0 .12.035.123.037.002.002.037.037.037.122h-2zm1.84 1.84h1.608v-2H2.534v2zm.608-1v.694h2v-.694h-2zm1-.306H2.534v2h1.608v-2zm-1.608 0A.544.544 0 012 16.963H0a2.543 2.543 0 002.534 2.535v-2zM2 16.963V8.197H0v8.768h2zm0-8.767c0-.288.246-.534.534-.534v-2A2.543 2.543 0 000 8.196h2zm.534-.534h3.763v-2H2.534v2zm4.763-1V1h-2v5.662h2zM6.297 2H17.95V0H6.297v2zM16.95 1v5.662h2V1h-2zm1 6.662h3.762v-2H17.95v2zm3.762 0c.288 0 .535.246.535.534h2a2.543 2.543 0 00-2.535-2.534v2zm.535.534v8.768h2V8.195h-2zm0 8.768a.544.544 0 01-.535.534v2a2.543 2.543 0 002.535-2.535h-2zm-.535.534h-1.607v2h1.607v-2zM6.991 7.662h10.265v-2H6.99v2zm11.265-1V1.694h-2v4.968h2zm-1-5.968H6.99v2h10.265v-2zm-11.265 1v4.968h2V1.694h-2z" fill="#05060B" mask="url(#a)"/><mask id="b" fill="#fff"><path d="M6.224 25V14.59H4.616v-.695H19.63v.694h-1.57V25H6.223zm.694-.694h10.447v-9.717H6.918v9.717z"/></mask><path d="M6.224 25V14.59H4.616v-.695H19.63v.694h-1.57V25H6.223zm.694-.694h10.447v-9.717H6.918v9.717z" fill="#fff"/><path d="M6.224 25h-1v1h1v-1zm0-10.41h1v-1h-1v1zm-1.608 0h-1v1h1v-1zm0-.695v-1h-1v1h1zm15.014 0h1v-1h-1v1zm0 .694v1h1v-1h-1zm-1.57 0v-1h-1v1h1zm0 10.411v1h1v-1h-1zm-11.142-.694h-1v1h1v-1zm10.447 0v1h1v-1h-1zm0-9.717h1v-1h-1v1zm-10.447 0v-1h-1v1h1zM7.224 25V14.59h-2V25h2zm-1-11.41H4.616v2h1.608v-2zm-.608 1v-.695h-2v.694h2zm-1 .305H19.63v-2H4.616v2zm14.014-1v.694h2v-.694h-2zm1-.306h-1.57v2h1.57v-2zm-2.57 1V25h2V14.59h-2zm1 9.411H6.223v2h11.835v-2zM6.917 25.306h10.447v-2H6.918v2zm11.447-1v-9.717h-2v9.717h2zm-1-10.717H6.918v2h10.447v-2zm-11.447 1v9.717h2v-9.717h-2z" fill="#05060B" mask="url(#b)"/><mask id="c" fill="#fff"><path d="M9.475 18.352a.366.366 0 010-.73h5.333a.366.366 0 010 .73H9.475z"/></mask><path d="M9.475 18.352a.366.366 0 010-.73h5.333a.366.366 0 010 .73H9.475z" fill="#fff"/><path d="M9.475 17.352c.304 0 .635.237.635.634h-2c0 .836.696 1.366 1.365 1.366v-2zm.635.634a.634.634 0 01-.635.635v-2c-.835 0-1.365.697-1.365 1.365h2zm-.635.635h5.333v-2H9.475v2zm5.333 0a.634.634 0 01-.634-.635h2c0-.835-.697-1.365-1.366-1.365v2zm-.634-.635c0-.303.237-.634.634-.634v2c.836 0 1.366-.697 1.366-1.366h-2zm.634-.634H9.475v2h5.333v-2z" fill="#05060B" mask="url(#c)"/><mask id="d" fill="#fff"><path d="M9.475 21.237a.366.366 0 010-.73h5.333a.366.366 0 010 .73H9.475z"/></mask><path d="M9.475 21.237a.366.366 0 010-.73h5.333a.366.366 0 010 .73H9.475z" fill="#fff"/><path d="M9.475 20.237c.304 0 .635.238.635.635h-2c0 .835.696 1.365 1.365 1.365v-2zm.635.635a.634.634 0 01-.635.635v-2c-.835 0-1.365.696-1.365 1.365h2zm-.635.635h5.333v-2H9.475v2zm5.333 0a.634.634 0 01-.634-.635h2c0-.835-.697-1.365-1.366-1.365v2zm-.634-.635c0-.303.237-.635.634-.635v2c.836 0 1.366-.696 1.366-1.365h-2zm.634-.635H9.475v2h5.333v-2z" fill="#05060B" mask="url(#d)"/><path d="M4.142 18.169h-1.79c-.439 0-1.096-.366-1.096-1.388V8.16c0-.658.475-1.206 1.936-1.206h18.447c.694 0 1.279.621 1.279 1.352v8.73c0 .767-.548 1.133-1.206 1.133H20.07" stroke="#05060B" stroke-miterlimit="10" stroke-linecap="round"/><path d="M6.589 6.881v-5.48h10.886v5.517" stroke="#05060B" stroke-miterlimit="10"/><path d="M4.726 10.68a.548.548 0 100-1.096.548.548 0 000 1.096z" fill="#05060B"/><path d="M4.726 10.68a.548.548 0 100-1.096.548.548 0 000 1.096z" stroke="#05060B"/><path d="M4.58 14.224h15.014" stroke="#2F8BFF" stroke-miterlimit="10" stroke-linecap="round"/><path d="M17.73 14.297v10.301H6.48V14.26" stroke="#2F8BFF" stroke-miterlimit="10"/><path d="M9.438 17.986h5.443m-5.443 2.886h5.443" stroke="#2F8BFF" stroke-miterlimit="10" stroke-linecap="round"/></svg>