<svg width="54" height="54" fill="none" xmlns="http://www.w3.org/2000/svg"><path d="M10.634 21.781c-.658 0-1.15-.575-1.15-1.233 0-.657.492-1.233 1.15-1.233.657 0 1.233.576 1.233 1.233 0 .658-.576 1.233-1.233 1.233z" fill="#fff"/><path d="M9.319 38.63H5.29c-.986 0-2.465-.822-2.465-3.123V16.109c0-1.48 1.068-2.712 4.356-2.712h41.507c1.562 0 2.877 1.397 2.877 3.041v19.644c0 1.726-1.233 2.548-2.713 2.548h-3.698" stroke="#05060B" stroke-miterlimit="10" stroke-linecap="round"/><path d="M14.825 13.233V.904h24.493v12.411" stroke="#05060B" stroke-miterlimit="10"/><path d="M10.634 21.781a1.233 1.233 0 100-2.466 1.233 1.233 0 000 2.466z" fill="#05060B"/><path d="M10.634 21.781a1.233 1.233 0 100-2.466 1.233 1.233 0 000 2.466z" stroke="#05060B"/><path d="M10.305 29.753h33.78" stroke="#2F8BFF" stroke-miterlimit="10" stroke-linecap="round"/><path d="M39.894 29.918v23.178H14.579v-23.26" stroke="#2F8BFF" stroke-miterlimit="10"/><path d="M21.237 38.22h12.246m-12.246 6.492h12.246" stroke="#2F8BFF" stroke-miterlimit="10" stroke-linecap="round"/></svg>