<svg width="16" height="16" fill="none" xmlns="http://www.w3.org/2000/svg"><path fill-rule="evenodd" clip-rule="evenodd" d="M13.986 5.63a.634.634 0 11-1.267-.002.634.634 0 011.267.002zm.813 5.538a.537.537 0 01-.538.536h-1.31v-1.055a.865.865 0 00-.863-.864H3.913a.865.865 0 00-.864.864v1.055h-1.31a.538.538 0 01-.539-.536V4.64c0-.296.242-.536.539-.536h12.522c.298 0 .539.24.539.536v6.528zM4.25 14.343h7.502v-3.358H4.25v3.358zM3.967 1.311c0-.061.05-.11.113-.11h7.84c.063 0 .114.049.114.11v1.593H3.967V1.31zM14.26 2.904h-1.027V1.31A1.313 1.313 0 0011.92 0H4.08c-.724 0-1.313.588-1.313 1.311v1.593H1.739A1.74 1.74 0 000 4.64v6.528c0 .957.78 1.736 1.739 1.736h1.31v1.776c0 .476.387.863.864.863h8.175a.865.865 0 00.864-.863v-1.776h1.31A1.74 1.74 0 0016 11.168V4.64a1.74 1.74 0 00-1.739-1.736z" fill="#fff"/></svg>