<svg width="26" height="26" fill="none" xmlns="http://www.w3.org/2000/svg"><path d="M25 13.324c0 3.334-1.333 6.334-3.533 8.5-1 1-2.167 1.8-3.434 2.4a12.08 12.08 0 01-5.033 1.1c-1.8 0-3.5-.4-5.033-1.1-1.3-.6-2.467-1.4-3.434-2.4C2.333 19.658 1 16.658 1 13.324c0-6.633 5.367-12 12-12s12 5.367 12 12z" stroke="#363C58" stroke-miterlimit="10"/><path d="M4.533 21.824v-.066a8.48 8.48 0 015.234-7.834m6.5 0A8.568 8.568 0 0119 15.758a8.465 8.465 0 012.467 6v.066" stroke="#363C58" stroke-miterlimit="10"/><path d="M13 15.291a4.533 4.533 0 100-9.067 4.533 4.533 0 000 9.067z" stroke="#363C58" stroke-miterlimit="10"/></svg>