<svg width="16" height="16" fill="none" xmlns="http://www.w3.org/2000/svg"><path fill-rule="evenodd" clip-rule="evenodd" d="M8 2.678a.6.6 0 00-.6.6V8a.6.6 0 00.278.507l2.933 1.86a.598.598 0 00.827-.186.6.6 0 00-.185-.828L8.6 7.67V3.277a.6.6 0 00-.6-.6zM16 8c0 4.411-3.589 8-8 8-4.412 0-8-3.589-8-8a.6.6 0 111.2 0c0 3.75 3.05 6.8 6.8 6.8s6.8-3.05 6.8-6.8S11.75 1.2 8 1.2a6.797 6.797 0 00-5.087 2.293l1.453.153a.6.6 0 11-.125 1.192L1.283 4.53a.6.6 0 01-.535-.656L1.046.928a.6.6 0 111.194.121l-.16 1.582A7.992 7.992 0 018 0c4.411 0 8 3.588 8 8z" fill="#fff"/></svg>