<svg width="26" height="24" fill="none" xmlns="http://www.w3.org/2000/svg"><path d="M1 2.59h24v19.76H1V2.59zM5.694 1v3.407M10.615 1v3.407M15.46 1v3.407M20.306 1v3.407" stroke="#05060B" stroke-miterlimit="22.926" stroke-linecap="round" stroke-linejoin="round"/><path d="M5.315 8.874v.832m3.862-.832v.832m3.861-.832v.832m3.862-.832v.832M5.315 17.354v.908m3.862-.908v.908m3.861-.908v.908m7.647-9.388v.832m-15.37 3.407v.909m10.675-1.968h1.666c.379 0 .682.303.682.681v1.666a.679.679 0 01-.682.681h-1.665a.679.679 0 01-.682-.681v-1.666c0-.378.303-.681.682-.681zm4.695 1.059v.909m-7.647-.909v.909m-3.861-.909v.909" stroke="#2F8BFF" stroke-miterlimit="22.926" stroke-linecap="round" stroke-linejoin="round"/></svg>