<svg width="32" height="32" fill="none" xmlns="http://www.w3.org/2000/svg"><path fill-rule="evenodd" clip-rule="evenodd" d="M26.666 16c0 5.881-4.785 10.667-10.666 10.667-5.882 0-10.667-4.786-10.667-10.667a.8.8 0 111.6 0c0 5 4.067 9.066 9.067 9.066 4.999 0 9.066-4.067 9.066-9.066 0-5-4.067-9.067-9.066-9.067a9.063 9.063 0 00-6.783 3.058l1.937.203a.8.8 0 11-.166 1.59l-3.945-.411a.799.799 0 01-.713-.876l.398-3.926a.8.8 0 111.591.161l-.213 2.11A10.656 10.656 0 0116 5.332c5.881 0 10.666 4.785 10.666 10.667z" fill="#fff"/></svg>