<svg width="36" height="36" fill="none" xmlns="http://www.w3.org/2000/svg"><path fill-rule="evenodd" clip-rule="evenodd" d="M5.07 14.165l5.654-1.547a.45.45 0 00-.237-.87l-5.214 1.429-1.387-5.394a.45.45 0 00-.872.225l1.5 5.835a.45.45 0 00.555.322zm26.164 2.408a.45.45 0 00.389-.503c-.9-7.024-6.771-12.32-13.654-12.32-5.11 0-9.773 2.892-12.172 7.547a.45.45 0 10.8.412c2.244-4.354 6.601-7.06 11.372-7.06 6.431 0 11.918 4.96 12.76 11.534a.45.45 0 00.505.39zm1.429 11.863a.45.45 0 00.323-.547l-1.5-5.836a.45.45 0 00-.555-.323l-5.655 1.549a.45.45 0 00.238.869l5.214-1.429 1.386 5.394a.451.451 0 00.549.323zm-14.632 3.71c-6.883 0-12.753-5.296-13.654-12.319a.45.45 0 01.893-.115c.843 6.576 6.33 11.535 12.76 11.535 4.771 0 9.129-2.706 11.373-7.06a.45.45 0 11.8.412c-2.399 4.655-7.063 7.548-12.172 7.548z" fill="#9498AB"/></svg>