<svg width="32" height="32" fill="none" xmlns="http://www.w3.org/2000/svg"><path fill-rule="evenodd" clip-rule="evenodd" d="M22.328 11.25a.208.208 0 00-.065-.148l-4.268-4.154a.257.257 0 00-.182-.073h-7.94c-.917 0-1.664.719-1.664 1.601v15.048c0 .883.747 1.6 1.665 1.6h10.79c.918 0 1.664-.717 1.664-1.6V11.252zm1.543 0v12.274c0 1.733-1.44 3.143-3.207 3.143H9.873c-1.768 0-3.207-1.41-3.207-3.143V8.476c0-1.733 1.439-3.143 3.207-3.143h7.939c.474 0 .922.182 1.258.51l4.268 4.154c.343.335.532.78.532 1.254zm-5.04 5.28a.77.77 0 01-.017 1.09l-3.008 2.916a.769.769 0 01-1.074 0l-3.008-2.917a.77.77 0 111.074-1.107l1.7 1.649V13.1a.771.771 0 011.542 0v5.06l1.7-1.649a.77.77 0 011.09.017z" fill="#fff"/></svg>