<svg width="34" height="25" fill="none" xmlns="http://www.w3.org/2000/svg"><path d="M16.79 9.344a4.172 4.172 0 100-8.344 4.172 4.172 0 000 8.344zm-5.472 15.207V17.15c0-3.006 2.467-5.473 5.473-5.473 3.005 0 5.473 2.467 5.473 5.473v7.401m6.504-10.497a2.871 2.871 0 100-5.742 2.871 2.871 0 000 5.742zM25 24.551v-5.114c0-2.063 1.705-3.768 3.768-3.768 2.064 0 3.768 1.705 3.768 3.768v5.114M4.768 14.054a2.871 2.871 0 100-5.742 2.871 2.871 0 000 5.742zM1 24.551v-5.114c0-2.063 1.705-3.768 3.768-3.768 2.064 0 3.768 1.705 3.768 3.768v5.114" stroke="#363C58" stroke-miterlimit="10"/></svg>