<svg width="16" height="16" fill="none" xmlns="http://www.w3.org/2000/svg"><path fill-rule="evenodd" clip-rule="evenodd" d="M13.475 13.827c-.739 0-1.34-.58-1.34-1.292 0-.713.601-1.293 1.34-1.293.739 0 1.34.58 1.34 1.293 0 .712-.601 1.292-1.34 1.292zM2.525 8.8c-.739 0-1.34-.58-1.34-1.293 0-.712.601-1.292 1.34-1.292.739 0 1.34.58 1.34 1.292 0 .713-.601 1.293-1.34 1.293zm10.95-7.614c.739 0 1.34.58 1.34 1.294 0 .712-.601 1.292-1.34 1.292-.739 0-1.34-.58-1.34-1.292 0-.714.601-1.294 1.34-1.294zm0 8.871c-.766 0-1.445.345-1.909.875l-6.524-3.35c.001-.025.008-.05.008-.076 0-.038-.01-.074-.011-.112l6.504-3.34a2.528 2.528 0 001.932.903C14.867 4.957 16 3.845 16 2.479 16 1.112 14.867 0 13.475 0S10.95 1.112 10.95 2.479c0 .178.021.35.058.519L4.685 6.243a2.527 2.527 0 00-2.16-1.214C1.133 5.029 0 6.14 0 7.506c0 1.367 1.133 2.479 2.525 2.479.933 0 1.74-.505 2.177-1.246l6.317 3.243a2.4 2.4 0 00-.069.553c0 1.366 1.133 2.477 2.525 2.477S16 13.901 16 12.535c0-1.367-1.133-2.479-2.525-2.479z" fill="#fff"/></svg>