<svg width="32" height="32" fill="none" xmlns="http://www.w3.org/2000/svg"><path d="M20.66 31.773c-.433-.144-1.08-.288-1.439-.432-.43-.216-.934-.216-2.515-.144-1.509.071-2.3 0-3.377-.145-5.75-1.008-10.349-5.187-12.001-10.95-.288-1.081-.36-1.657-.36-4.251 0-2.81-.072-3.026-.43-4.179C-1.548 5.98 2.692 0 8.73 0c1.221 0 2.73.36 3.593.792.575.289.934.36 3.161.36 2.013 0 2.803.073 3.809.361 4.528 1.153 8.192 4.107 10.133 8.214 1.221 2.521 1.653 5.116 1.365 8.069-.144 1.586-.144 1.73.215 2.666 1.15 3.387.072 7.276-2.73 9.582-.863.721-2.588 1.514-3.666 1.802-1.078.216-2.802.216-3.88-.072h-.07v-.001zm-1.942-5.548c2.372-.504 4.455-1.945 5.246-3.673 1.006-2.09.719-4.54-.646-6.053-1.15-1.297-2.875-2.017-6.971-3.026-2.732-.648-3.378-.936-3.953-1.585-.503-.577-.575-1.008-.143-1.657.43-.72 1.509-1.153 2.946-1.224 2.084-.144 3.018.36 4.24 2.305.934 1.441 1.868 1.801 3.09 1.225 1.58-.793 1.437-3.387-.288-4.9-1.653-1.368-3.449-1.945-6.468-1.945-3.161 0-5.318.649-6.755 2.09-1.15 1.152-1.365 1.8-1.365 3.601 0 1.874.216 2.45 1.437 3.531 1.294 1.225 2.372 1.658 6.252 2.594 2.73.648 3.45 1.008 4.096 1.73.288.36.431.648.431 1.296 0 .72-.072.865-.646 1.441-.863.864-2.156 1.224-3.809 1.153-1.94-.144-2.802-.72-3.808-2.738-.72-1.368-1.294-1.873-2.228-1.873-2.085 0-2.803 1.73-1.725 3.962.934 1.946 2.803 3.243 5.174 3.747 1.437.289 4.6.289 5.965 0h-.072z" fill="#00AFF0"/></svg>