<svg width="22" height="24" fill="none" xmlns="http://www.w3.org/2000/svg"><path d="M10.47 14.446c-.065 0-.13 0-.196-.066L.131 7.51A.5.5 0 010 7.181c0-.13.065-.196.13-.262L10.34.05a.417.417 0 01.392 0l10.143 6.87c.066.066.131.131.131.262 0 .13-.065.196-.13.262l-10.21 6.936c-.065.066-.13.066-.196.066zM.916 7.182l9.554 6.544 9.62-6.544L10.47.703.916 7.182z" fill="#2F3447"/><path d="M10.47 19.354c-.065 0-.13 0-.196-.066L.131 12.418A.5.5 0 010 12.09c0-.131.065-.196.13-.262l1.964-1.309c.131-.13.327-.065.458.066.131.13.066.327-.065.458L.917 12.09l9.553 6.544 9.62-6.479-1.57-1.047c-.131-.13-.197-.327-.066-.458.13-.13.327-.196.458-.065l1.963 1.309c.066.065.131.13.131.261s-.065.197-.13.262l-10.21 6.871c-.065.066-.13.066-.196.066z" fill="#2F3447"/><path d="M10.47 24c-.065 0-.13 0-.196-.066L.131 16.998C.065 16.932 0 16.867 0 16.736c0-.13.065-.196.13-.262l1.964-1.308c.131-.131.327-.066.458.065.131.13.066.327-.065.458l-1.57 1.047 9.553 6.544 9.62-6.478-1.57-1.113c-.131-.13-.197-.327-.066-.458.13-.13.327-.196.458-.065l1.963 1.308c.066.066.131.131.131.262s-.065.196-.13.262l-10.21 6.936c-.065 0-.13.066-.196.066z" fill="#2F3447"/></svg>