<svg width="16" height="16" fill="none" xmlns="http://www.w3.org/2000/svg"><path fill-rule="evenodd" clip-rule="evenodd" d="M8 0a.218.218 0 00-.205.137L5.69 5.22l-5.486.432a.222.222 0 00-.126.39l4.184 3.573-1.285 5.35a.222.222 0 00.332.241l4.69-2.875 4.692 2.875a.22.22 0 00.33-.241l-1.283-5.35 4.184-3.573a.222.222 0 00-.127-.39L10.31 5.22 8.205.137A.218.218 0 008 0zm0 2.779l1.2 2.9.283.68.733.058 3.13.246-2.387 2.039-.56.478.172.715.733 3.053-2.677-1.641L8 10.923l-.627.384-2.677 1.641.733-3.053.172-.715-.56-.478-2.387-2.039 3.13-.246.733-.058.28-.68L8 2.779z" fill="#fff"/></svg>