<svg width="17" height="21" fill="none" xmlns="http://www.w3.org/2000/svg"><path d="M12.354.646A.504.504 0 0012 .5H3A2.503 2.503 0 00.5 3v15c0 1.379 1.122 2.5 2.5 2.5h11c1.378 0 2.5-1.121 2.5-2.5V5a.504.504 0 00-.146-.354l-4-4zM15.5 18c0 .827-.673 1.5-1.5 1.5H3c-.827 0-1.5-.673-1.5-1.5V3c0-.827.673-1.5 1.5-1.5h8.793L15.5 5.207V18z" fill="#2F3447"/><path d="M4.5 6.5h6a.5.5 0 000-1h-6a.5.5 0 000 1zM4 10a.5.5 0 00.5.5h8a.5.5 0 000-1h-8a.5.5 0 00-.5.5zm8.5 3.5h-8a.5.5 0 000 1h8a.5.5 0 000-1z" fill="#2F3447"/></svg>