<svg width="24" height="26" fill="none" xmlns="http://www.w3.org/2000/svg"><path d="M9.366 22.909H21.88a.761.761 0 00.755-.755v-16.8L18.28 1H6.315a.761.761 0 00-.755.754V3.16m-.034 12.789V5.97" stroke="#363C58" stroke-miterlimit="10"/><path d="M18.28 1v4.011c0 .206.172.343.343.343h4.011m-8.502.617H4.6a.724.724 0 01-.72-.72V3.914c0-.411.343-.72.72-.72h9.532c.411 0 .72.343.72.72v1.337c0 .412-.343.72-.72.72zM9.777 8.886h9.635M9.777 11.8h9.635m-9.635 2.88h9.635m-9.635 2.914h9.635m-.001 2.88h-9.325m-6.652.275l1.303 1.474 2.914-3.497" stroke="#363C58" stroke-miterlimit="10"/><path d="M5.526 25a4.526 4.526 0 100-9.051 4.526 4.526 0 000 9.051z" stroke="#363C58" stroke-miterlimit="10"/></svg>