<svg width="24" height="24" fill="none" xmlns="http://www.w3.org/2000/svg"><path d="M10.746 11.104H.358c-.215 0-.358-.143-.358-.358V.358C0 .143.143 0 .358 0h10.388c.215 0 .358.143.358.358v10.388c0 .215-.143.358-.358.358zm-10.03-.716h9.672V.716H.716v9.672zM10.746 24H.358C.143 24 0 23.857 0 23.642V13.254c0-.215.143-.358.358-.358h10.388c.215 0 .358.143.358.358v10.388c0 .215-.143.358-.358.358zm-10.03-.716h9.672v-9.672H.716v9.672zm22.926-12.18H13.254c-.215 0-.358-.143-.358-.358V.358c0-.215.143-.358.358-.358h10.388c.215 0 .358.143.358.358v10.388c0 .215-.143.358-.358.358zm-10.03-.716h9.672V.716h-9.672v9.672zM23.642 24H13.254c-.215 0-.358-.143-.358-.358V13.254c0-.215.143-.358.358-.358h10.388c.215 0 .358.143.358.358v10.388c0 .215-.143.358-.358.358zm-10.03-.716h9.672v-9.672h-9.672v9.672z" fill="#2F3447"/><path d="M7.38 5.875H3.796c-.215 0-.43-.144-.43-.359s.215-.358.358-.358h3.582c.215 0 .359.143.359.358s-.144.359-.287.359z" fill="#2F3447"/><path d="M5.516 7.737c-.215 0-.358-.143-.358-.358V3.797c0-.215.143-.358.358-.358.215-.072.359.143.359.286v3.582c0 .215-.144.43-.359.43zm14.759-1.862h-3.582c-.215 0-.359-.144-.359-.359s.144-.358.359-.358h3.582c.215 0 .358.143.358.358s-.143.359-.358.359zm0 13.611h-3.582c-.215 0-.359-.143-.359-.358s.144-.358.359-.358h3.582c.215 0 .358.143.358.358s-.143.358-.358.358zm0-1.361h-3.582c-.215 0-.359-.143-.359-.358s.144-.358.359-.358h3.582c.215 0 .358.143.358.358s-.143.358-.358.358zM6.806 20.06c-.072 0-.215 0-.286-.072L3.94 17.41a.346.346 0 010-.502.346.346 0 01.502 0l2.58 2.58a.346.346 0 010 .501c0 .072-.144.072-.216.072z" fill="#2F3447"/><path d="M4.298 20.06c-.071 0-.215 0-.286-.072a.346.346 0 010-.501l2.579-2.58a.346.346 0 01.501 0 .346.346 0 010 .502l-2.579 2.58c-.071.07-.143.07-.215.07z" fill="#2F3447"/></svg>