<svg width="679" height="195" fill="none" xmlns="http://www.w3.org/2000/svg"><g filter="url(#filter0_dd)"><path fill-rule="evenodd" clip-rule="evenodd" d="M2.899 1H677l-.899 190-3.242-5.867-.059.142-3.253 5.725-3.194-5.585-3.064 5.585-3.016-5.465-3.192 5.465-3.18-5.549-3.177 5.549-3.031-5.197-3.079 5.197-3.044-5.22-2.919 5.22-3.16-5.828-.043.103-3.252 5.725-3.08-5.197-3.03 5.197-3.177-5.549-3.18 5.549-2.918-4.917-2.798 4.917-3.306-6.194-.193.469-3.252 5.725-3.252-5.725-.149-.362-3.399 6.087-2.832-4.716-2.835 4.716-3.252-5.725-.017-.042-3.137 5.767-2.967-5.342-3.094 5.342-3.252-5.725-.001-.003-3.251 5.728-2.98-5.074-2.983 5.074-2.867-4.795-2.75 4.795-3.331-6.255-.217.53-3.302 5.725-2.859-4.776-2.857 4.776-3.35-5.967-.099.242-3.302 5.725-2.716-4.431-2.605 4.431-3.476-6.622-.368.897L532.51 191l-3.254-5.61-3.202 5.61-3.004-5.133-3.007 5.133-3.094-5.342-2.967 5.342-3.136-5.767-.018.042-3.252 5.725-3.081-5.312-3.079 5.312-3.152-5.49-3.155 5.49-2.943-4.978-2.823 4.978-3.281-6.133-.168.408-3.252 5.725-2.933-4.954-2.931 4.954-3.3-5.847-.051.122-3.252 5.725-2.792-4.613-2.678 4.613-3.403-6.438-.292.713-3.302 5.725-3.252-5.725-.026-.063-3.275 5.788-2.934-4.96-2.98 4.96-3.144-5.463-3.015 5.463-3.064-5.585-3.194 5.585-3.179-5.433-3.129 5.433-3.078-5.311-3.081 5.311-3.041-5.104-2.872 5.104-3.21-5.95-.092.225L407.89 191l-3.007-5.133-3.005 5.133-3.226-5.668-3.229 5.668-2.867-4.795-2.75 4.795-3.355-6.317-.243.592-3.252 5.725-3.106-5.371-3.103 5.371-3.128-5.431-3.13 5.431-2.968-5.038-2.847 5.038-3.256-6.069-.144.344-3.252 5.725-2.958-5.014-2.955 5.014-3.251-5.728-.001.003-3.302 5.725-3.181-5.554-3.323 5.554-3.243-5.867-.059.142-3.252 5.725-3.194-5.585-3.064 5.585-3.017-5.465L320.03 191l-3.18-5.549-3.177 5.549-3.031-5.197-3.079 5.197-3.043-5.22-2.919 5.22-3.161-5.828-.042.103-3.253 5.725-3.079-5.197-3.031 5.197-3.177-5.549-3.18 5.549-2.917-4.917-2.799 4.917-3.306-6.194-.192.469-3.253 5.725-3.252-5.725-.148-.362-3.4 6.087-2.832-4.716-2.834 4.716-3.253-5.725-.017-.042-3.136 5.767-2.968-5.342-3.093 5.342-3.253-5.725-.001-.003-3.251 5.728-2.98-5.074-2.982 5.074-2.868-4.795-2.75 4.795-3.33-6.255-.218.53-3.301 5.725-2.86-4.776-2.857 4.776-3.349-5.967-.1.242-3.301 5.725-2.716-4.431-2.606 4.431-3.476-6.622-.368.897-3.252 5.725-3.253-5.61-3.202 5.61-3.005-5.133-3.007 5.133-3.093-5.342-2.968 5.342-3.136-5.767-.017.042-3.253 5.725-3.081-5.311-3.078 5.311-3.153-5.49-3.155 5.49-2.942-4.978-2.823 4.978-3.282-6.133-.167.408-3.253 5.725-2.933-4.954-2.93 4.954-3.3-5.847-.051.122-3.252 5.725-2.792-4.613-2.678 4.613-3.403-6.438-.293.713-3.301 5.725-3.253-5.725-.025-.063-3.276 5.788-2.933-4.96-2.98 4.96-3.144-5.463-3.016 5.463-3.064-5.585L95.773 191l-3.179-5.433L89.466 191l-3.079-5.311-3.08 5.311-3.041-5.104L77.393 191l-3.21-5.95-.092.225L70.84 191l-3.007-5.133L64.827 191l-3.226-5.668L58.372 191l-2.867-4.795-2.75 4.795-3.355-6.317-.242.592L45.904 191l-3.105-5.371L39.697 191l-3.128-5.431-3.13 5.431-2.968-5.038L27.623 191l-3.257-6.069-.143.344L20.97 191l-2.957-5.014L15.058 191l-3.25-5.728-.002.003L8.504 191l-3.181-5.554L2 191 2.899 1zm323.389 177.061l.075.184h-.15l.075-.184zm-24.859.184l-.075-.184-.075.184h.15zm-74.827-.184l.075.184h-.15l.075-.184zm-74.877.184h.2l-.075-.184h-.05l-.075.184zm-74.677-.184l.075.184h-.15l.075-.184zm199.297.184h.152l-.077-.184-.075.184zm-74.677-.184l.075.184h-.15l.075-.184zm-74.677.184l-.075-.184-.076.184h.151zm-74.828-.184l.076.184h-.2l.075-.184h.05zm199.248.184h.2l-.075-.184h-.05l-.075.184zm-74.677-.184l.077.184h-.152l.075-.184zm-74.677.184l-.075-.184-.075.184h.15zm-74.828-.184l.076.184h-.152l.077-.184zm286.667.184l-.075-.184-.075.184h.15zm-25.009-.184l.075.184h-.15l.075-.184zm-74.677.184l-.075-.184-.075.184h.15zm-74.827-.184l.075.184h-.152l.077-.184zm-74.877.184h.151l-.076-.184-.075.184zm199.497-.184l.075.184h-.2l.075-.184h.05zm-74.727.184l-.075-.184-.075.184h.15zm-74.827-.184l.075.184h-.15l.075-.184zm-74.877.184h.2l-.076-.184h-.049l-.075.184zm199.497-.184l.075.184h-.152l.077-.184zm-74.877.184h.2l-.076-.184h-.049l-.075.184zm-74.677-.184l.075.184h-.15l.075-.184zm-74.677.184l-.075-.184-.076.184h.15zm473.938 0h.199l-.075-.184h-.049l-.075.184zm174.563-.184l.075.184h-.151l.076-.184zm-24.859.184l-.075-.184-.075.184h.15zm-74.828-.184l.076.184h-.151l.075-.184zm49.744.184h.151l-.076-.184-.075.184zm-199.297-.184l.075.184h-.151l.076-.184zm49.792.184h.151l-.076-.184-.075.184zm74.828-.184l.075.184h-.151l.076-.184zm-149.554 0h.049l.075.184h-.2l.076-.184zm199.297.184h.2l-.076-.184h-.049l-.075.184zm-74.601 0h-.151l.075-.184.076.184zm-149.506 0h-.151l.076-.184.075.184zm74.753 0l-.076-.184-.075.184h.151zm37.4 0h-.151l.076-.184.075.184zm174.439 0l-.075-.184-.076.184h.151zm-25.009-.184l.075.184h-.15l.075-.184zm-74.677.184l-.075-.184-.076.184h.151zm-149.705 0h.152l-.076-.184-.076.184zm199.448-.184h.049l.075.184h-.199l.075-.184zm-224.381.184h.199l-.075-.184h-.049l-.075.184zm149.704 0l-.075-.184-.076.184h.151zm-74.828-.184l.076.184h-.151l.075-.184zm124.696.184h-.152l.076-.184.076.184zm-74.952 0h.199l-.075-.184h-.049l-.075.184zm-149.505 0h.15l-.075-.184-.075.184zm74.827-.184l.076.184h-.151l.075-.184z" fill="#F5F8FC"/></g><defs><filter id="filter0_dd" x="0" y="0" width="679" height="195" filterUnits="userSpaceOnUse" color-interpolation-filters="sRGB"><feFlood flood-opacity="0" result="BackgroundImageFix"/><feColorMatrix in="SourceAlpha" values="0 0 0 0 0 0 0 0 0 0 0 0 0 0 0 0 0 0 127 0"/><feOffset dy="2"/><feGaussianBlur stdDeviation="1"/><feColorMatrix values="0 0 0 0 0.101961 0 0 0 0 0.141176 0 0 0 0 0.192157 0 0 0 0.04 0"/><feBlend in2="BackgroundImageFix" result="effect1_dropShadow"/><feColorMatrix in="SourceAlpha" values="0 0 0 0 0 0 0 0 0 0 0 0 0 0 0 0 0 0 127 0"/><feOffset dy="1"/><feGaussianBlur stdDeviation="1"/><feColorMatrix values="0 0 0 0 0.101961 0 0 0 0 0.140778 0 0 0 0 0.192157 0 0 0 0.08 0"/><feBlend in2="effect1_dropShadow" result="effect2_dropShadow"/><feBlend in="SourceGraphic" in2="effect2_dropShadow" result="shape"/></filter></defs></svg>