<svg width="18" height="18" fill="none" xmlns="http://www.w3.org/2000/svg"><path fill-rule="evenodd" clip-rule="evenodd" d="M9 7.803a1.22 1.22 0 00-1.226 1.213c0 .669.55 1.213 1.226 1.213a1.22 1.22 0 001.226-1.213A1.22 1.22 0 009 7.803zm0 3.326a2.122 2.122 0 01-2.126-2.113c0-1.165.954-2.113 2.126-2.113s2.126.948 2.126 2.113A2.122 2.122 0 019 11.129zM3.907 9.016A5.973 5.973 0 009 11.882a5.972 5.972 0 005.093-2.866A5.973 5.973 0 009 6.15a5.974 5.974 0 00-5.093 2.866zM9 12.782a6.875 6.875 0 01-5.878-3.327.853.853 0 010-.878A6.876 6.876 0 019 5.25c2.4 0 4.652 1.275 5.879 3.327a.855.855 0 010 .878A6.876 6.876 0 019 12.782z" fill="#2F8BFF"/></svg>