<svg width="18" height="14" fill="none" xmlns="http://www.w3.org/2000/svg"><path fill-rule="evenodd" clip-rule="evenodd" d="M14.5 8c.276 0 .5-.166.5-.37V6.37c0-.204-.224-.37-.5-.37s-.5.166-.5.37v1.26c0 .204.224.37.5.37zM16 2.957c0-.528-.34-.957-.759-.957H2.76c-.42 0-.76.429-.76.957v8.086c0 .528.34.957.759.957H15.24c.419 0 .759-.43.759-.957V2.957zM1 10.62V3.379C1 2.067 1.869 1 2.937 1h12.126C16.131 1 17 2.067 17 3.38v7.24c0 1.313-.869 2.38-1.937 2.38H2.937C1.869 13 1 11.933 1 10.62z" fill="#43C588"/><path d="M14 6.37h.125H14zm0 1.26h-.125H14zM2 2.956h.125H2zm0 8.086h-.125H2zm.759.957v.125V12zm12.482 0v-.125V12zM14.5 8.125a.721.721 0 00.428-.133.454.454 0 00.197-.363h-.25c0 .054-.029.112-.096.162a.472.472 0 01-.279.084v.25zm.625-.496V6.371h-.25v1.258h.25zm0-1.258a.454.454 0 00-.197-.363.721.721 0 00-.428-.133v.25c.114 0 .212.034.28.084.066.05.095.108.095.162h.25zm-.625-.496a.721.721 0 00-.428.133.454.454 0 00-.197.363h.25c0-.054.029-.112.096-.162a.472.472 0 01.279-.084v-.25zm-.625.496v1.258h.25V6.371h-.25zm0 1.258c0 .151.083.278.197.363a.721.721 0 00.428.133v-.25a.472.472 0 01-.28-.084c-.066-.05-.095-.108-.095-.162h-.25zm2.25-4.672c0-.569-.37-1.082-.884-1.082v.25c.324 0 .634.344.634.832h.25zm-.884-1.082H2.76v.25h12.48v-.25zm-12.482 0c-.513 0-.884.513-.884 1.082h.25c0-.488.31-.832.634-.832v-.25zm-.884 1.082v8.086h.25V2.957h-.25zm0 8.086c0 .568.37 1.082.884 1.082v-.25c-.324 0-.634-.345-.634-.832h-.25zm.884 1.082H15.24v-.25H2.76v.25zm12.482 0c.513 0 .884-.514.884-1.082h-.25c0 .487-.31.832-.634.832v.25zm.884-1.082V2.957h-.25v8.086h.25zm-15-.422V3.379h-.25v7.242h.25zm0-7.242c0-1.268.836-2.254 1.812-2.254v-.25C1.777.875.875 2.023.875 3.379h.25zm1.812-2.254h12.126v-.25H2.937v.25zm12.126 0c.977 0 1.812.986 1.812 2.254h.25c0-1.356-.902-2.504-2.062-2.504v.25zm1.812 2.254v7.242h.25V3.379h-.25zm0 7.242c0 1.268-.835 2.254-1.812 2.254v.25c1.16 0 2.062-1.148 2.062-2.504h-.25zm-1.812 2.254H2.937v.25h12.126v-.25zm-12.126 0c-.976 0-1.812-.986-1.812-2.254h-.25c0 1.356.902 2.504 2.062 2.504v-.25z" fill="#43C588"/></svg>