<svg width="32" height="32" fill="none" xmlns="http://www.w3.org/2000/svg"><path d="M31.997 23.88c0 .175-.005.555-.015.848-.026.718-.083 1.645-.17 2.067a6.885 6.885 0 01-.579 1.732 6.21 6.21 0 01-1.142 1.574 6.21 6.21 0 01-1.572 1.138c-.501.255-1.104.45-1.742.58-.418.084-1.338.14-2.052.165-.293.01-.673.016-.848.016l-15.756-.003c-.176 0-.556-.005-.85-.015-.717-.026-1.644-.083-2.066-.17a6.885 6.885 0 01-1.732-.579 6.209 6.209 0 01-1.574-1.142 6.21 6.21 0 01-1.138-1.572c-.255-.501-.45-1.104-.58-1.742-.084-.418-.14-1.338-.165-2.052-.01-.293-.016-.674-.016-.848L.002 8.121c0-.176.006-.556.016-.85.026-.717.083-1.644.17-2.066.129-.635.324-1.234.579-1.732a6.208 6.208 0 011.142-1.574A6.21 6.21 0 013.481.761c.501-.255 1.104-.45 1.742-.58.418-.084 1.338-.14 2.052-.165.293-.01.674-.016.848-.016L23.88.003c.175 0 .555.005.848.015.718.026 1.645.083 2.067.17.635.129 1.234.324 1.732.579a6.164 6.164 0 012.712 2.714c.255.501.45 1.104.58 1.742.084.418.14 1.338.165 2.052.01.293.016.673.016.848l-.003 15.756z" fill="url(#paint0_linear)"/><path d="M24.477 7.57a11.402 11.402 0 00-8.117-3.363c-6.325 0-11.472 5.145-11.475 11.47 0 2.022.528 3.995 1.532 5.735l-1.628 5.944 6.083-1.595a11.47 11.47 0 005.484 1.396h.004c6.325 0 11.473-5.146 11.475-11.47a11.4 11.4 0 00-3.358-8.116zM16.36 25.22h-.003c-1.712 0-3.39-.46-4.855-1.329l-.348-.207-3.61.947.964-3.518-.227-.361a9.51 9.51 0 01-1.458-5.074c.002-5.257 4.28-9.534 9.541-9.534a9.475 9.475 0 016.743 2.796 9.476 9.476 0 012.79 6.745c-.001 5.258-4.28 9.535-9.537 9.535zm5.232-7.14c-.287-.144-1.696-.838-1.96-.933-.262-.096-.453-.144-.644.143s-.741.933-.908 1.124c-.167.191-.335.215-.621.072-.287-.144-1.211-.446-2.306-1.423-.853-.76-1.428-1.699-1.595-1.985-.168-.287-.018-.443.126-.585.129-.129.286-.335.43-.503.143-.167.19-.287.286-.478.096-.191.048-.359-.024-.502-.071-.143-.645-1.554-.884-2.128-.232-.56-.469-.483-.645-.492a10.66 10.66 0 00-.55-.01c-.19 0-.501.071-.764.358s-1.003.98-1.003 2.392c0 1.41 1.027 2.773 1.17 2.964.144.192 2.022 3.087 4.898 4.328a16.33 16.33 0 001.635.604c.687.218 1.312.188 1.806.114.55-.082 1.696-.694 1.935-1.363.24-.67.24-1.243.167-1.363-.071-.12-.262-.191-.55-.335z" fill="#fff"/><defs><linearGradient id="paint0_linear" x1="16" y1="0" x2="16" y2="32" gradientUnits="userSpaceOnUse"><stop stop-color="#61FD7D"/><stop offset="1" stop-color="#2BB826"/></linearGradient></defs></svg>